<?xml version="1.0" encoding="utf-8"?>
<!-- Generator: Adobe Illustrator 18.1.0, SVG Export Plug-In . SVG Version: 6.00 Build 0)  -->
<svg version="1.1" id="Ebene_1" xmlns="http://www.w3.org/2000/svg" xmlns:xlink="http://www.w3.org/1999/xlink" x="0px" y="0px"
	 viewBox="0 0 641.9 95.7" enable-background="new 0 0 641.9 95.7" xml:space="preserve">
<path fill="#FFFFFF" d="M61.6,80.6H23.9l-7,15.1H1.2L42.7,0l41.6,95.7H67.9L61.6,80.6z M30.1,66.1h24.6L42.7,37.2L30.1,66.1z"/>
<path fill="#FFFFFF" d="M205,0.3v75.1v1.3v18.8h-15.1v-15l-38.1-54.6v69.5h-15.1V5.2V1.5V0.3h1.9h3.7h9.5l38.1,54.4V0.3H205z"/>
<path fill="#FFFFFF" d="M316.1,80.6h-37.7l-7,15.1h-15.7L297.2,0l41.6,95.7h-16.4L316.1,80.6z M284.6,66.1h24.6l-12.1-28.9
	L284.6,66.1z"/>
<path fill="#FFFFFF" d="M431.1,48.2l26.5,47.2h-17l-18.3-32.2l-17.6,32.2h-15.1v-3.8V0.3h15.1v64.8l9.4-17l6.3-11.9l20.8-35.9h17
	L431.1,48.2z"/>
<path fill="#FFFFFF" d="M508.5,95.4v-95H523v95H508.5z"/>
<path fill="#FFFFFF" d="M641.9,0.3v75.1v1.3v18.8h-15.1v-15l-38.1-54.6v69.5h-15.1V5.2V1.5V0.3h1.9h3.7h9.5l38.1,54.4V0.3H641.9z"/>
</svg>
