<?xml version="1.0" encoding="utf-8"?>
<!-- Generator: Adobe Illustrator 18.1.0, SVG Export Plug-In . SVG Version: 6.00 Build 0)  -->
<svg version="1.1" id="Ebene_1" xmlns="http://www.w3.org/2000/svg" xmlns:xlink="http://www.w3.org/1999/xlink" x="0px" y="0px"
	 viewBox="0 0 301 301" enable-background="new 0 0 301 301" xml:space="preserve">
<g>
	<path fill="#010202" d="M150.5,301C67.5,301,0,233.5,0,150.5C0,67.5,67.5,0,150.5,0C233.5,0,301,67.5,301,150.5
		C301,233.5,233.5,301,150.5,301z M150.5,12C74.1,12,12,74.1,12,150.5S74.1,289,150.5,289S289,226.9,289,150.5S226.9,12,150.5,12z"
		/>
</g>
<g>
	<path fill="#010202" d="M163.2,74.3h-17.8l-3.3,7.1h-7.4l19.6-45.2l19.7,45.2h-7.7L163.2,74.3z M148.3,67.5h11.6l-5.7-13.7
		L148.3,67.5z"/>
</g>
<g>
	<path fill="#010202" d="M200.8,99.4V135v0.6v8.9h-7.1v-7.1l-18-25.8v32.9h-7.1v-42.7V100v-0.6h0.9h1.8h4.5l18,25.7V99.4H200.8z"/>
	<path fill="#010202" d="M235.6,137.3h-17.8l-3.3,7.1h-7.4l19.6-45.2l19.7,45.2h-7.7L235.6,137.3z M220.8,130.5h11.6l-5.7-13.7
		L220.8,130.5z"/>
</g>
<g>
	<path fill="#010202" d="M220,190l12.5,22.3h-8l-8.6-15.2l-8.3,15.2h-7.1v-1.8v-43.1h7.1v30.7l4.4-8l3-5.6l9.8-17h8L220,190z"/>
</g>
<g>
	<path fill="#010202" d="M169.4,258.4v-44.9h6.8v44.9H169.4z"/>
</g>
<g>
	<path fill="#010202" d="M146.8,213.4V249v0.6v8.9h-7.1v-7.1l-18-25.8v32.9h-7.1v-42.7V214v-0.6h0.9h1.8h4.5l18,25.7v-25.7H146.8z"
		/>
</g>
<g>
	<polygon fill="#010202" points="47.1,165.7 47,165.9 59.5,165.9 59.6,165.7 	"/>
</g>
<g>
	<polygon fill="#010202" points="46.6,166.5 46.6,166.7 59.1,166.7 59.2,166.5 	"/>
</g>
<g>
	<polygon fill="#010202" points="46.2,167.4 46.2,167.5 58.7,167.5 58.8,167.4 	"/>
</g>
<g>
	<polygon fill="#010202" points="45.9,168.1 45.8,168.2 58.4,168.2 58.4,168.1 	"/>
</g>
<g>
	<polygon fill="#010202" points="47.5,164.9 47.4,165.1 59.9,165.1 60.1,164.9 	"/>
</g>
<g>
	<polygon fill="#010202" points="47.9,164 47.8,164.2 60.4,164.2 60.5,164 	"/>
</g>
<g>
	<polygon fill="#010202" points="48.3,163.3 48.2,163.5 60.8,163.5 60.9,163.3 	"/>
</g>
<g>
	<polygon fill="#010202" points="48.8,162.3 48.6,162.6 61.2,162.6 61.3,162.3 	"/>
</g>
<g>
	<polygon fill="#010202" points="49.2,161.6 49,161.9 61.6,161.9 61.7,161.6 	"/>
</g>
<g>
	<polygon fill="#010202" points="49.6,160.7 49.4,161 62,161 62.1,160.7 	"/>
</g>
<g>
	<polygon fill="#010202" points="50,159.9 49.8,160.3 62.4,160.3 62.6,159.9 	"/>
</g>
<g>
	<polygon fill="#010202" points="50.4,159 50.2,159.4 62.8,159.4 63,159 	"/>
</g>
<g>
	<polygon fill="#010202" points="50.8,158.2 50.6,158.6 63.2,158.6 63.4,158.2 	"/>
</g>
<g>
	<polygon fill="#010202" points="51.3,157.4 51,157.8 63.6,157.8 63.8,157.4 	"/>
</g>
<g>
	<polygon fill="#010202" points="51.7,156.6 51.4,157 64,157 64.2,156.6 	"/>
</g>
<g>
	<polygon fill="#010202" points="52.1,155.7 51.8,156.2 64.4,156.2 64.7,155.7 	"/>
</g>
<g>
	<polygon fill="#010202" points="52.5,154.9 52.2,155.4 64.8,155.4 65.1,154.9 	"/>
</g>
<g>
	<polygon fill="#010202" points="53,154 52.7,154.6 65.2,154.6 65.5,154 	"/>
</g>
<g>
	<polygon fill="#010202" points="53.4,153.2 53.1,153.8 65.6,153.8 65.9,153.2 	"/>
</g>
<g>
	<polygon fill="#010202" points="53.8,152.4 53.5,153 66,153 66.3,152.4 	"/>
</g>
<g>
	<polygon fill="#010202" points="54.2,151.6 53.9,152.1 66.5,152.1 66.7,151.6 	"/>
</g>
<g>
	<polygon fill="#010202" points="54.6,150.7 54.3,151.4 66.8,151.4 67.2,150.7 	"/>
</g>
<g>
	<polygon fill="#010202" points="55,149.9 54.7,150.6 67.2,150.6 67.6,149.9 	"/>
</g>
<g>
	<polygon fill="#010202" points="55.4,149.1 55.1,149.7 67.7,149.7 68,149.1 	"/>
</g>
<g>
	<polygon fill="#010202" points="55.9,148.2 55.5,148.9 68.1,148.9 68.4,148.2 	"/>
</g>
<g>
	<polygon fill="#010202" points="56.3,147.4 55.9,148.1 68.5,148.1 68.9,147.4 	"/>
</g>
<g>
	<polygon fill="#010202" points="56.7,146.6 56.3,147.3 68.9,147.3 69.3,146.6 	"/>
</g>
<g>
	<polygon fill="#010202" points="57.1,145.7 56.8,146.5 69.3,146.5 69.7,145.7 	"/>
</g>
<g>
	<polygon fill="#010202" points="70.3,146.1 70.3,146.1 59.2,168.2 81.4,168.2 	"/>
</g>
<g>
	<polygon fill="#010202" points="57.2,145.7 63.6,132.8 69.9,145.3 69.7,145.7 	"/>
</g>
</svg>
