<?xml version="1.0" encoding="utf-8"?>
<!-- Generator: Adobe Illustrator 18.1.0, SVG Export Plug-In . SVG Version: 6.00 Build 0)  -->
<svg version="1.1" id="Ebene_1" xmlns="http://www.w3.org/2000/svg" xmlns:xlink="http://www.w3.org/1999/xlink" x="0px" y="0px"
	 viewBox="0 0 199.1 329.8" enable-background="new 0 0 199.1 329.8" xml:space="preserve">
<g>
	<g>
		<path d="M197.8,176.1c0.5,13.7-2.5,26.7-8.4,38.8c-13.5,27.7-26.8,55.5-41,82.8c-13.8,26.5-41,37.5-66.9,27.9
			c-13.4-5-23.4-14.4-29.7-26.9C37.4,270.4,22.9,242,9.6,213.2c-12.1-26.2-10.7-52.9,1.8-78.7C24,108.5,37,82.8,50,57.2
			C58.2,41,70,28.6,88.4,24.8c23.2-4.8,41.9,3.3,55.1,22.5c6.7,9.8,11.6,20.9,17.1,31.6c9,17.7,17.7,35.5,26.6,53.1
			C194.2,146,198.2,160.6,197.8,176.1z M188.6,176.1c0.2-13.9-3.5-27.3-9.9-40c-12.4-24.7-24.5-49.5-37.2-74
			c-3.5-6.7-8.2-13.1-13.7-18.2c-16-15-40.2-15-56.2,0.1c-5.6,5.3-10.3,11.9-13.8,18.7C45.7,85.9,34.5,109.7,22.4,133
			c-14.6,28.1-15.3,55.9-0.9,84.2c12.4,24.5,24.3,49.2,36.8,73.7c2.8,5.4,6.4,10.6,10.5,15.1c10.3,11,23.2,15.1,38.1,12.8
			c16.1-2.5,26.7-12.4,33.7-26.2c13.6-26.7,26.8-53.6,39.9-80.5C186,200.9,188.9,189,188.6,176.1z"/>
	</g>
	<g>
		<g>
			<g>
				<g>
					<path d="M85.1,208.9c-5.9,0-10.8-4.8-10.8-10.8s4.8-10.8,10.8-10.8c6,0,10.8,4.8,10.8,10.8S91,208.9,85.1,208.9z M74.8,215.5
						h20.6v6H74.8V215.5z M85.1,202.3c2.3,0,4.2-1.8,4.2-4.3c0-2.4-1.9-4.3-4.2-4.3c-2.3,0-4.2,1.9-4.2,4.3
						C80.9,200.5,82.8,202.3,85.1,202.3z"/>
				</g>
			</g>
			<g>
				<g>
					<path d="M110.6,222.9H104v-35.1h20.7v6.4h-14.2v8h8.5v6h-8.5V222.9z"/>
				</g>
			</g>
		</g>
		<g>
			<g>
				<path d="M110.4,255.9h-6.6c0-2.4-1.9-4.3-4.2-4.3c-2.4,0-4.3,1.9-4.3,4.3v14.4c0,2.4,1.9,4.2,4.3,4.2c2.3,0,4.2-1.9,4.2-4.2h6.6
					c0,6-4.8,10.8-10.8,10.8c-5.8,0-10.8-4.6-10.8-10.3v-14.9c0-6,4.8-10.9,10.8-10.9C105.5,244.9,110.4,249.9,110.4,255.9z"/>
			</g>
		</g>
		<g>
			<g>
				<path d="M111.4,108.1h-8.6V93.2c-2,0.5-4.3,0.6-6.5-0.1v14.9h-8.6V82.4c0-6.6,5.3-11.9,11.8-11.9c6.5,0,11.8,5.4,11.8,11.9
					V108.1z M104.8,106.1h4.6V82.4c0-5.5-4.4-9.9-9.8-9.9c-5.4,0-9.8,4.5-9.8,9.9v23.7h4.6V90.3l1.4,0.6c2.7,1.1,5.6,1,7.7,0.1
					l1.4-0.6V106.1z M99.6,87.3c-2.9,0-5.3-2.3-5.3-5.2c0-2.9,2.4-5.3,5.3-5.3c2.9,0,5.2,2.4,5.2,5.3
					C104.8,84.9,102.5,87.3,99.6,87.3z M99.6,78.8c-1.8,0-3.3,1.5-3.3,3.3c0,1.8,1.5,3.2,3.3,3.2c1.8,0,3.2-1.4,3.2-3.2
					C102.8,80.3,101.3,78.8,99.6,78.8z"/>
			</g>
		</g>
		<g>
			<g>
				<g>
					<path d="M96.5,166h-8.6v-10.4c0-1.7-1.3-3.2-2.9-3.2h-3.6V166h-8.6v-25.7c0-6.6,5.3-11.9,11.8-11.9c6.5,0,11.8,5.4,11.8,11.9
						c0,2.8-1,5.3-3.1,7.5c2,2.2,3.1,4.9,3.1,7.8V166z M89.9,164h4.6v-8.4c0-2.7-1.1-5.2-3.2-7.1l-0.8-0.7l0.8-0.7
						c2.1-1.9,3.2-4.2,3.2-6.7c0-5.5-4.4-9.9-9.8-9.9c-5.4,0-9.8,4.5-9.8,9.9V164h4.6v-13.6H85c2.7,0,4.9,2.4,4.9,5.2V164z
						 M84.7,145.2c-2.9,0-5.3-2.4-5.3-5.3c0-2.9,2.4-5.2,5.3-5.2c2.9,0,5.2,2.3,5.2,5.2C89.9,142.8,87.6,145.2,84.7,145.2z
						 M84.7,136.7c-1.8,0-3.3,1.4-3.3,3.2c0,1.8,1.5,3.3,3.3,3.3c1.7,0,3.2-1.5,3.2-3.3C87.9,138.1,86.5,136.7,84.7,136.7z"/>
				</g>
			</g>
			<g>
				<g>
					<path d="M117.8,166h-8.6v-28.7h-8.5v-8.4h25.6v8.4h-8.5V166z M111.2,164h4.6v-28.7h8.5v-4.4h-21.6v4.4h8.5V164z"/>
				</g>
			</g>
		</g>
	</g>
	<g>
		<path d="M58.4,23.9l-1.4,1.3l-4.8-5.5c-0.2,0.4-0.4,0.7-0.8,1c-0.3,0.3-0.7,0.5-1.1,0.6l4.8,5.5l-1.4,1.3l-6.8-7.7l1.4-1.3
			c0.4,0.5,1.2,0.6,1.7,0.1c0.5-0.4,0.6-1.2,0.1-1.7l1.4-1.3L58.4,23.9z"/>
		<path d="M71.9,8.1l-1.8,0.8c-0.3-0.7-1-1-1.7-0.7c-0.6,0.3-0.9,1-0.7,1.6l0.5,1.2l2.3-1l0.7,1.6l-2.3,1l0.5,1.2
			c0.3,0.6,1,0.9,1.6,0.6c0.6-0.3,0.9-1,0.6-1.6l1.8-0.8c0.7,1.6-0.1,3.5-1.6,4.1c-1.6,0.7-3.4,0-4.1-1.5l-1.7-4
			c-0.7-1.6,0-3.5,1.6-4.2C69.3,5.7,71.2,6.5,71.9,8.1z"/>
		<path d="M93.2,11l-1.9,0.2l-0.7-7.3c-0.4,0.2-0.8,0.3-1.2,0.4c-0.4,0-0.9,0-1.3-0.1l0.7,7.3l-1.9,0.2l-1-10.2l1.9-0.2
			c0.1,0.7,0.7,1.2,1.4,1.1c0.7-0.1,1.2-0.7,1.1-1.3l1.9-0.2L93.2,11z"/>
		<path d="M107.1,3.9c0.2-1.7,1.7-3,3.5-2.9c1.7,0.2,3,1.7,2.8,3.5c-0.1,0.8-0.5,1.4-1.1,1.9c0.5,0.6,0.7,1.3,0.6,2.1
			c-0.2,1.8-1.7,3-3.5,2.8l-3.1-0.3L107.1,3.9z M108.4,9.4l1.2,0.1c0.7,0.1,1.3-0.4,1.4-1.1c0.1-0.7-0.4-1.3-1.1-1.4L108.7,7
			L108.4,9.4z M110.1,5.3c0.7,0.1,1.3-0.4,1.4-1.1s-0.4-1.3-1.1-1.4c-0.7-0.1-1.3,0.4-1.4,1.1l-0.1,1.2L110.1,5.3z"/>
		<path d="M133.3,10.7l-1.8-0.8c0.3-0.7,0-1.5-0.6-1.7c-0.6-0.3-1.4,0-1.6,0.6l-0.5,1.2l2.3,1l-0.7,1.6l-2.3-1l-0.5,1.2
			c-0.3,0.6,0,1.4,0.6,1.6c0.6,0.3,1.3,0,1.6-0.6l1.8,0.8c-0.7,1.6-2.6,2.3-4.1,1.6c-1.6-0.7-2.4-2.5-1.7-4l1.7-4
			c0.7-1.6,2.6-2.4,4.2-1.7C133.3,7.3,134,9.2,133.3,10.7z"/>
		<path d="M150.5,22.9c-0.6,0.7-1.4,0.9-2.2,1c0.1,0.9-0.2,1.7-0.8,2.4l-1.8,2l-1.4-1.3l1.8-2c0.4-0.5,0.4-1.3,0-1.7l-1-0.9l-2.6,3
			l-1.4-1.3l4.8-5.4c1.2-1.3,3.2-1.4,4.5-0.3C151.5,19.6,151.6,21.6,150.5,22.9z M149.1,21.6c0.5-0.5,0.4-1.3-0.1-1.7
			c-0.5-0.5-1.3-0.4-1.7,0.1c-0.4,0.5-0.4,1.3,0.1,1.8C147.9,22.1,148.6,22.1,149.1,21.6z"/>
	</g>
</g>
</svg>
