<?xml version="1.0" encoding="utf-8"?>
<!-- Generator: Adobe Illustrator 18.1.0, SVG Export Plug-In . SVG Version: 6.00 Build 0)  -->
<svg version="1.1" id="Ebene_1" xmlns="http://www.w3.org/2000/svg" xmlns:xlink="http://www.w3.org/1999/xlink" x="0px" y="0px"
	 viewBox="0 0 185 296" enable-background="new 0 0 185 296" xml:space="preserve">
<g>
	<g>
		<path d="M92.5,292.8L2.3,148.6L92.5,3.2l90.2,145.4L92.5,292.8z M19.9,148.6l72.6,115.9l72.6-115.9L92.5,31.7L19.9,148.6z"/>
	</g>
	<g>
		<g>
			<g>
				<path d="M105.2,130.9l11.3,9.2c-5,6-12.6,9.7-21.1,9.7c-14.9,0-27.1-11.7-27.1-26.1s12.1-26.2,27.1-26.2
					c8.5,0,16.1,3.8,21.1,9.8l-11.3,9.2c-2.2-3.5-5.7-5.8-9.7-5.8c-6.4,0-11.8,4.6-11.8,12.9c0,8.1,5.4,12.9,11.8,12.9
					C99.5,136.7,103.1,134.5,105.2,130.9z"/>
			</g>
		</g>
		<g>
			<g>
				<path d="M101.5,164.4h12.2v34.1H68.9v-13h32.6V164.4z"/>
			</g>
		</g>
	</g>
</g>
</svg>
