<?xml version="1.0" encoding="utf-8"?>
<!-- Generator: Adobe Illustrator 18.1.0, SVG Export Plug-In . SVG Version: 6.00 Build 0)  -->
<svg version="1.1" id="Ebene_1" xmlns="http://www.w3.org/2000/svg" xmlns:xlink="http://www.w3.org/1999/xlink" x="0px" y="0px"
	 viewBox="0 0 259.1 256.5" enable-background="new 0 0 259.1 256.5" xml:space="preserve">
<path d="M41.5,178.8c-1.1,1-2.2,1.8-2.8,1.9c0,0-0.6,0.8,0,0.7c-1.7,1.1-2.8,2.6-4.5,3.7c-1.1,1.5-2.3,3.7-4,4.8
	c-0.6-1.1-1.7-0.8-1.7-2.2c-0.6,0.1-0.6,0.8-1.1,0.9c-0.6-1.1-1.1-1-1.7-1.5c0-1.3,0.6-1.4,0.6-2.1v0.7c0.5-0.8,0-1.3,0-2
	c1.1-0.8,2.2-1.8,3.3-3.3c1.7-8.1,4.5-15.8,5.6-25.7c-0.6-0.4-0.6-1.7-0.6-1.7c-2.3-8.4,7.3-8.9,11.9-11.3c4.5,0.9,10.7-2,10.7,5.7
	c0,0.6,1.1,0.3,1.1,1.6c-1.1,0.3-1.6,4.9-1.1,6.1c0,1.3-0.5,2.7-1.1,3.5l1.1-0.9c0,1.3-1.1,2.9-1.6,3.5c0,0.7,0,0.7,0,0
	c-1.1,3.5-4,5.5-5.6,8.5c-2.9,2-5.1,5.1-7.4,6.9c0,0.6,0,0.6,0,0.6s0-0.6,0.6-0.8C43.2,177.8,42.1,178.1,41.5,178.8z M46,166.2
	c2.3-2.4,5.1-5.1,6.8-8.1c1.8-2.3,3.4-4.7,3.4-8.5c-2.8-1.9-9-0.3-12.4,2.5c-1.1,3.4-2.3,7.5-3.3,11c-1.1,4.1-2.3,7.6-3.4,11.7
	C40.4,173.3,43.8,169.3,46,166.2z"/>
<path d="M88.3,171.7c-3.3,2.1-6,4.8-8.6,6.1c-3.9,2.3-7.2,4.4-9.9,1.8c-0.6-6.4,2.6-9.2,2.6-14.5c-1.3-1-3.3-0.5-3.3-3.1
	c-1.3-4.9,3.3-6.8,6-9.4c1.3-4.9,1.3-9.5,0.6-12c1.3-3,3.3-5.4,5.8-6.8c6.6-0.3,13.2-6.6,21.1-7.2c0,0.6,0.7,1.1,0.7,2.5
	c0,1.3-0.7,1.5-0.7,3.4c-5.3,4.6-11.9,7.5-17.7,11.6c-0.7,1.5-0.7,2.2-0.7,3.4c4.6-1.1,10.5-7.3,15.8-5.9c0,0.7-0.6,0.8-0.6,1.5
	c1.3,1,0.6,1.8,1.3,3.6c-0.6,1.5-2.6,3.3-3.9,2.3c-5.3,4.6-10.5,7.9-16.4,12c-0.7,2.1-1.3,4.3-1.3,6.3c2.6-0.6,6.6-5.7,10.5-6.6
	l0.7-0.2c1.9-1.1,4.6-3.1,6.6-4.2c2.6-1.3,5.2-2,7.3-1.2c-0.7,1.5,0,1.3,0,1.9c-1.4,0.3-0.7,1.5-2.1,2.6c0,0,1.4,0.3,1.4-0.3
	c0,0,0,1.3,1.3,1C100.1,164.2,93.6,167.7,88.3,171.7z"/>
<path d="M117.2,144.3c0.7-0.2,0.7-0.2,1.3,0.4c0-0.7-0.6-1.2-0.6-1.9c0-4,2.6-8,5.3-10.7c1.9-2.4,5.3-4.6,7.3-6.5s4.6-3.8,6.6-4.3
	c2.6-2.7,6.7-2.3,9.3-2.3c2.7,1.3,5.3,13.3-1.3,12.9c-2.7,0.7-3.3-2.5-2.7-6.6c-1.9-0.9-4,1.6-6.7,2.3c-3.9,3-8.6,6.2-11.2,11.5
	c5.3,0,13.2-3.3,18.6-1.9c0.7,1.1,2,2.1,3.3,2.5c0.7-0.2,0-0.7,0-0.7c2.7,1.3,3.3,4.5,2.7,9.9c-0.7,3.5-3.3,6.2-4.7,9.1
	c-1.3,1-2,1.9-3.3,3.5c-0.6-0.5-0.6-0.5-1.3-0.4c-2,1.8-4.6,3.2-6.6,3.7c-4.7,1.2-9.4-1-12.7-0.9c0-0.6,0-0.6,0.7-0.8
	c-2-0.9-3.3-1.9-4-3.7c0.7,0.5,2,0.2,2.6-0.7c0.7,0.5,1.4,1.7,2,0.2c-0.6-0.5-2.6,0.7-2-1.5c0.7-0.2,0.7,0.5,1.4,1
	c0-0.6-0.7-1.1-0.7-2.5c0.7,0.5,1.3-0.3,2.7-0.7c1.3,0.4,2.6,1.4,4,1.7c6,1.8,15.9-2,15.3-11.7c-4-3-16.6,5.4-21.9,2.8
	c-0.7-1.1-0.7-1.8-1.3-2.3C117.9,146.2,117.9,145.5,117.2,144.3z"/>
<path d="M216.5,123.1c-0.8,2.2-2.1,4-3.5,4.3c0,0,0.6,0.4,0.6-0.2c-0.6,2.1-1.9,3.1-4,5.7c-2.1,2.5-6.8,8.5-9.5,11.8
	c-2.8,2.8-5.5,6.1-8.9,7c-4,0.3-6.8-1.7-8.8-5.3c-0.7-5.2,0-10.9,0.7-15.8c0.6-1.5,1.3-3,2-5.3c3.4-6.9,6.1-15.1,12.9-20.2
	c0,0,0.7-1.5,0.7-2.2c1.4,0.3,1.9-1.2,3.4-0.8c0.7,0.5,1.4,0.3,2,0.9c2.1,1.6,2.7,6.2,2.7,9.6c-0.6,3.5-4.7,5.9-7.4,3.2
	c0-1.3-0.7-1.1-0.7-2.6c-2,3.9-6.2,10.4-7.5,16.2c-1.3,2.3-2.7,10.2-1.3,12.5c1.3,0.4,3.5-1.5,4.7-2.5c3.5-3.6,6.8-7.2,8.9-10.4
	c-0.7-1.2-2.8,0.7-3.4,0.8c0-1.4-1.4-1-1.4-1.7c0.7-0.8,0-0.6,0-1.9c-0.7-0.6-1.4,1-1.4,0.4c-0.6-0.6,0-1.4,0.8-1.6
	c0-0.7,0-1.4-0.8-2.6c0.8-0.2,1.4-0.4,2.1-1.9c2-0.5,3.4-0.2,4.7-0.5c4.1-1,9.5-5.1,10.9-2c0.6,0.5,0-0.7,0.6-0.8c0,0.7,0,0.7,0,0.7
	c0,1.4,0,0.7-0.6,0.2c0,1.4,0.6,1.2,1.4,1C215.7,120.5,215.7,121.9,216.5,123.1z M213,127.9c-0.7,0.2-2.1,1.9-2.1,2.6
	C211.7,129,213,129.3,213,127.9z"/>
<path d="M255.2,114.4c-0.7,3.6-1.3,7.1-1.9,10.7c0,3.4-0.7,6.9-0.7,10.3c-1.3,2.3-3.2,4.2-5.8,4.1c-0.7-0.5-0.7-1.2-1.3-1.7
	c-2.5-8.2-5.8-14.8-7.7-23.8c-1.9,2.4-1.9,5.9-2.6,9.4c-1.3,3.8-2.6,8.8-3.8,13.9c-0.6,1.5-2.6,3.4-4.6,3.9
	c-1.2,0.3-1.9-0.9-2.5-0.8c-0.7-0.5-0.7-2.6-1.3-3.8c1.3-7.8,5.2-14.2,7.1-22.1c1.3-1.7,1.3-5.8,3.2-7.6c0.6-4.3,1.9-7.3,2.6-12.2
	c0.6-1.5,2.5-2,3.8-2.3c0.6,1.9,1.9,1.6,2.6,3.4c1.3,8.5,2.6,19,5.1,25.8c1.9-10,3.8-21.3,5.8-31.3c1.3,0.4,1.9-1.9,2.6-1.3
	c0.6-0.1,0,0.7,0.6,1.2c0.7-0.2,0.7-0.9,1.3-0.3c0,2,0.7,1.8,1.3,3c-0.6,1.5,0,1.4,0,2.1c-2.6,5.4-3.2,13.7-4.5,19.5
	C255.2,114.4,255.2,114.4,255.2,114.4z"/>
<path d="M0,235c0.7-0.2,0.7-0.2,1.3,0.4c0-0.7-0.6-1.2-0.6-1.9c0-4,2.6-8,5.3-10.7c1.9-2.4,5.3-4.6,7.3-6.5s4.6-3.8,6.6-4.3
	c2.6-2.7,6.7-2.3,9.3-2.3c2.7,1.3,5.3,13.3-1.3,12.9c-2.7,0.7-3.3-2.5-2.7-6.6c-1.9-0.9-4,1.6-6.7,2.3c-3.9,3-8.6,6.2-11.2,11.5
	c5.3,0,13.2-3.3,18.6-1.9c0.7,1.1,2,2.1,3.3,2.5c0.7-0.2,0-0.7,0-0.7c2.7,1.3,3.3,4.5,2.7,9.9c-0.7,3.5-3.3,6.2-4.7,9.1
	c-1.3,1-2,1.9-3.3,3.5c-0.6-0.5-0.6-0.5-1.3-0.4c-2,1.8-4.6,3.2-6.6,3.7c-4.7,1.2-9.4-1-12.7-0.9c0-0.6,0-0.6,0.7-0.8
	c-2-0.9-3.3-1.9-4-3.7c0.7,0.5,2,0.2,2.6-0.7c0.7,0.5,1.4,1.7,2,0.2c-0.6-0.5-2.6,0.7-2-1.5c0.7-0.2,0.7,0.5,1.4,1
	c0-0.6-0.7-1.1-0.7-2.5c0.7,0.5,1.3-0.3,2.7-0.7c1.3,0.4,2.6,1.4,4,1.7c6,1.8,15.9-2,15.3-11.7c-4-3-16.6,5.4-21.9,2.8
	c-0.7-1.1-0.7-1.8-1.3-2.3C0.7,236.8,0.7,236.1,0,235z"/>
<path d="M44.2,215.2c0-4,0.7-6.8,2-8.5c3.3-3,9.4-5.1,14.7-7.7c5.3-2.7,11.4-4.2,16.1-4c0,2.6,1.3,2.3,1.3,3.8
	c-1.3,1-0.6,1.5-0.6,2.8c-0.7,0.2-1.3-1-1.3,0.3s1.3-0.3,1.3,1c-2,5.8-8.8,1.6-12.7,5.9c-2.6,10.7-6.7,17.7-9.3,27
	c0,1.4,0,3.5,0,4.1c-1.4,1.7-1.4,4.4-2.8,4c-0.7,0.9,0,0.7-0.7,2.2c-0.6-1.2-1.3-0.4-1.3-2.3c-0.7-0.5-0.7,1.5-1.3,1
	c0-0.6-0.7-1.8-0.7-2.5c-0.6-11.9,4-17.1,5.4-26.1C50.9,217.5,45.5,220.8,44.2,215.2z"/>
<path d="M84.5,221.4c0.5-0.9,0.3-1.5,0.8-2.5c-0.5-1.9-1.2-4.3,0-5.6c-0.8-3.1,0.6-9.6,1.3-12.7c0.6-3.1,0.5-6.5,1.4-8.3
	c0.8-2.5,3.6-3.2,6.1-2.3c4,1.4,1.9,10.1,0.8,14.2c0,5.5-2.1,12.4-0.4,18.5c0.6-1.3,3,2.5,4.1-1.3c2.8-9.9,1.8-21.8,4-32.8
	c1.2-1.2,0.8,0.3,1.5,0c0.5-1,1.1-1.3,0.2-2.2c0.8,0.3,0.9,0.9,2.3,0.3c1,0.9,2.1,2.4,3.1,3.3c0.5,1.8,0,2.8,0.7,5.2
	c-2.4,7.5-1.2,15.2-2.6,23.6c-0.8-0.3-0.3,1.5-1.3,0.7c0.8,3-1.1,4-0.5,6.5c-0.6,0.3-0.8-0.3-0.8-0.3c-0.9,4.6-5.4,7.6-9,10.8
	c-1.8-1.2-2.9,0.1-4.4,0.2C86.8,235.5,85.3,227.3,84.5,221.4z"/>
<path d="M130.9,217.9c-1.1,1-2.2,1.8-2.8,1.9c0,0-0.6,0.8,0,0.7c-1.7,1.1-2.8,2.6-4.5,3.7c-1.1,1.5-2.3,3.7-4,4.8
	c-0.6-1.1-1.7-0.8-1.7-2.2c-0.6,0.1-0.6,0.8-1.1,0.9c-0.6-1.1-1.1-1-1.7-1.5c0-1.3,0.6-1.4,0.6-2.1v0.7c0.5-0.8,0-1.3,0-2
	c1.1-0.8,2.2-1.8,3.3-3.3c1.7-8.1,4.5-15.8,5.6-25.7c-0.6-0.4-0.6-1.7-0.6-1.7c-2.3-8.4,7.3-8.9,11.9-11.3c4.5,0.9,10.7-2,10.7,5.7
	c0,0.6,1.1,0.3,1.1,1.6c-1.1,0.3-1.6,4.9-1.1,6.1c0,1.3-0.5,2.7-1.1,3.5l1.1-0.9c0,1.3-1.1,2.9-1.6,3.5c0,0.7,0,0.7,0,0
	c-1.1,3.5-4,5.5-5.6,8.5c-2.9,2-5.1,5.1-7.4,6.9c0,0.6,0,0.6,0,0.6s0-0.6,0.6-0.8C132.7,216.9,131.6,217.2,130.9,217.9z
	 M135.5,205.3c2.3-2.4,5.1-5.1,6.8-8.1c1.8-2.3,3.4-4.7,3.4-8.5c-2.8-1.9-9-0.3-12.4,2.5c-1.1,3.4-2.3,7.5-3.3,11
	c-1.1,4.1-2.3,7.6-3.4,11.7C129.9,212.4,133.2,208.4,135.5,205.3z"/>
<path d="M210.8,182.2c0,7-1.8,14.5-3.5,19.1c-0.6,0.8-0.6,0.2-0.6,0.2c-1.1,1.7-1.7,4.7-2.9,4.3c0,0,0.6-0.8,0-1.4
	c-2.9,6.3-11.7,12.7-15.3,5.2c-2.9,1.4-4.1-1.9-4.7-5.2c0-3.5,0.6-8.6,1.2-13c0.6-1.5,1.2-3.7,1.8-5.3c0.6-0.9,1.2-2.4,1.8-4
	c3.6-5.2,5.3-11.2,10-13.8c0.6-1.5,1.7-1.8,1.7-3.2c1.2,0.4,1.8-0.4,2.4-0.6c0.6-0.2,0.6,0.5,0.6,1.2c0.6-0.8,1.1-1.7,1.8-1.8
	c4.7-1.2,5.8,8.3,6.5,16.7C211.4,181.3,210.8,181.5,210.8,182.2z M204.9,175.1c-3.6,1.6-5.3,4.2-7.1,7.4c-2.9,5-7.7,11.1-6.5,18.6
	C200.1,208.7,204.9,189.2,204.9,175.1z"/>
<path d="M99.3,82.5c-0.1,0.4-0.2,0.7-0.3,1.1c-0.1,0-0.2,0-0.3,0c0-1.5,0-3-0.1-4.5c-0.1,0-0.1,0-0.2,0c-0.1,1.6-0.3,3.2-0.4,4.8
	c-0.1,0-0.1,0-0.2,0c0-0.8,0-1.5-0.1-2.3c-0.1,0-0.2,0-0.2,0c-0.2,0.9-0.4,1.9-0.6,2.7c0,0-0.1-0.1-0.2-0.3
	c-0.2,0.4-0.3,0.8-0.5,1.2c0,0-0.1,0-0.1,0c0-0.5,0-0.9,0.1-1.4c0,0-0.1,0-0.1,0c-0.1,0.3-0.2,0.6-0.3,0.9c0,0-0.1,0-0.1,0
	c0.2-1.4,0.5-2.9,0.7-4.3c-0.1,0-0.2,0-0.3-0.1c-0.4,1.9-0.9,3.9-1.3,5.8c0,0,0,0-0.1,0c0.1-1.2,0.1-2.5,0.2-3.7c-0.1,0-0.1,0-0.2,0
	c-0.3,1.4-0.6,2.8-0.9,4.2c0,0-0.1,0-0.1,0c0-0.7,0.1-1.4,0.1-2.1c0,0-0.1,0-0.1,0c-0.1,0.4-0.3,0.7-0.4,0.9
	c0.4-2.8,0.8-5.7,1.2-8.7c-0.1,0-0.1,0-0.2,0c-0.8,3.4-1.6,6.7-2.4,10.1c-0.1,0-0.2,0-0.3-0.1c0.4-3.5,1.6-6.8,2-10.3
	c-1,3.6-2,7.2-3,10.7c-0.1,0-0.2,0-0.3-0.1c0.7-2.6,1.3-5.1,2-7.7c0,0-0.1,0-0.1,0c-1.2,2.7-2.4,5.5-3.7,8.2c0,0-0.1,0-0.1,0
	c0.3-1.1,0.7-2.2,1-3.3c0,0-0.1,0-0.1-0.1c-0.5,0.6-1.1,1.3-1.6,1.9c0,0-0.1,0-0.1-0.1c0.7-1.2,1.5-2.4,2.3-3.8
	c-1.8,1.7-3.4,3.3-5.1,4.9c0,0-0.1-0.1-0.1-0.1c0.8-1.1,1.6-2.1,2.4-3.2c0,0-0.1-0.1-0.1-0.1c-0.5,0.5-1,0.9-1.4,1.4
	c0,0-0.1-0.1-0.1-0.1c0.8-1,1.6-2,2.5-3c4.2-5,9-9.4,14.8-12.4c3-1.6,6.3-2.7,9.6-3.5c1.7-0.4,3.4-0.6,5.1-0.9
	c0.6-0.1,1.2-0.2,1.8-0.3c1.1,0,2.2,0.1,3.3,0c0.4,0,0.9-0.2,1.3-0.5c0.7-0.4,1.3-1,2-1.4c2.1-1.1,4.2-2,6.4-3.1
	c0.4-0.2,0.7-0.5,1-0.7c-0.1-0.1-0.1-0.2-0.2-0.3c-2.5,1-5,2.1-7.5,3.1c0,0,0-0.1-0.1-0.1c2.1-1.1,4.3-2.1,6.4-3.2
	c0-0.1-0.1-0.2-0.1-0.3c-0.4,0-0.8,0-1.1,0.1c-3.7,1.5-7.5,3-10.6,5.7c0.2-0.2,0.4-0.5,0.6-0.7c2.3-2.2,5.1-3.6,8-4.8
	c0.4-0.1,0.7-0.4,1-0.5c0-0.1,0-0.2,0-0.3c-0.6,0-1.2-0.1-1.7,0.1c-4.2,1.4-7.9,3.7-11.6,6c-0.3,0.2-0.6,0.3-0.9,0.5
	c0,0-0.1,0-0.3,0c3.9-2.5,7.4-5.4,11.8-6.8c0-0.1-0.1-0.2-0.1-0.4c-0.5,0.1-1,0-1.3,0.2c-3.5,1.7-6.9,3.3-10.4,5
	c-0.2,0.1-0.4,0.2-0.6,0.3c0-0.1-0.1-0.2-0.1-0.2c3.4-1.9,6.8-3.7,10.4-5.7c-0.7,0.1-1.3,0.2-1.8,0.3c-3.8,1.3-7.2,3.4-10.7,5.4
	c-0.3,0.2-0.7,0.4-1,0.5c3.5-2.3,6.7-5.1,11-6.3c-0.9-0.6-1.6-0.3-2.3,0c-0.7,0.3-1.4,0.6-2.1,0.7c2.8-1.3,5.6-2.6,8.3-4
	c0-0.1-0.1-0.2-0.1-0.3c-3,1.1-5.9,2.5-8.8,3.8c-3,1.3-5.8,2.8-8.5,4.2c4.6-4,10.7-5.5,16.2-8.3c-0.5-0.6-1-0.3-1.6-0.1
	c-5,2.2-10.1,4.5-15.1,6.7c-0.2,0.1-0.4,0.1-0.8,0.3c4.9-3.5,10.5-5,15.5-7.6c0-0.1,0-0.2,0-0.3c-0.4,0-0.8,0-1.1,0.1
	c-3,1.3-5.9,2.7-8.8,4c-1.5,0.7-3.2,1.1-4.8,1.7c0-0.1-0.1-0.2-0.1-0.3c4.3-2,8.6-4.1,12.9-6.1c0-0.1,0-0.1,0-0.2
	c-0.3,0-0.7,0-1,0.1c-5.1,2.6-10.4,4.7-15.3,7.7c-0.2,0.1-0.4,0.2-0.7,0.3c2.7-2.5,5.8-4.2,9.1-5.6c1.8-0.7,3.6-1.6,5.3-2.5
	c0.3-0.2,0.6-0.4,0.9-0.5c0-0.1,0-0.2,0-0.3c-0.5,0-1.1-0.1-1.6,0.1c-3.3,1.3-6.5,2.5-9.7,4c-1.5,0.7-2.9,1.8-4.6,2.9
	c2-1.9,4.1-3.4,6.3-4.5c2.3-1.1,4.6-2.1,6.9-3.3c-0.4,0-0.8-0.1-1.1,0.1c-4.7,1.9-9.3,3.9-13.9,5.9c-0.1,0-0.2,0-0.3,0
	c4.3-2.7,8.9-4.6,13.6-6.3c0-0.1,0-0.2,0-0.3c-0.5,0-1-0.1-1.4,0.1c-3.3,1.4-6.5,2.8-9.7,4.2c-0.1,0-0.2,0.1-0.3-0.1
	c3-1.6,6.1-3.2,9.1-4.8c-0.5-0.4-0.9-0.4-1.5,0c-1.5,0.9-3,1.7-4.5,2.4c1.4-1,2.8-1.9,4.2-2.9c-0.1-0.1-0.1-0.2-0.2-0.3
	c-2,0.7-3.9,1.7-5.7,2.8c-1.8,1.1-3.6,2.4-5.5,3.8c3-3,6.3-5.1,9.8-6.9c-0.6-0.4-1-0.5-1.7-0.1c-3.3,1.8-6.4,3.8-9,6.5
	c-0.2,0.2-0.4,0.4-0.6,0.7c0.2-1.1,2.2-3.3,4-4.4c1.7-1.1,3.4-2.1,5.2-3.2c-0.6-0.5-1-0.5-1.6-0.2c-3.6,1.6-6.7,4-9.2,7.1
	c1.8-3.7,5.3-5.4,8.6-7.5c0-0.1,0-0.2,0-0.2c-0.4,0.1-0.8,0-1.2,0.2c-2.8,1.3-5.5,2.7-7.9,4.7c0.5-1,1.5-2,3.4-3
	c1.3-0.8,2.7-1.4,4-2.1c-0.6-0.2-1.5,0.1-4,1.3c-1.3,0.6-2.6,1.4-4,2c1-0.7,2-1.5,3.1-2.1c1.1-0.6,2.3-1.1,3.6-1.7
	c-1.9-0.4-3.4,0.3-4.9,0.9c0-0.1-0.1-0.2-0.1-0.2c0.8-0.3,1.5-0.7,2.3-0.9c1-0.2,1.3-0.6,1.1-1.6c-0.1-0.3,0-0.6,0-0.9
	c0.7,0.8,0.3,2.1,1.7,2.6c-0.3-1.1-0.5-2-0.8-2.9c0,0,0.1,0,0.1-0.1c0.5,1.1,1.1,2.2,1.6,3.2c0.1,0,0.2-0.1,0.3-0.1
	c-0.3-0.9-0.6-1.9-0.9-2.8c0,0,0.1,0,0.1,0c0.5,1.1,1.1,2.2,1.6,3.3c0.1,0,0.2-0.1,0.3-0.1c-0.5-1.6-1.1-3.2-1.6-4.9
	c0.1,0,0.1,0,0.2-0.1c0.7,1.8,1.5,3.5,2.2,5.3c0.1,0,0.2-0.1,0.3-0.1c-0.3-1.9-1.6-3.6-1.3-5.7c0.7,2.2,1.2,4.3,2.3,6.2
	c0.1,0,0.2-0.1,0.3-0.1c-0.6-1.7-1.1-3.5-1.7-5.2c0.1,0,0.1,0,0.2-0.1c0.8,1.9,1.6,3.7,2.4,5.6c0.1,0,0.2-0.1,0.3-0.1
	c-0.5-1.9-1.1-3.7-1.6-5.6c0.1,0,0.2-0.1,0.3-0.1c0.4,2.2,1.3,4.2,2.3,6.1c0.1,0,0.1-0.1,0.2-0.1c-0.5-1.6-1-3.3-1.5-4.9
	c0.1,0,0.2-0.1,0.2-0.1c0.6,1.9,1.2,3.7,2.3,5.3c-0.5-1.9-1.1-3.9-1.6-5.8c0.1,0,0.1,0,0.2-0.1c0.8,2.1,1.6,4.2,2.4,6.4
	c0.1,0,0.2-0.1,0.3-0.1c-0.7-2.4-1.4-4.8-2.1-7.3c1.1,2.5,1.8,5.2,3,7.7c0.1,0,0.2-0.1,0.3-0.1c-0.7-2.4-1.4-4.9-2.2-7.3
	c0.1,0,0.2-0.1,0.3-0.1c0.3,0.8,0.5,1.6,0.8,2.4c0.6,1.7,1.2,3.3,1.8,4.9c0.1,0.2,0.4,0.4,0.7,0.7c-0.8-2.8-1.5-5.4-2.2-8
	c0.1,0,0.1,0,0.2-0.1c0.4,1.4,0.8,2.8,1.3,4.1c0.5,1.4,1.1,2.7,1.8,4c-0.6-2.9-1.8-5.6-1.6-8.6c0.6,3.1,1.5,6.1,2.7,9
	c0.1,0,0.2,0,0.3-0.1c-0.6-2.8-1.2-5.6-1.7-8.3c0,0,0.1,0,0.1,0c0.8,2.9,1.6,5.9,2.4,8.8c0.1,0,0.3-0.1,0.4-0.1
	c-0.7-3.1-1.3-6.3-2-9.4c0.1,0,0.2,0,0.3-0.1c0.8,3.3,1.6,6.7,2.4,10c0.1,0,0.2-0.1,0.3-0.1c-0.6-2.7-1.1-5.4-1.7-8.1
	c0.1,0,0.2,0,0.3-0.1c0.7,2.8,1.4,5.6,2.1,8.4c0.1,0,0.1,0,0.2,0c-0.6-2.6-1.1-5.3-1.7-7.9c0.1,0,0.1,0,0.2,0
	c0.7,2.8,1.4,5.6,2.2,8.4c0.1,0,0.2,0,0.3-0.1c-0.6-3-1.2-5.9-1.9-8.9c0.1,0,0.2,0,0.2-0.1c0.7,3.1,1.5,6.2,2.2,9.3
	c0.1,0,0.2,0,0.2-0.1c0-0.2,0-0.4-0.1-0.7c-0.6-3.1-1.2-6.2-1.7-9.3c0-0.1,0.1-0.2,0.1-0.3c0.3,1.1,0.6,2.3,0.8,3.4
	c0.6,2.3,1.2,4.5,1.8,6.7c0.1,0.2,0.2,0.5,0.4,0.7c0.1,0,0.1-0.1,0.2-0.1c-0.7-3.3-1.4-6.7-2.1-10c0,0,0.1,0,0.1,0
	c0.1,0.3,0.3,0.6,0.4,0.9c0.2-0.2,0.4-0.3,0.6-0.4c-0.5,0.5-0.5,0.9-0.2,1.5c0.3,0.5,0.4,1.1,0.6,1.7c0.6,2.1,1.1,4.1,1.7,6.2
	c0.1,0.3,0.3,0.5,0.5,0.8c0.1,0,0.2-0.1,0.2-0.1c-0.5-3.2-1-6.4-1.6-9.6c0.4,1.4,0.9,2.7,1.3,4.1c0.4,1.8,0.7,3.7,1,5.5
	c0,0.2,0.3,0.4,0.5,0.7c0.1-0.1,0.3-0.1,0.4-0.2c-0.3-1.6-0.7-3.2-1-4.9c-0.3-1.5-0.5-3.1-0.7-4.7c0.1-0.3,0.2-0.8,0.3-1.4
	c-0.4,0.1-0.6,0.1-0.9,0.2c2.3-1.8,5.1-1.8,7.5-3c-0.3-0.2-0.5-0.4-0.7-0.4c-2.9,0.9-6.1,1.1-8.6,3.1c1-0.6,1.9-1.4,2.9-1.9
	c1.6-0.8,3.4-1.3,5-1.9c0-0.1,0-0.2,0-0.3c-0.3-0.1-0.6-0.2-0.8-0.1c-1.2,0.4-2.4,0.8-3.6,1.2c-1.1,0.4-2.1,1-3.2,1.5
	c0-0.1-0.1-0.1-0.1-0.2c2.1-1.1,4.2-2.2,6.3-3.3c0-0.1,0-0.2-0.1-0.2c-0.3,0-0.5,0-0.8,0.1c-1,0.3-2,0.8-3.1,1
	c-1.3,0.3-2.5,0.8-3.6,1.7c0.7-0.6,1.4-1.2,2.2-1.6c1-0.5,2.1-0.8,3.2-1.2c0.3-0.1,0.7-0.4,1-0.6c-0.5-0.7-0.9-0.6-1.5-0.3
	c-2.3,1.1-4.7,2.1-7.1,3.1c2.1-1.9,5-2,7.1-3.9c0-0.1,0-0.2,0-0.3c-0.3,0-0.6-0.1-0.8,0.1c-2.4,1.7-5.3,2.2-8.1,3
	c-0.3,0.1-0.6,0.2-0.9,0.3c2.8-1.5,6-2.2,8.6-3.9c0-0.1,0-0.2,0-0.3c-0.3,0-0.7-0.2-0.9-0.1c-1.6,0.7-3.2,1.4-4.9,2
	c1.4-1.1,3.2-1.3,4.4-2.8c-2.6,1.1-5.1,2.1-7.7,3.2c2-1.7,4.9-1.8,6.8-3.8c-2.5,0.9-5,1.7-7.5,2.5c2.1-1.2,4.5-1.7,6.5-3
	c0-0.1-0.1-0.2-0.1-0.3c-1.1,0.4-2.2,0.8-3.4,1.1c-1.2,0.3-2.5,0.5-3.4,0.7c1.7-0.7,3.7-1.5,5.7-2.3c0-0.1,0-0.1-0.1-0.2
	c-1.4,0.3-2.8,0.6-4.2,0.9c0,0,0,0,0,0c1.1-0.4,2.2-0.9,3.3-1.3c0-0.1,0-0.1,0.1-0.2c-0.3-0.1-0.6-0.3-0.9-0.2
	c-1.5,0.4-3,0.9-4.5,1.2c1.4-0.5,2.8-1,4.2-1.5c0-0.1-0.1-0.3-0.1-0.4c-1.3,0.1-2.5,0.7-3.8,0.9c0.9-0.5,1.8-0.9,2.7-1.4
	c0-0.1,0-0.1-0.1-0.2c-1,0.2-2,0.4-3.1,0.6c0,0,0-0.1-0.1-0.1c0.7-0.3,1.3-0.6,2-1c0-0.1,0-0.1-0.1-0.2c-1.1,0.3-2.2,0.7-3.2,1
	c0-0.1-0.1-0.2-0.1-0.4c0.7-0.4,1.4-0.8,2.1-1.2c0-0.1,0-0.1-0.1-0.2c-0.8,0.2-1.6,0.3-2.4,0.5c0-0.1,0-0.1-0.1-0.2
	c0.5-0.3,1-0.5,1.5-0.8c0-0.1-0.1-0.2-0.1-0.2c-0.8,0.3-1.7,0.7-2.5,1c0,0,0,0-0.1-0.1c0.5-0.4,1-0.7,1.5-1.1c0-0.1-0.1-0.1-0.1-0.2
	c-0.5,0.3-1.1,0.5-1.7,0.8c0.1-0.2,0.2-0.4,0.4-0.8c-0.4,0.2-0.6,0.3-0.8,0.5c-0.1,0-0.1-0.1-0.2-0.1c0.1-0.3,0.3-0.6,0.4-0.9
	c-0.2,0.1-0.5,0.2-0.9,0.4c0.2-0.2,0.3-0.4,0.4-0.6c-0.3,0.1-0.5,0.2-0.9,0.3c0.2-0.3,0.3-0.5,0.5-0.7c0,0,0-0.1-0.1-0.1
	c-0.3,0.2-0.5,0.4-1,0.7c0.2-0.6,0.6-1.1-0.3-1.2c-0.4,0-0.7-0.6-0.9-0.9c0.2-0.5,0.7,0.8,0.6-0.5c0.3,0.4,0.6,0.7,0.8,0.9
	c0,0,0.1-0.1,0.1-0.1c-0.1-0.2-0.2-0.5-0.4-0.7c0,0,0.1-0.1,0.1-0.1c0.3,0.4,0.5,0.7,0.9,1.2c0-0.2,0-0.3,0.1-0.5
	c0.3,0.3,0.5,0.5,0.9,0.9c-0.1-0.3-0.1-0.5-0.1-0.8c0.4,0.4,0.6,0.7,0.9,1c0,0,0.1-0.1,0.1-0.1c-0.1-0.2-0.2-0.5-0.2-0.6
	c0.6,0.4,1.2,0.9,1.9,1.4c0-0.2,0.1-0.3,0.1-0.5c0.3,0.3,0.6,0.6,1.1,1c-0.1-0.4-0.2-0.6-0.3-0.9c0.4,0.5,0.7,0.8,1,1.2
	c0,0,0.1-0.1,0.1-0.1c-0.2-0.4-0.4-0.7-0.6-1.1c0,0,0.1-0.1,0.1-0.1c0.4,0.5,0.8,1.1,1.3,1.6c0,0,0.1-0.1,0.1-0.1
	c-0.2-0.4-0.5-0.9-0.7-1.3c0,0,0,0,0.1,0c0.6,0.7,1.2,1.4,1.8,2.1c0,0,0.1-0.1,0.1-0.1c-0.3-0.6-0.6-1.1-0.9-1.7
	c0,0,0.1-0.1,0.1-0.1c0.5,0.8,0.9,1.5,1.4,2.3c0,0,0.1,0,0.1-0.1c-0.1-0.3-0.2-0.6-0.3-0.9c0,0,0.1,0,0.1-0.1
	c0.3,0.4,0.6,0.9,0.8,1.3c0,0,0.1,0,0.1-0.1c-0.3-0.5-0.5-1.1-0.8-1.6c0.1,0,0.1-0.1,0.2-0.1c0.5,0.8,0.9,1.6,1.5,2.5
	c0-1.1-1.1-1.8-0.5-3c0.7,1.3,1.4,2.5,2.1,3.8c0.1,0,0.1-0.1,0.2-0.1c-0.4-0.8-0.8-1.6-1.2-2.5c0,0,0.1-0.1,0.1-0.1
	c0.6,1.1,1.2,2.2,1.8,3.3c0.1,0,0.1-0.1,0.2-0.1c-0.1-0.4-0.3-0.8-0.4-1.2c0,0,0,0,0.1,0c0.3,0.6,0.6,1.2,0.9,1.8
	c0.1,0,0.2-0.1,0.2-0.1c-0.3-0.7-0.5-1.4-0.8-2.1c0,0,0,0,0.1,0c0.5,1,1,2,1.5,3c0.1,0,0.2-0.1,0.3-0.1c-0.3-0.7-0.5-1.3-0.8-2
	c0,0,0.1,0,0.1,0c0.4,0.9,0.9,1.8,1.3,2.8c0.1-0.1,0.2-0.1,0.3-0.2c-0.3-0.9-0.7-1.9-1-2.8c0.1,0,0.1,0,0.2-0.1
	c0.5,1.2,1,2.3,1.5,3.5c0.1,0,0.1,0,0.2,0c-0.2-0.8-0.5-1.6-0.7-2.5c0.9,1,0.6,2.6,2,3.4c-0.4-1-0.8-2-1.2-3c0.1,0,0.1-0.1,0.2-0.1
	c0.6,1.3,1.1,2.6,1.7,3.8c0.1,0,0.2-0.1,0.2-0.1c-0.4-1.2-0.9-2.3-1.3-3.5c0,0,0.1,0,0.1,0c0.6,1.5,1.3,3,1.9,4.5
	c0.1,0,0.2-0.1,0.3-0.1c-0.2-0.6-0.5-1.3-0.7-1.9c0,0,0.1,0,0.1-0.1c0.4,0.9,0.8,1.8,1.3,2.7c0.1,0,0.1-0.1,0.2-0.1
	c-0.6-1.3-1.2-2.7-1.7-4c0.1,0,0.1-0.1,0.2-0.1c0.6,1.4,1.2,2.7,1.8,4c0.2,0.5,0.6,0.9,0.9,1.3c0.1,0,0.2-0.1,0.2-0.1
	c-0.4-1-0.8-2.1-1.1-3.1c0.1,0,0.1,0,0.2-0.1c0.6,1.3,1.1,2.7,1.7,4c0.1,0,0.1-0.1,0.2-0.1c-0.4-1.4-0.8-2.8-1.2-4.2
	c0.1,0,0.1,0,0.2-0.1c0.5,1.6,1,3.1,1.5,4.7c0.1,0,0.2-0.1,0.4-0.1c-0.4-1.4-0.8-2.8-1.2-4.2c0.1,0,0.1,0,0.2-0.1
	c0.5,1.5,1,3,1.6,4.5c0.1,0,0.1,0,0.2-0.1c-0.2-0.8-0.4-1.6-0.7-2.3c0,0,0.1,0,0.1,0c0.4,0.9,0.7,1.8,1.1,2.7c0.1,0,0.2-0.1,0.3-0.1
	c-0.2-0.6-0.3-1.2-0.5-2c0.2,0.2,0.4,0.4,0.7,0.7c0-0.3,0-0.5,0-0.7c0.3,0.2,0,1.1,0.9,0.7c0.1,0.2,0.2,0.4,0.3,0.7
	c0.4-1.6-0.9-1.9-1.8-2.6c1.1,0.1,1.2,0.2,4,2.4c-0.5-0.7-1-1.4-1.5-2.1c-0.5-0.7-1.1-1.3-1.6-2.1c0.7,0.6,1.3,1.2,2,1.8
	c0.1,0,0.1-0.1,0.2-0.1c-1.4-1.9-2.9-3.7-4.3-5.5c1.6,0.9,2.6,2.5,3.9,4.1c-0.3-1.6-0.6-3-0.9-4.4c0,0,0.1,0,0.1,0
	c0.3,1.2,0.7,2.4,1.1,3.7c-0.1-1.2-0.3-2.1-0.4-3.1c0.1,0,0.1,0,0.2,0c0.1,0.7,0.3,1.3,0.4,2c0.1,0,0.1,0,0.2,0c0-0.5,0-1.1,0-1.4
	c0.6,2.2,1.3,4.5,2,6.9c0.1,0,0.1,0,0.2,0c-0.1-1.2-0.3-2.3-0.4-3.5c0,0,0,0,0.1,0c0.5,1.8,1,3.6,1.5,5.5c0,0,0.1,0,0.1,0
	c0-1.7,0-3.4,0-5c0.1,0,0.2,0,0.3,0c-0.1,2.5,0,5.1,1,7.5c0.1-1.8,0.1-3.7,0.2-5.6c0.3,2.6,0.5,5.1,0.8,7.6c0.1,0,0.1,0,0.2,0
	c0-1.4-0.1-2.8,0-4.1c0.1-1.4,0.3-2.7,0.5-4.1c0.1,0,0.1,0,0.2,0c-0.1,1.4-0.3,2.7-0.2,4.1c0.1,2,0.5,3.9,0.9,5.9
	c0.1-1.1,0.1-2.2,0.2-3.3c0.1-1.4,0.4-2.8,0.6-4.2c-0.1,0.9-0.1,1.7-0.2,2.6c0,0.7,0,1.3,0.1,2c-0.1,1.4-0.2,2.7-0.4,4.1
	c0.1,0,0.3,0,0.4,0c0.1-1.3,0.2-2.5,0.2-3.8c0.2-0.3,0.4-0.5,0.5-0.7c0.1,0.1,0.3,0.3,0.5,0.6c0.2-0.9,0.3-1.6,0.5-2.3
	c0.1,0.3,0.2,0.5,0.3,0.8c-0.1,0.1-0.3,0.2-0.3,0.3c-0.3,1.3,0,2,1.2,2.8c0.4-0.9,0.5-1.7-0.4-2.4c-0.2-0.2-0.3-0.5-0.5-0.7
	c1.3,1.3,2.6,2.6,3.9,3.9c0-0.3-0.1-0.5-0.3-0.7c-1.1-1.3-2.2-2.6-3.3-3.9c-0.1-0.2-0.4-0.3-0.5-0.4c-0.6-0.8-1.2-1.5-1.8-2.3
	c-0.1-0.1-0.1-0.1-0.2-0.2c0,0,0.1-0.1,0.1-0.1c2.1,2.1,4.1,4.2,6.2,6.3c0.1-0.1,0.2-0.1,0.3-0.2c-2.5-3.2-4.9-6.4-7.3-9.5
	c2.5,2.2,4.5,5,6.8,7.5c0.1-0.1,0.2-0.1,0.2-0.2c-2.8-3.4-5.5-6.7-8.3-10.1c0,0,0,0,0.1-0.1c2.6,2.8,5.3,5.6,7.9,8.4
	c0.1,0,0.1-0.1,0.2-0.1c-2.4-3.1-4.8-6.3-7.2-9.4c0,0,0.1-0.1,0.1-0.1c2.4,2.8,4.8,5.7,7.3,8.5c0.1-0.1,0.2-0.1,0.2-0.2
	c-2.5-3.2-4.9-6.5-7.4-9.7c0.1-0.1,0.1-0.1,0.2-0.2c2.2,2.6,4.4,5.1,6.6,7.7c0,0,0.1-0.1,0.1-0.1c-2-2.9-4-5.9-6-8.8
	c0.1,0,0.1-0.1,0.2-0.1c2,2.7,4,5.5,6.1,8.2c0.1-0.1,0.1-0.1,0.2-0.2c-2.5-3.7-5.1-7.4-7.6-11.1c0,0,0.1-0.1,0.1-0.1
	c2.3,2.9,4.5,5.7,6.8,8.6c0.1,0,0.1-0.1,0.2-0.1c-1.8-2.6-3.5-5.2-5.3-7.8c0,0,0.1-0.1,0.1-0.1c1.7,2,3.3,4.1,5,6.1
	c0.1,0,0.1-0.1,0.2-0.1c-2.2-3.5-4.5-7-6.7-10.6c0.1,0,0.1-0.1,0.2-0.1c2.2,3.2,4.4,6.4,6.6,9.6c0,0,0.1,0,0.1-0.1
	c-1.1-2.3-2.3-4.6-3.4-7c0.2,0.1,0.3,0.2,0.6,0.5c-1.4-2.9-3-5.4-5.1-7.7c3.5,2.7,5.4,6.5,7.4,10.3c-1.2-3.6-2.5-7.2-4.8-10.3
	c0.1-0.1,0.2-0.1,0.3-0.2c1.7,2.9,3.4,5.7,5.2,8.7c-1.2-4-2.5-7.9-4.9-11.2c2,1.8,3,4.2,3.9,6.6c0.1,0,0.2-0.1,0.3-0.1
	c-0.8-3-1.7-6-2.6-9c0.5,1.1,1,2,1.4,3c0.4,1,0.7,2,1.3,3c-0.3-1.2-0.5-2.4-0.8-3.6c-0.3-1.2-0.5-2.4-0.8-3.6
	c-0.3-1.2-0.8-2.4-1.1-3.6c0.5,0.9,1,1.9,1.5,2.8c0,0,0.1,0,0.1,0c-0.4-1.3-0.8-2.6-1.2-3.9c0.1,0,0.1-0.1,0.2-0.1
	c0.7,1.5,1.3,3,2,4.5c0,0,0.1,0,0.1,0c-0.7-2.2-1.3-4.4-1.9-6.4c1.5,1.8,1.9,4.2,2.6,6.6c0.3-2.6,0.6-5.2,1.7-7.4
	c-0.4,3.3-0.9,6.7-1.3,10.1c0.1,0,0.1,0,0.2,0c0.6-2,1.2-4,1.9-6c0,0,0,0,0,0c-0.6,3-1.1,6.1-1.7,9.1c0.1,0,0.2,0.1,0.4,0.1
	c0.6-2.3,1.4-4.5,3.1-6.3c-2,3.4-3,7-3.5,10.8c1.3-2.5,2.6-5.1,3.8-7.7c0,0,0,0,0.1,0c-1.1,3.3-2.3,6.5-3.4,9.8
	c0.1,0.1,0.2,0.1,0.3,0.2c1.6-3.7,3-7.5,6.3-10.1c-3.7,4.1-5,9.4-7,14.4c-0.1,0.2,0.1,0.4,0.1,0.5c1-2.1,2.1-4.3,3.2-6.5
	c0.2-0.5,0.7-0.9,1.1-1.3c-1.2,2.7-2.4,5.3-3.5,8c0.1,0,0.1,0.1,0.2,0.1c0.8-1.2,1.6-2.4,2.4-3.7c0.8-1.2,1.6-2.5,2.4-3.7
	c0.9-1.2,1.9-2.3,2.9-3.5c-2.5,4-5.1,8.1-7.6,12.1c0.1,0,0.1,0.1,0.2,0.1c2-2.2,3.9-4.5,5.9-6.7c0.1,0.1,0.1,0.1,0.2,0.2
	c-2,2.9-4,5.8-6,8.7c0.1,0,0.1,0.1,0.2,0.1c2.9-3.5,5.9-7,8.8-10.5c0,0,0.1,0,0.1,0.1c-3.1,4.4-6.2,8.8-9.3,13.2
	c0.1,0.1,0.2,0.1,0.2,0.2c2.4-3.1,4.8-6.2,7.2-9.3c0.1,0,0.1,0.1,0.2,0.1c-2.4,3.5-4.9,7.1-7.3,10.6c3-3,5.5-6.5,8.9-9
	c-2.9,3.6-5.8,7.3-8.7,10.9c0.1,0.1,0.2,0.1,0.2,0.2c3-3.2,6-6.5,9-9.7c0,0,0.1,0.1,0.1,0.1c-3,3.7-5.9,7.4-8.9,11.1
	c0,0,0.1,0.1,0.1,0.1c3.3-3.2,6.5-6.4,9.8-9.6c0.1,0.1,0.2,0.2,0.2,0.2c-1.7,1.8-3.5,3.5-5.1,5.4c-1.6,1.9-3.1,3.9-4.6,5.9
	c3-3,5.5-6.5,8.7-8.7c-2.8,3.4-5.9,7.1-8.9,10.8c0.1,0.1,0.2,0.2,0.3,0.3c2.7-2.4,5.3-4.9,8-7.3c0,0,0.1,0.1,0.1,0.1
	c-2.7,2.9-5.4,5.9-8,8.8c0.1,0.1,0.1,0.1,0.2,0.2c1.6-1.5,3.2-3,4.8-4.4c0,0,0.1,0.1,0.1,0.1c-1.4,1.6-2.9,3.3-4.3,4.9
	c0,0,0.1,0.1,0.1,0.1c1.2-1.1,2.4-2.1,3.6-3.2c0,0,0.1,0.1,0.1,0.1c-1.4,1.7-2.7,3.4-4.1,5c0,0,0.1,0.1,0.1,0.1
	c1.7-1.6,3.3-3.2,5-4.8c0.2-0.2,0.5-0.4,0.6-0.6c0.6-0.8,1.9-1.2,1.4-2.6c0.2,0.6,0.5,1.3,0.7,1.9c0.1,0,0.1,0,0.2-0.1
	c-0.2-0.8-0.4-1.7-0.7-2.5c0.1,0,0.1,0,0.2,0c0.4,1.1,0.9,2.2,1.3,3.3c0.1,0,0.2-0.1,0.3-0.1c-0.4-1.3-0.9-2.5-1.3-3.8
	c0.1,0,0.2-0.1,0.3-0.1c0.4,1,0.8,2,1.2,3c0.1,0,0.2-0.1,0.3-0.1c-0.4-1.3-0.7-2.5-1.1-3.8c0.1,0,0.2-0.1,0.3-0.1
	c0.3,1.1,0.7,2.2,1,3.3c0.1,0,0.2-0.1,0.3-0.1c-0.3-1.3-0.7-2.6-1-4c0.1,0,0.2-0.1,0.3-0.1c0.3,1.1,0.6,2.2,0.9,3.3
	c0.1,0,0.2,0,0.3-0.1c-0.3-1.2-0.5-2.5-0.8-3.7c0.1,0,0.2,0,0.3-0.1c0.2,1,0.4,2.1,0.7,3.1c0.1,0,0.2,0,0.4-0.1
	c-0.3-1.2-0.5-2.5-0.8-3.7c0.1,0,0.2,0,0.3-0.1c0.2,1,0.4,2.1,0.6,3.1c0.1,0,0.2,0,0.3,0c-0.2-1.2-0.4-2.4-0.6-3.6
	c0.1,0,0.2,0,0.3-0.1c0.2,0.9,0.4,1.9,0.6,2.9c0.3-0.4,0.3-0.4,0-1.9c-0.1-0.6-0.6-1.2,0.1-1.9c0.2,1,0.4,2,0.6,2.9
	c0.1,0,0.2,0,0.2,0c0.3-1.1-0.9-2.2,0-3.4c0.2,0.9,0.4,1.7,0.5,2.6c0.1,0,0.2,0,0.2,0c-0.1-1-0.1-2.1-0.2-3.1c0.1,0,0.2,0,0.3,0
	c0.1,0.8,0.2,1.6,0.4,2.4c0.1,0,0.1,0,0.2,0c0-0.9,0.1-1.9,0.1-2.8c0.1,0,0.1,0,0.2,0c0,0.7,0,1.4,0,2.1c0.1,0,0.1,0,0.2,0
	c0.1-0.8,0.2-1.7,0.3-2.5c0.1,0,0.1,0,0.2,0c0,0.7-0.1,1.4-0.1,2.1c0.1,0,0.1,0,0.2,0c0.2-1,0.4-2,0.6-3c0.1,0,0.1,0,0.2,0
	c-0.1,0.7-0.2,1.4-0.4,2.2c0.1,0,0.2,0.1,0.3,0.1c0.2-0.8,0.5-1.6,0.7-2.4c0.1,0,0.1,0,0.2,0c-0.1,0.5-0.2,1-0.3,1.5
	c0.1,0,0.1,0,0.2,0.1c0.3-0.9,0.7-1.7,1-2.6c0.1,0,0.1,0,0.2,0c-0.1,0.4-0.2,0.7-0.3,1.1c0.6-0.7,1.3-1.3,1.9-2c0,0,0.1,0,0.1,0.1
	c-0.2,0.4-0.4,0.7-0.6,1.1c0,0,0,0,0.1,0.1c0.7-0.7,1.5-1.5,2.2-2.2c0,0,0.1,0.1,0.1,0.1c-0.3,0.4-0.6,0.8-0.9,1.1
	c0,0,0.1,0.1,0.1,0.1c1-0.8,2-1.5,2.9-2.3c0,0,0.1,0.1,0.1,0.1c-0.3,0.3-0.6,0.6-0.9,0.9c7.2-3.2,14.3-3.1,21.3,0.1
	c-0.6-0.1-1.2-0.3-1.8-0.4c-0.3,0-0.6-0.1-0.8-0.1c-0.5-0.2-1-0.5-1.6-0.7c-0.5-0.2-1.1-0.2-1.7-0.3c0.5,0.4,1,0.8,1.5,1.2
	c0.6,0.5,1.3,0.9,1.9,1.4c1,0.7,1.9,1.4,2.9,2l0,0c0.2,0.2,0.4,0.5,0.5,0.7c0,0,0,0.1-0.1,0.1c-2.2-1.6-4.4-3.1-6.6-4.7
	c2.2,2.2,5.3,3.4,7,6.1c-2.3-1.8-4.7-3.6-7.1-5.5c-0.1,0.1-0.1,0.1-0.2,0.2c2,1.9,4.3,3.3,6,5.8c-3.1-2.8-6.1-5.3-9-7.9
	c-0.1,0.1-0.1,0.1-0.2,0.2c1.2,1.2,2.5,2.3,3.6,3.5c0.8,0.9,1.5,1.9,2.2,2.9c-0.8-0.6-1.6-1.3-2.4-1.9c0,0-0.1,0.1-0.1,0.1
	c0.2,0.2,0.4,0.5,0.6,0.7c0,0-0.1,0.1-0.1,0.1c-2.3-1.9-4.6-3.8-7-5.6c-0.1,0.1-0.1,0.2-0.2,0.3c2.6,2.1,5.1,4.2,7.7,6.4
	c-3-2-5.8-4.4-8.7-6.5c-0.1,0.1-0.1,0.2-0.2,0.2c3.1,2.4,6.1,4.8,9.2,7.2c-0.1,0.1-0.1,0.2-0.2,0.2c-3.4-2.5-6.7-5.1-10.1-7.6
	c-0.1,0.1-0.1,0.2-0.2,0.3c3.6,3.1,7.7,5.4,10.7,9.1c-1.4-1.2-2.9-2.4-4.3-3.6c-2.2-1.7-4.5-3.4-6.8-5.1c-0.2-0.2-0.6-0.2-0.9-0.2
	c4.3,3.1,8.8,5.9,12.1,10.2c-2.3-2-4.5-4-6.8-6c-0.1,0.1-0.2,0.2-0.2,0.3c0.4,0.3,0.8,0.7,1.2,1c0,0-0.1,0.1-0.1,0.1
	c-0.4-0.3-0.9-0.6-1.3-0.8c0,0,0,0.1-0.1,0.1c1,0.7,1.9,1.4,2.9,2.2c0,0-0.1,0.1-0.1,0.1c-1.6-1-3.2-2-4.8-3c-1.6-1-3.2-2-4.8-2.9
	c-0.3-0.2-0.6-0.2-0.9-0.3c0,0.1-0.1,0.2-0.1,0.3c1.1,0.7,2.2,1.3,3.3,2c-1.5-0.4-2.8-1.5-4.3-1.9c-0.1,0.2-0.1,0.3-0.2,0.5
	c2,0.9,3.9,1.9,5.9,2.8c0,0.1,0,0.1-0.1,0.2c-1.4-0.6-2.9-1.1-4.3-1.7c-0.7-0.3-1.3-0.5-2-0.8c-0.3-0.1-0.6,0-1,0c0,0.1,0,0.2,0,0.3
	c0.6,0.2,1.1,0.4,1.7,0.6c0,0,0,0.1,0,0.1c-0.8-0.2-1.5-0.4-2.3-0.6c0,0.1-0.1,0.2-0.1,0.3c0.2,0.1,0.4,0.2,0.5,0.3
	c1.8,0.8,3.6,1.5,5.4,2.3c0.2,0.1,0.3,0.2,0.4,0.3c-0.2-0.1-0.5-0.1-0.7-0.2c-1.9-0.7-3.8-1.5-5.7-2.2c-0.3-0.1-0.7-0.1-1.1-0.1
	c0,0.1,0,0.2,0,0.3c2.2,0.7,4.4,1.5,6.6,2.2c0.3,0.1,0.7,0.2,1,0.3c1.7,0.8,3.5,1.5,5.2,2.3c0,0.1-0.1,0.2-0.1,0.3
	c-3.8-0.2-7.3-1.7-10.9-2.5c-1.2-0.3-2.5-0.6-3.7-0.9c-0.2,0-0.4,0-0.6,0.1c1.5,0.4,3,0.7,4.5,1.1c0,0,0,0.1,0,0.1
	c-0.3,0-0.6,0-0.9,0c-1.4-0.3-2.8-0.6-4.2-0.9c0,0.2,0,0.3-0.1,0.5c1.4,0.2,2.8,0.4,4.2,0.5c2.2,0.5,4.4,0.9,6.6,1.4
	c0.6,0.1,1.2,0.4,1.7,0.6c-3.7-0.7-7.4-1.3-11.1-2c0,0,0,0.1,0,0.1c0.8,0.2,1.6,0.4,2.5,0.7c0,0.1,0,0.1,0,0.2
	c-1.7-0.2-3.4-0.4-5.1-0.5c0,0.1,0,0.1,0,0.2c4.5,0.6,9.1,1.2,13.6,1.9c0,0.1,0,0.2,0,0.3c-4.7-0.6-9.4-1.1-14.1-1.6
	c0,0-0.1,0.1-0.2,0.3c5,0.7,9.9,1.3,14.8,2c0,0,0,0.1,0,0.1c-3.5-0.2-7.1-0.5-10.6-0.8c-1.4-0.1-2.9-0.4-4.3-0.5
	c-0.3,0-0.7,0.2-0.9,0.4c4.6,0.4,9.2,0.7,13.8,1.1c-5,0.1-10-0.3-15,0.5c4.8,0.2,9.5,0.4,14.3,0.7c0,0,0,0,0,0.1
	c-1.9,0.1-3.8,0.3-5.7,0.3c-2.7-0.1-5.5-0.4-8.2-0.6c-0.3,0-0.6,0.1-0.9,0.3c1.8,0.1,3.6,0.2,5.4,0.3c-2,0.3-3.9,0-5.9,0.4
	c4.4,0.3,8.8,0.5,13.2,0.8c-3,0.1-6,0.5-9-0.1c-1.3-0.2-2.8-0.1-4.2-0.1c-0.2,0-0.4,0.2-0.6,0.5c1.1,0,2.1,0,3.2,0
	c3.3-0.1,6.5,0.6,9.7,1.6c0.3,0.1,0.7,0.2,1,0.1c5.8-1.5,11,0,15.8,3.3c2.7,1.8,5,4,7.1,6.4c0.1,0.1,0.1,0.2,0.1,0.4
	c-0.4-0.4-0.9-0.9-1.3-1.3c0,0,0,0-0.1,0.1c1.4,1.7,2.8,3.5,4.3,5.2c-0.1,0.1-0.1,0.1-0.2,0.2c-1.1-1.3-2.3-2.7-3.4-4
	c-1.2-1.4-2.1-3.1-3.7-4.1c0.2,0.6,0.6,1,1.2,1.3c0.7,0.5,1,1.4,1.5,2.1c0.2,0.4,0.5,0.9,0.7,1.3c0.9,1.5,1.7,3.1,2.6,4.6
	c-0.1,0.1-0.2,0.1-0.3,0.2c-1-1.7-2-3.4-3-5.1c-0.1,0-0.1,0.1-0.2,0.1c0.1,0.3,0.3,0.6,0.4,0.9c-0.7-0.9-1.4-1.9-2.1-2.8
	c0,0-0.1,0.1-0.1,0.1c0.7,1.2,1.5,2.3,2.3,3.7c-0.1-0.5-0.1-0.8-0.2-1c0.7,1,1.3,2,2,3c-0.1,0-0.1,0.1-0.2,0.1
	c-0.2-0.3-0.5-0.7-0.7-1c0,0-0.1,0-0.1,0.1c0.3,0.9,0.6,1.7,0.9,2.6c0,0-0.1,0-0.1,0.1c-0.5-1-1.1-2.1-1.6-3.1c0,0,0,0-0.1,0.1
	c0.2,1,0.4,2,0.6,3c-0.1,0-0.1,0.1-0.2,0.1c-0.7-1.6-1.4-3.1-2.2-4.8c0.6,2.1,1.1,4,1.7,6c-0.1,0-0.1,0-0.2,0.1
	c-0.6-1.5-1.2-3-1.7-4.6c-0.1,0-0.2,0.1-0.3,0.1c0.3,1.6,0.7,3.3,1,4.9c-0.9-2.2-1.1-4.7-2.4-6.8c0.2,0.9,0.4,1.8,0.6,2.8
	c0.1,0.5-0.1,1-0.2,1.5c0,0-0.1,0-0.1,0c0,0,0,0-0.1-0.1c0.1-1.2-0.5-2.2-0.9-3.2c-0.1,0-0.2,0.1-0.3,0.1c0.4,1,0.8,2.1,1.2,3.1
	c-0.3-0.4-0.5-0.8-0.8-1.2c-0.2-0.3-0.3-0.6-0.7-0.7c0.4,1.1,0.9,2.3,1.3,3.4c0,0-0.1,0-0.1,0.1c-0.4-0.8-0.9-1.6-1.3-2.5
	c0,0-0.1,0-0.1,0.1c0.1,0.5,0.3,0.9,0.5,1.7c-0.9-2.2-1.7-4.2-2.4-6.2c0,0-0.1,0-0.1,0.1c0.7,2.5,1.4,5,2.1,7.4c0,0,0,0-0.1,0
	c-0.3-0.7-0.7-1.4-1-2.1c-0.1-1.6-0.8-2.9-1.3-4.3c-0.1,0-0.2,0.1-0.3,0.1c0.5,1.4,1.1,2.8,1.6,4.2c0.1,1,0.2,2.1,0.3,3.2
	c-1-2.8-1.3-5.8-3.3-8.1c0.5,1.1,1,2.2,1.5,3.4c0,0-0.1,0-0.1,0c-0.6-1-1.2-2-1.8-3c0.5,2.2,1.1,4.3,1.6,6.4c-0.1,0-0.2,0-0.2,0.1
	c-0.6-2.1-0.9-4.4-2.4-6.3c0.3,1,0.5,2,0.8,2.9c0,0-0.1,0-0.1,0c-0.4-0.8-0.9-1.6-1.3-2.3c0.2-1-0.6-1.3-1.2-1.7
	c0.3,0.6,0.7,1.1,1,1.7c0.1,0.3,0.1,0.6,0.2,0.9c-0.9-0.8-1.7-1.6-2.6-2.3c0,0-0.1,0.1-0.1,0.1c0.4,0.5,0.9,1,1.3,1.5
	c0,0-0.1,0.1-0.1,0.1c-0.5-0.3-1-0.6-1.5-0.9c-1.3-1-2.6-2-3.9-3c-0.1,0.1-0.1,0.2-0.2,0.3c1.2,0.8,2.3,1.7,3.5,2.5
	c0.1,0.4,0.3,0.7,0.4,1.1c0,0,0.1-0.1,0.1-0.1c-2.3-1.6-4.7-3.2-7-4.8c-0.1,0.1-0.1,0.2-0.2,0.3c2.2,1.6,4.4,3.3,6.7,4.9
	c0,0,0,0,0,0.1c-2.6-1.4-5.3-2.7-7.9-4.1c0,0.1-0.1,0.1-0.1,0.2c1.8,2,4.6,2.5,6.6,4.8c-1.4-0.8-2.6-1.5-3.9-2.1
	c-1.2-0.7-2.5-1.3-3.8-2c1.9,1.7,3.9,3.4,5.8,5.2c-0.1,0.1-0.1,0.1-0.2,0.2c-0.8-0.7-1.7-1.3-2.5-2c0,0-0.1,0.1-0.1,0.1
	c0.5,0.5,0.9,1,1.4,1.4c0,0-0.1,0.1-0.1,0.1c-1.3-1.1-2.6-2.2-3.9-3.3c-0.1,0.1-0.1,0.1-0.2,0.2c1.2,1.2,2.4,2.4,3.6,3.7
	c-0.1,0.1-0.1,0.1-0.2,0.2c-0.5-0.5-1-1-1.5-1.5c-0.1,0-0.1,0.1-0.2,0.1c0.9,1.1,1.8,2.3,2.7,3.4c0,0-0.1,0.1-0.1,0.1
	c-1.3-1.3-2.6-2.6-3.9-3.9c0,0-0.1,0.1-0.1,0.1c0.1,0.2,0.3,0.4,0.4,0.6c1,1.5,2.1,3,3,4.5c-1.1-1.2-2.3-2.4-3.4-3.6
	c0,0-0.1,0.1-0.1,0.1c0.5,0.8,1.1,1.6,1.6,2.4c0,0-0.1,0.1-0.1,0.1c-0.8-0.8-1.5-1.6-2.3-2.4c-0.1,0-0.1,0.1-0.2,0.1
	c0.8,1.1,1.6,2.3,2.3,3.4c0,0,0,0.1-0.1,0.1c-0.5-0.4-1-0.9-1.4-1.3c-0.3-1.2-1.3-1.8-2.2-2.4c0.7,0.7,1.4,1.5,2,2.2
	c-0.5-0.4-1.1-0.7-1.7-1.2c0.9,1.5,1.8,2.9,2.7,4.3c0,0-0.1,0.1-0.1,0.1c-0.6-0.5-1.3-1-2-1.7c0.4,1.4,1.4,2.4,2.2,2.2
	c-0.1,0.2-0.2,0.5-0.3,0.7c0.1,0,0.1,0.1,0.2,0.1c0.2-0.2,0.4-0.5,0.6-0.7c0.2-0.2,0.5-0.3,0.9-0.3c-0.3,0.4-0.5,0.8-0.8,1.1
	c0.1,0.1,0.1,0.2,0.2,0.2c0.7-0.6,1.4-1.1,2-1.7c0.1,0.1,0.1,0.1,0.2,0.2c-0.3,0.4-0.5,0.7-0.9,1.2c1.1,0.1,1.3-1.1,2.2-1.2
	c-0.2,0.4-0.4,0.7-0.5,1.1c0,0.1,0.1,0.2,0.1,0.2c0.7-0.5,1.5-1,2.2-1.6c0,0,0.1,0.1,0.1,0.1c-0.4,0.4-0.7,0.8-1.1,1.2
	c0,0.1,0.1,0.2,0.1,0.3c0.3-0.2,0.7-0.2,1-0.5c0.7-0.6,1.3-1.4,2.4-1.2c-0.7,0.5-1.4,1-2.1,1.6c0,0.1,0.1,0.2,0.1,0.3
	c0.4-0.1,0.8-0.2,1.2-0.4c1.1-0.6,2.1-1.2,3.1-1.8c0.1,0.1,0.1,0.2,0.2,0.3c-1,0.6-2.1,1.2-3.2,1.9c1,0.6,1.3-0.3,1.9-0.5
	c0.7-0.2,1.3-0.5,2-0.6c-0.8,0.5-1.5,0.9-2.3,1.4c0,0.1,0.1,0.2,0.1,0.3c0.4-0.1,0.8-0.2,1.3-0.4c0.4-0.1,0.9-0.3,1.4-0.4
	c-0.5,0.3-0.9,0.5-1.5,0.9c1.4,0.5,2.1-1.2,3.3-0.7c-0.6,0.3-1.2,0.6-1.8,1c0,0.1,0,0.2,0.1,0.3c1.1-0.3,2.3-0.7,3.4-1
	c0,0.1,0,0.1,0.1,0.2c-0.8,0.3-1.5,0.7-2.3,1c0,0.1,0,0.2,0,0.3c0.4,0,0.8,0,1.2-0.1c1-0.3,1.9-0.6,2.9-0.9c0,0.1,0,0.1,0.1,0.2
	c-0.9,0.4-1.9,0.7-2.9,1.1c0.4,0.5,0.9,0.5,1.4,0.3c1.5-0.4,3-0.8,4.6-1.2c0,0.1,0.1,0.2,0.1,0.4c-1.5,0.4-3,0.8-4.5,1.2
	c0,0.1,0,0.2,0,0.3c0.4,0,0.7,0.2,1.1,0.1c2-0.3,3.9-0.7,5.9-1.1c0,0.1,0,0.2,0.1,0.3c-1.9,0.4-3.7,0.8-5.6,1.2c0,0.1,0,0.2,0,0.3
	c0.4,0,0.9,0.2,1.3,0.1c1.2-0.2,2.3-0.5,3.5-0.5c-1.2,0.3-2.3,0.6-3.5,0.9c0,0.1,0,0.2,0,0.3c0.4,0,0.9,0.2,1.3,0
	c1.5-0.7,3.1-1,4.5-0.4c-1.4,0.2-3,0.5-4.7,0.7c0,0.1,0,0.3,0,0.4c2.2-0.1,4.4-0.8,6.3,0.3c-1.7,0-3.5,0-5.4,0c0,0.1,0,0.2-0.1,0.3
	c0.4,0.1,0.9,0.4,1.3,0.4c1.7-0.2,3.3-0.3,4.6,0.4c-1.4-0.1-3.1-0.2-4.7-0.3c0,0.1-0.1,0.2-0.1,0.4c0.4,0.1,0.8,0.3,1.2,0.4
	c2.1,0.2,4.2,0.5,6.4,0.7c0,0.1,0,0.2,0,0.4c-2.1-0.2-4.1-0.4-6.2-0.6c0,0.1,0,0.2-0.1,0.2c2.4,0.5,4.7,1.1,7.1,1.6
	c0,0.1,0,0.2,0,0.2c-2-0.4-3.9-0.8-5.9-1.2c0,0,0,0.1,0,0.1c2.2,0.8,4.4,1.7,6.6,2.5c0,0.1-0.1,0.2-0.1,0.3
	c-1.7-0.6-3.5-1.3-5.2-1.9c0,0.1-0.1,0.1-0.1,0.2c1.8,0.8,3.7,1.7,5.5,2.5c0,0.1-0.1,0.2-0.1,0.3c-1.3-0.6-2.7-1.2-4-1.8
	c0,0-0.1,0.1-0.1,0.1c0.3,0.2,0.7,0.5,1,0.7c0,0,0,0.1,0,0.1c0,0.1,0.1,0.3,0.1,0.4l0,0c0.1,0.6,0.2,1.3,0.4,1.9
	c1,2.7,2.2,5.4,3.1,8.2c0.7,2.4,1.1,5,1.6,7.5c-1.9-6.1-3.9-12.1-5.8-18.2c-0.1,0-0.2,0-0.2,0.1c1.5,5.4,3,10.8,4.5,16.3
	c-0.1,0-0.2,0.1-0.3,0.1c-1.7-5.8-3.4-11.6-5.1-17.3c0-0.1-0.1-0.2-0.2-0.3c-0.1,0.1-0.2,0.1-0.2,0.2c1.6,5.9,3.1,11.9,4.7,17.8
	c0,0-0.1,0-0.1,0c-0.8-2.3-1.6-4.5-2.5-6.8c0,0-0.1,0-0.1,0c0.3,1.6,0.7,3.2,1,4.8c0,0,0,0-0.1,0c-1.6-5.8-3.1-11.5-4.7-17.3
	c-0.1-0.4-0.4-0.7-0.6-1.1c-0.1,0-0.1,0.1-0.2,0.1c1.6,6,3.3,12,4.9,18c-0.1,0-0.2,0.1-0.2,0.1c-0.1-0.4-0.3-0.7-0.4-1.1
	c-1.6-5.6-3.1-11.2-4.7-16.8c-0.2-0.5-0.5-1-1-1.4c1.6,6.3,4,12.4,5,18.9c-0.6-1.7-1.2-3.4-1.7-5.2c-1.3-4.6-2.6-9.1-4-13.7
	c-0.1-0.5-0.6-0.9-0.9-1.3c-0.1,0.1-0.2,0.1-0.3,0.2c2,6.2,3.9,12.4,5.9,18.6c-1.9-4.5-3.9-9.1-5.1-13.9c-0.4-1.5-0.9-3-1.3-4.5
	c-0.2-0.8-0.6-1.2-1.5-1.5c2.4,6.8,4.7,13.5,7,20.2c0,0-0.1,0-0.1,0.1c-1.2-2.9-2.4-5.8-3.7-8.6c-1.7-3.7-2.4-7.6-3.6-11.4
	c-0.3-0.8-0.2-0.8-1.3-1.2c2.4,6.8,4.8,13.4,7.2,20.1c0,0-0.1,0-0.1,0.1c-0.9-2-2-4-2.7-6c-1.3-3.5-2.5-7.1-3.7-10.6
	c-0.4-1.1-0.7-2.3-1.1-3.4c-0.1-0.4-0.5-0.6-0.7-0.9c-0.1,0.1-0.2,0.1-0.3,0.2c1.1,3.2,2.3,6.4,3.4,9.6c1.1,3.2,2.1,6.4,3,9.7
	c-1.3-3-2.6-5.9-3.7-9c-1.2-3.3-2-6.7-3.1-10.1c-0.1-0.4-0.5-0.7-0.8-1.1c-0.1,0.1-0.3,0.1-0.4,0.2c2.1,6.2,4.2,12.4,6.3,18.5
	c-2-4.5-4.4-8.9-5.5-13.8c-0.4-1.6-0.8-3.1-1.3-4.6c-0.1-0.3-0.5-0.6-0.7-0.8c-0.1,0.1-0.2,0.1-0.3,0.2c1.6,4.6,3.1,9.3,4.7,13.9
	c0,0-0.1,0-0.1,0.1c-0.8-1.8-1.5-3.7-2.3-5.5c-0.2-0.4-0.5-0.7-0.7-1.1c0-0.2,0.1-0.4,0-0.5c-0.6-2.3-1.3-4.5-1.9-6.8
	c-0.1-0.3-0.5-0.4-0.7-0.6c-0.1,0.1-0.1,0.1-0.2,0.2c0.9,2.6,1.9,5.2,2.8,7.8c0.3,0.7,0.7,1.4,0.8,2.1c0.3,2.7,2,4.8,2.7,7.4
	c-0.3-0.5-0.6-1.1-0.9-1.6c-1.7-2.8-3.5-5.6-5-8.5c-1.2-2.3-2.1-4.7-3.1-7c-0.3-0.7-0.7-1.1-1.6-1c2,3.8,4,7.7,6.1,11.5
	c-0.1,0-0.2,0.1-0.3,0.1c-1.4-2.5-2.9-5-4.3-7.5c-0.7-1.2-1.2-2.5-1.9-3.7c-0.2-0.3-0.6-0.5-1-0.6c3.1,5.7,6.6,11.2,8.6,17.4
	c-0.3-0.6-0.7-1.3-1-1.9c-2.6-4.9-5.3-9.9-7.9-14.8c-0.3-0.5-0.5-1-1.4-0.6c3.3,5.7,6.8,11.4,8.8,17.9c-1-1.9-2-3.7-2.9-5.5
	c-2.1-4-4.2-8-6.4-12c-0.1-0.3-0.5-0.4-0.8-0.5c2.9,6.3,6.9,12.1,8.6,19c-0.6-1.2-1.1-2.4-1.7-3.6c-2.4-4.9-4.9-9.8-7.4-14.8
	c-0.3-0.6-0.3-0.6-1.1-0.5c0.8,1.5,1.7,3,2.5,4.4c1.1,1.9,2.4,3.8,3.3,5.9c0.9,1.9,1.4,4,2.1,6c0.2,0.5,0.3,1,0.3,1.5
	c-0.8-2-1.5-4-2.5-5.9c-1.5-3-3.2-6-4.9-9c-0.4-0.8-0.8-1.5-1.3-2.3c-0.1-0.2-0.4-0.4-0.6-0.6c-0.1,0.1-0.2,0.1-0.3,0.2
	c0.5,0.9,1,1.9,1.5,2.8c1.4,2.4,2.9,4.8,4,7.3c0.9,1.9,1.4,4,1.8,6.1c-0.5-1.3-0.9-2.5-1.5-3.7c-1.1-2.2-2.2-4.4-3.4-6.6
	c-1-1.8-2.1-3.5-3.1-5.2c-0.3-0.5-0.6-0.7-1.2-0.3c2.8,4.6,6.3,8.9,7,14.5c-0.6-1.4-1-2.9-1.8-4.2c-1.4-2.6-3-5.1-4.5-7.6
	c-0.4-0.7-0.8-1.4-1.3-2c-0.2-0.3-0.6-0.4-0.9-0.5c-0.1,0.1-0.2,0.2-0.2,0.3c0.2,0.4,0.4,0.9,0.7,1.3c1,1.4,1.9,3,3,4.3
	c1.9,2.3,2.7,5,3.8,7.7c0.1,0.2,0.2,0.4,0.2,0.7c-2.3-5.1-5.6-9.5-9.3-13.6c-0.1,0-0.1,0.1-0.2,0.1c0.1,0.2,0.1,0.3,0.2,0.5
	c0.9,1.5,1.8,3,2.8,4.5c1.3,1.8,2,3.8,2.7,5.8c0.2,0.6,0.5,1.1,0.6,1.7c0.2,0.6,0.4,0.9,1.1,0.8c-0.2,0.1-0.4,0.2-0.6,0.3
	c0,0.1,0,0.2,0,0.2c0.4,0,0.8,0,1.1,0c-0.3,0.1-0.6,0.2-0.9,0.3c0,0.1,0,0.1,0,0.2c0.2,0.1,0.3,0.1,0.5,0.2
	c-0.1,0.1-0.2,0.2-0.5,0.5c0.5,0,0.8,0,1,0c-0.1,0.1-0.4,0.2-0.6,0.3c0,0.1,0,0.2,0.1,0.2c0.5-0.1,1.1-0.1,1.6-0.2c0,0,0,0.1,0,0.1
	c-0.5,0.1-1,0.3-1.5,0.4c0,0.1,0,0.2,0.1,0.3c0.9-0.2,1.9-0.4,2.8-0.6c0,0.1,0,0.2,0.1,0.3c-2.5,0.5-4.9,1-7.4,1.5
	c0,0.1,0,0.2,0.1,0.3c2.7-0.4,5.4-0.9,8.1-1.3c0,0,0,0.1,0,0.1c-2.5,0.5-5,1-7.5,1.6c0,0.1,0,0.2,0,0.3c2.9-0.4,5.8-0.8,8.7-1.2
	c0,0,0,0,0,0c-2.7,0.6-5.4,1.1-8,1.7c0,0,0,0.1,0,0.1c2.7-0.2,5.3-0.4,8-0.6c0,0,0,0.1,0,0.1c-2.4,0.3-4.9,0.7-7.3,1
	c0,0,0,0.1,0,0.1c0.3,0,0.6,0.2,0.9,0.1c2.7-0.2,5.3-0.4,8-0.5c-2.6,0.3-5.3,0.7-7.9,1c2.8,0.2,5.5-0.2,8.3-0.2
	c-2.5,0.3-5,0.6-7.4,0.9c0,0.1,0,0.2,0,0.3c2.6-0.2,5.2-0.3,7.9-0.5c0,0,0,0.1,0,0.1c-2.3,0.3-4.7,0.6-7,0.9c0,0.1,0,0.1,0,0.2
	c2.1-0.1,4.3-0.2,6.4-0.3c0,0.1,0,0.1,0,0.2c-1.9,0.2-3.7,0.4-5.6,0.5c0,0.1,0,0.2,0,0.3c2.6-0.1,5.1-0.2,7.7-0.3c0,0.1,0,0.1,0,0.2
	c-2.3,0.2-4.6,0.4-6.9,0.6c2.6,0.4,5.3,0.4,8,0.1c0,0.1,0,0.2,0,0.3c-2.3,0.2-4.7,0.3-7,0.5c0,0.1,0,0.1,0,0.2
	c0.3,0.1,0.7,0.2,1,0.2c2.5-0.1,5.1-0.1,7.5-0.2c-2.3,1-5,0.5-7.5,0.8c0,0.1,0,0.2,0,0.3c2.6,0.1,5.1,0.1,7.7,0.2
	c-2.2,0.7-4.5,0.2-6.7,0.6c1.6,0.6,3.4,0.3,5.1,0.7c-1.3,0-2.7,0.1-4,0.1c0,0.1,0,0.2,0,0.3c1.7,0.4,3.4,0.3,5.1,0.7
	c-1.3,0.1-2.6,0.2-4.1,0.2c1.5,1.4,3.1,0.5,4.6,0.9c-1,0.2-1.9,0.4-3,0.6c0.7,2.1,1.6,4.2,1.1,6c-0.2-1-0.4-2.4-0.8-3.7
	c-0.4-1.3-0.9-2.6-2.1-3.7c0.6,3.7,1.2,7.2-0.2,10.6c0.3-4,0.1-7.9-1.1-11.8c0.1,3.9,0.7,7.8-1.5,11.4c0.1-0.5,0.2-1,0.3-1.5
	c0.7-3.5,0.5-7,0.2-10.5c0-0.3-0.4-0.6-0.7-0.9c-0.4,4.7-0.5,9.4-4.1,13c0.5-1.2,1.1-2.4,1.6-3.6c1.3-3,1.8-6.2,1.5-9.5
	c0-0.5-0.4-1.1-0.7-1.6c-0.1,0-0.3,0.1-0.4,0.1c-0.1,0.9-0.3,1.7-0.4,2.6c-0.1,1.1-0.2,2.1-0.3,3.2c-0.3,2.7-1.5,5-3,6.9
	c0.7-2.2,1.5-4.6,2.1-7c0.4-1.9,0.5-3.8,0.8-5.7c0.1-0.7-0.2-1.1-0.9-1.4c-0.2,4.3-1,8.5-2.9,12.3c1.4-4.4,2.3-8.8,2-13.3
	c-0.1,0-0.2,0-0.4-0.1c-0.4,1.7-0.8,3.4-1.2,5.1c0,0-0.1,0-0.1,0c0.2-1.5,0.4-3.1,0.6-4.6c0.1-0.5,0.3-1.2-0.6-1.5
	c-0.3,3.2-0.7,6.4-1,9.6c-0.1,0-0.1,0-0.2,0c0.1-1.8,0.2-3.6,0.3-5.3c0-1.5-0.1-3.1-0.1-4.6c0-0.3-0.2-0.6-0.5-0.8
	c0.1,4.5-0.2,9-1.2,13.4c0.1-0.7,0.2-1.5,0.2-2.2c0.1-3.7,0.2-7.4,0.3-11c0-0.4-0.1-0.7-0.4-1.1c-0.2,4.2-0.6,8.3-2.6,12.1
	c0.2-0.6,0.4-1.2,0.5-1.8c1-3.5,1.3-7,1.1-10.6c0-0.3-0.3-0.6-0.6-0.9c-1,4.8-0.8,9.8-3.5,14.3c1.4-4.9,2.2-9.9,2.8-14.9
	c-0.1,0-0.2,0-0.3-0.1c-0.6,3.4-1.1,6.8-1.7,10.2c-0.1,0-0.2,0-0.2,0c-0.2-3.7,0.8-7.2,1-10.9c-1,4.2-1.2,8.6-2.9,12.6
	c0.5-2.9,1-5.8,1.5-8.6c0.2-1.3,0.5-2.6,0.7-3.8c0-0.3-0.1-0.6-0.2-0.8c-1,4.1-1.1,8.4-3.1,12c0.9-4,1.8-8.1,2.7-12.3
	c-0.1,0-0.2-0.1-0.3-0.1c-0.3,1.2-0.6,2.4-0.9,3.6c-0.1-1.4,0.7-2.7,0.4-4.1c-0.1,0-0.3-0.1-0.4-0.1c-0.5,4.1-1.5,8-3.6,11.6
	c1.5-3.9,2.6-7.9,3-12c-1,3.2-2,6.5-2.9,9.7c-0.1,0-0.2-0.1-0.3-0.1c1.1-3.3,2.1-6.6,2.6-10c-0.9,3-1.6,6.1-3.4,8.8
	c1.3-3,2.3-6,2.6-9.2c-1.1,2.1-1.2,4.5-2.6,6.4c0.7-2.2,1.3-4.4,2-6.7c-0.1,0-0.2-0.1-0.3-0.1c-0.4,1.1-0.8,2.3-1.2,3.4
	c-0.1,0-0.1,0-0.2-0.1c0.4-1.2,0.7-2.5,1.1-3.7c-0.1,0-0.2-0.1-0.3-0.1c-1.1,2.9-1.7,5.9-3.5,8.2c1-2.6,2.1-5.5,3.2-8.4
	c-0.1-0.1-0.2-0.1-0.4-0.2c-0.9,1.9-1.2,4.1-2.5,5.9c0.7-1.8,1.4-3.7,2.1-5.6c-1.5,0.1-1.3,1.4-2,2.2c0.1-0.5,0.2-1.1,0.3-1.6
	c-0.1,0-0.2-0.1-0.3-0.1c-0.3,0.8-0.7,1.7-1,2.5c0,0-0.1,0-0.1,0c0.2-0.7,0.4-1.5,0.6-2.2c-0.1,0-0.2-0.1-0.3-0.1
	c-0.2,0.4-0.4,0.9-0.6,1.3c0,0-0.1,0-0.1,0c0.1-0.4,0.1-0.8,0.2-1.3c-0.1,0-0.1,0-0.2,0c-0.2,0.4-0.3,0.7-0.5,1.1c0,0-0.1,0-0.1,0
	c0.1-0.4,0.1-0.7,0.2-1.1c0,0-0.1,0-0.1-0.1c-0.2,0.3-0.3,0.5-0.6,0.9c0.1-0.5,0.1-0.7,0.1-1c-0.7-0.3-1.9,0.3-2.3,1.2
	c-0.6,1.3-1,2.5-0.8,4c1.3,7.9,2.4,15.7,3.6,23.6c0.5,3.3,1.8,6.3,2.7,9.4c1.3,4.6,2.6,9.3,3.5,14c2,10,2.6,20.1,2.7,30.2
	c0.1,16.5-1.4,32.9-4,49.2c-0.3,2-1.6,17.2,0.4,17.6c0.8,0.2,1.7,0.3,2.5,0.4c0.5,0.1,1.1,0.2,1.6,0.4c0.3,0.1,0.4,0.6,0.6,0.9
	c-0.3,0.2-0.5,0.4-0.8,0.5c-8.4,1.8-16.9,3.5-25.3,5.3c-1.3,0.3-2.7,0.6-4.2,0.9c1.2-1,2.4-3.3,3.4-4.2c4.3-3.8,9.5-14.3,12-19.3
	c3.6-7,5.3-21.6,6.7-29.3c2-10.7,2.5-21.5,1.8-32.3c-0.6-9.8-2.2-19.5-5.2-28.9c-0.4-1.2-0.8-2.4-1.3-3.5c-1.3-2.8-1.5-5.8-1.7-8.8
	c-0.5-7.9-1-15.8-1.6-23.7c-0.1-2.1-0.5-4.2-0.8-6.3c-0.1-0.4-0.3-0.7-0.4-0.8c-1.2,0.3-2.2,0.6-3.2,0.7c-1.1,0.1-2.2,0-3.3,0
	c0.2,0.5,0.3,0.9,0.5,1.3c-0.1,0-0.1,0.1-0.2,0.1c-0.3-0.6-0.5-1.1-0.9-1.9c-0.1,0.7-0.1,1.2-0.2,1.7c0,0-0.1,0-0.1,0
	c0-0.7-0.1-1.5-0.1-2.2c-0.1,0-0.2,0-0.3,0c0.1,1.2,0.2,2.4,0.3,3.5c-0.1,0-0.2,0-0.3,0c-0.1-1.3-0.2-2.6-0.3-3.9c0,0-0.1,0-0.1,0
	c0,0.9-0.1,1.8-0.1,2.7c0,0.9,0,1.8,0.1,2.7c-0.3-0.5-0.5-1-0.8-1.5c0,0-0.1,0-0.1,0.1c0.2,0.9,0.4,1.8,0.5,2.6c0,0-0.1,0-0.1,0
	c-0.2-0.6-0.5-1.2-0.7-1.8c-0.1,0-0.1,0-0.2,0c0.2,1,0.4,2,0.6,2.9c-0.1,0-0.2,0-0.2,0.1c-0.2-0.4-0.4-0.8-0.6-1.1
	c-0.1,0-0.1,0-0.2,0c0.1,0.5,0.2,1,0.2,1.5c0,0-0.1,0-0.1,0.1c-0.3-0.4-0.5-0.9-0.8-1.3c-0.1,0-0.1,0-0.2,0c0.3,1,0.6,2.1,0.9,3.1
	c0,0-0.1,0-0.1,0c-0.5-1-0.9-2-1.4-3c-0.1,0-0.2,0.1-0.2,0.1c0.4,1.1,0.7,2.1,1.2,3.4c-0.4-0.3-0.6-0.5-0.8-0.7
	c0,0.3-0.1,0.6-0.1,0.8c-0.2-0.4-0.5-0.8-0.7-1.2c-0.1,0-0.1,0.1-0.2,0.1c0,0.2,0.1,0.5,0.1,0.8c-0.4-0.7-0.8-1.3-1.1-1.9
	c-0.1,0-0.1,0.1-0.2,0.1c0.7,1.4,1.4,2.7,2.1,4.1c-2.1-2.1-3.1-4.7-3.9-7.4c-0.1,0-0.2,0.1-0.3,0.1c0.7,2.5,1.5,5,2.2,7.5
	c-1.5-1-1.9-2.6-2.3-4.4c-0.1,2.2,0.7,3.9,1.8,5.4c-0.2-0.2-0.4-0.4-0.8-0.8c0.1,0.4,0.1,0.7,0.2,1c-0.1,0-0.1,0-0.2,0.1
	c-0.7-1.7-1.3-3.3-2-5c0,0-0.1,0-0.1,0c0.3,1.1,0.5,2.3,1,3.4c0.5,1.1,1.2,2,2,3.1c-2.3-1.4-2.5-3.8-3.6-5.8c0.4,2.6,1.6,4.8,3,6.8
	c-0.2-0.2-0.4-0.4-0.8-0.8c0.2,0.4,0.3,0.6,0.3,0.9c0,0,0,0-0.1,0c-0.3-0.4-0.6-0.9-0.9-1.3c0,0-0.1,0.1-0.1,0.1
	c0.4,0.7,0.8,1.4,1.2,2.1c0,0-0.1,0-0.1,0.1c-0.2-0.2-0.4-0.5-0.8-0.9c0.2,0.5,0.3,0.8,0.4,1.1c-1.8-1.8-2-4.2-3.2-6.2
	c-0.1,0-0.1,0.1-0.2,0.1c1.1,2.5,2.1,5,3.2,7.5c-0.1,0-0.1,0.1-0.2,0.1c-0.8-1.5-1.7-3-2.5-4.4c0,0-0.1,0-0.1,0.1
	c0.6,1.6,1.2,3.2,1.8,4.8c-0.1,0-0.1,0.1-0.2,0.1c-1.1-2.3-2.3-4.6-3.4-6.9c0,0,0,0-0.1,0c0.9,2.6,1.8,5.2,2.7,7.7
	c-0.1,0-0.2,0.1-0.3,0.1c-0.4-0.6-0.8-1.2-1.2-1.8c0,0-0.1,0-0.1,0.1c0.3,1.1,0.6,2.1,0.9,3.2c0,0-0.1,0-0.1,0
	c-0.4-0.7-0.9-1.4-1.3-2.1c-0.1,0-0.1,0.1-0.2,0.1c0.4,0.8,0.8,1.6,1.3,2.6c-0.3-0.3-0.5-0.5-0.7-0.7c0,0-0.1,0-0.1,0.1
	c0.4,0.8,0.8,1.7,1.2,2.5c0,0-0.1,0-0.1,0.1c-0.4-0.5-0.8-1-1.2-1.5c0,0-0.1,0.1-0.1,0.1c0.2,0.5,0.5,0.9,0.7,1.4c0,0-0.1,0-0.1,0.1
	c-1.1-1.8-2.3-3.6-3.4-5.4c-0.1,0.1-0.2,0.1-0.4,0.2c2,2.1,3,4.7,4.2,7.2c-0.1,0-0.1,0.1-0.2,0.1c-0.6-0.5-1.3-1.1-1.9-1.6
	c0,0-0.1,0.1-0.1,0.1c0.5,0.5,1.1,1.1,1.6,1.6c0,0,0,0.1,0,0.1c-0.2-0.1-0.4-0.2-0.8-0.4c0.4,0.7,0.7,1.1,1,1.6
	c-1.2,0.1-1.4-1.2-2.4-1.7c0.6,0.9,1.1,1.6,1.7,2.3c0,0-0.1,0.1-0.1,0.1c-0.2-0.2-0.4-0.3-0.7-0.5c0,0-0.1,0.1-0.1,0.1
	c0.3,0.4,0.6,0.8,0.9,1.3c-0.1,0.1-0.1,0.1-0.2,0.2c-1.4-1.2-2.4-2.8-3.9-4c1.3,1.8,2.7,3.6,4,5.4c-0.1,0-0.1,0.1-0.2,0.1
	c-1.3-1.7-2.7-3.4-4-5.2c-0.1-0.1-0.2-0.3-0.3-0.4c-0.1-0.8-0.3-1.5-0.4-2.3c-0.1-4.3,0.7-8.4,2.8-12.3c0.2-0.3,0.2-0.7,0.3-1.1
	c0.2-0.2,0.6-0.4,0.7-0.7c0.1-1.4,0.2-2.9,0.3-4.3c-0.1,0-0.1,0-0.2,0c-0.3,1.7-0.5,3.4-0.8,5c0-0.5-0.1-1-0.1-1.4
	c0,0,0-0.1-0.2-0.3c-0.1,0.9-0.3,1.7-0.4,2.4c-0.1,0-0.1,0-0.2,0c-0.1-1.1-0.3-2.2-0.4-3.3c0,0-0.1,0-0.1,0
	c-0.2,1.3-0.4,2.5-0.6,3.8c0,0-0.1,0-0.1,0c-0.1-1.1-0.1-2.2-0.2-3.2c-0.1,0-0.1,0-0.2,0c-0.1,1-0.1,2-0.2,3c0,0-0.1,0-0.1,0
	c-0.1-0.7-0.1-1.3-0.2-2c0,0-0.1,0-0.1,0c-0.1,1-0.1,2-0.2,3c-0.1,0-0.2,0-0.2,0c-0.1-1.1-0.2-2.2-0.3-3.3c0,0-0.1,0-0.1,0
	c-0.1,1.5-0.2,3-0.3,4.6c0,0-0.1,0-0.1,0c-0.1-2.1-0.2-4.2-0.3-6.3c0,0.1-0.1,0.3-0.1,0.4c-0.4,1.8-0.9,3.6-1.5,5.4
	c0.2-1.9,0.5-3.7,0.7-5.6c0,0-0.1,0-0.1,0c-0.7,2.3-1.4,4.6-2.1,6.8c0,0-0.1,0-0.1,0c0.2-0.9,0.4-1.7,0.6-2.6
	c0.2-0.9,0.5-1.8,0.7-2.7c0.2-0.9,0.3-1.8,0.4-2.7c-0.7,2.5-1.5,5.1-2.2,7.6c-0.1,0-0.1,0-0.2,0c0.3-1.7,0.6-3.5,0.9-5.2
	c-0.1,0-0.2,0-0.2,0c-0.5,2.4-1.1,4.8-1.6,7.1c0,0-0.1,0-0.1,0c0-0.3-0.1-0.6-0.1-0.9c-0.1,0-0.1,0-0.2,0c0,0.4,0,0.8,0,1.3
	c0,0.2-0.2,0.3-0.3,0.5c-0.1-0.1-0.2-0.2-0.4-0.3c-0.1,1-0.2,1.9-0.3,2.8c0,0-0.1,0-0.1,0c-0.1-0.5-0.2-1.1-0.3-1.6
	c-0.1,0-0.2,0-0.3,0.1c0.1,0.6,0.2,1.1,0.3,1.7c0.1,0.6,0.3,1.2,0.4,2c-0.3-0.6-0.6-1.1-0.9-1.6c-0.1,1.6,0.8,2.7,1.3,4.1
	c-0.1,0-0.2,0.1-0.2,0.1c-0.6-1.2-1.2-2.4-1.9-3.7c0.1,0.9,0.2,1.7,0.3,2.5c0,0-0.1,0-0.1,0c-0.2-0.7-0.4-1.5-0.7-2.4
	c-0.2,2.4,1.2,4.2,1.9,6.1c-0.6-0.2-0.5-1.3-1.4-1c-0.3-1.1-0.5-2.2-0.8-3.3c-0.1,0-0.2,0.1-0.3,0.1c0.4,1.1,0.7,2.1,1.1,3.2
	c0.2,0.3,0.3,0.6,0.5,0.9c-0.1,0-0.1,0.1-0.2,0.1c-0.6-1.3-1.2-2.6-1.9-3.9c0,0-0.1,0-0.1,0c0.4,1.2,0.8,2.4,1.1,3.6
	c-0.1-0.1-0.2-0.2-0.5-0.6c0.2,0.8,0.3,1.4,0.4,2c0,0-0.1,0-0.1,0c-0.2-0.7-0.5-1.4-0.7-2.1c-0.1,0-0.1,0-0.2,0
	c0.1,0.6,0.3,1.2,0.4,1.9c-0.3-0.1-0.4-0.1-0.7-0.2c0,0.2,0,0.5-0.1,0.6c-0.4-0.7-0.8-1.5-1.2-2.2c-0.1,0-0.1,0.1-0.2,0.1
	c0.3,0.7,0.6,1.5,0.9,2.2c0.3,0.7,0.7,1.5,0.9,2.3c-0.5-0.8-1.1-1.7-1.6-2.5c-0.1,0-0.2,0-0.2,0.1c0.3,1,0.6,2,0.9,3
	c0,0-0.1,0.1-0.1,0.1c-0.5-1-1-2.1-1.4-2.9c0.2,1.2,0.5,2.5,0.8,3.9c0,0-0.1,0-0.1,0c-0.4-0.7-0.8-1.3-1.3-2.2
	c0.2,1.1,0.4,2,0.6,2.9c0,0-0.1,0-0.1,0c-0.2-0.6-0.4-1.1-0.7-1.9c0,0.4,0,0.7-0.1,0.9c0,0-0.1,0-0.1,0c-0.2-1.2-0.3-2.3-0.5-3.5
	c0,0-0.1,0-0.1,0c0.2,1.7,0.4,3.4,0.6,5.1c-0.1,0-0.2,0-0.3,0c-0.4-2.6-0.7-5.2-1.1-7.8c0,0,0,0-0.1,0c0,2.7,0,5.4-0.1,8.1
	c0,0-0.1,0-0.1,0c0-0.4-0.1-0.9-0.1-1.3c-0.7-9.7,1.8-18.5,7.7-26.3c1.7-2.3,3.9-4.2,6.2-5.9c0.4-0.3,0.6-0.8,0.9-1.3
	c1-0.4,0.9-1.5,1.3-2.3c-0.1,0-0.2-0.1-0.3-0.1c-0.3,0.8-0.7,1.6-1,2.4c0-0.2,0-0.4,0-0.6c-0.4,0.4-0.8,0.8-1.3,1.3
	c0.2-1,1.2-1.6,0.7-2.6c-0.6,0.9-1.3,1.9-1.9,2.8c0.5-1.7,2-3.1,1.8-5.1c-1.1,2.4-2.1,4.8-3.2,7.1c0.4-4.7,2.6-8.7,5.4-12.3
	c-3.4,3.2-5.8,7.2-8.2,11.2c0.5-1.1,1-2.3,1.5-3.4c-0.1,0-0.1,0-0.2-0.1c-0.4,0.9-0.9,1.7-1.3,2.6c0,0-0.1,0-0.1,0
	c0.4-1.3,0.6-2.7,1.2-4c0.6-1.2,1.6-2.3,2.4-3.5c-2.6,2-4.1,4.6-4.6,7.8c-0.1,0-0.2-0.1-0.3-0.1c0.1-0.8,0.3-1.6,0.4-2.6
	c-0.7,0.9-1.2,1.6-1.7,2.3c1.3-2.5,2.7-5.1,4.1-7.7c-0.5,0.6-0.9,1.1-1.3,1.6c-1.1,1.2-2.1,2.5-2.5,4.2c-0.1,0.6-0.4,1.2-0.6,1.8
	c-0.7-0.4-0.4-1-0.2-1.6c0.6-2.1,1.9-3.8,2.8-5.7c0.1-0.2,0.1-0.4,0.3-0.7c-2.8,2.9-4.2,6.2-5,9.9c-0.1,0-0.2-0.1-0.2-0.1
	c0-0.5,0-0.9,0.1-1.7c-0.3,0.5-0.5,0.8-0.6,1.1c-0.1,0-0.2-0.1-0.3-0.1c0.6-1.5,1.2-3,1.9-4.5c0.7-1.5,1.6-2.9,2.5-4.6
	c-2.9,3-3.7,6.7-5.4,10.1c0.1-0.5,0.2-1.1,0.3-1.6c-0.1,0-0.1-0.1-0.2-0.1c-0.3,0.7-0.7,1.4-1,2c0.5-2.3,1.2-4.6,2.6-6.5
	c0.8-1,1.3-2.3,1.7-3.5c-0.2,0.2-0.3,0.4-0.5,0.6c-1.7,2.5-3,5.1-4.3,7.8c-0.4,0.8-0.9,1.5-1.4,2.3c-0.1,0-0.2-0.1-0.3-0.1
	c0.9-2.3,1.8-4.6,2.7-6.9c-0.1,0-0.1-0.1-0.2-0.1c-1.4,2.3-2.9,4.7-4.3,7c-0.1,0-0.2-0.1-0.2-0.1c1.7-3.6,3.4-7.2,5.1-10.8
	c-0.1,0-0.1-0.1-0.2-0.1c-1,1.6-2,3.2-3,4.9c-1,1.6-2,3.3-3.1,4.9c0.1-0.5,0.3-1,0.4-1.5c-0.1,0-0.1,0-0.2-0.1c-0.4,1-0.9,2-1.3,2.9
	c0,0-0.1,0-0.1,0c0.4-1.3,0.8-2.7,1.2-4c-0.1,0-0.2-0.1-0.2-0.1c-0.8,1-2.2,1.7-2.3,3.2c-0.1,0.8-1.1,0.6-1.1,1.1
	c0.5-1.4,1.1-3,1.7-4.6c-0.1,0-0.2-0.1-0.3-0.1c-0.8,1.8-1.5,3.7-2.3,5.5c0.1-0.9,0.3-1.8,0.4-2.7c-0.1,0-0.1,0-0.2-0.1
	c-0.7,1.6-1.5,3.2-2.3,5c0.3-1.6,0.6-2.9,0.9-4.3c-0.1,0-0.1,0-0.2-0.1c-0.4,1-0.9,2-1.3,3c-0.1,0-0.1,0-0.2-0.1
	c0.3-0.8,0.5-1.6,0.8-2.5c0.5-1.5,1.1-2.9,1.6-4.5c0.3-1.1,0.3-2.2,0.5-3.4c-0.5,1-0.8,2.1-1,3.2c-0.4,1.5-0.7,3-1.1,4.5
	c0-0.2-0.1-0.3-0.1-0.5c-0.1,0-0.2-0.1-0.3-0.1c-0.6,1.7-1.2,3.4-1.8,5.1C99.3,83.3,100.1,82.6,99.3,82.5c0.1-0.3,0.2-0.6,0.2-0.9
	c0.1-0.9,0.2-1.8,0.3-2.7c0.3-2.1,0.6-4.2,0.9-6.3c-0.1,0-0.2,0-0.4-0.1c-0.4,2.3-0.9,4.6-1.3,6.9c0.1,0,0.2,0,0.3,0.1
	c0.1-0.1,0.2-0.2,0.3-0.3c-0.2,1.1-0.4,2.1-0.6,3.2C99,82.4,99.2,82.4,99.3,82.5z M165.6,47.5c0.5,0,1-0.1,1.6-0.1
	c0-0.1,0-0.2,0-0.2c-1-0.1-2.1-0.2-3.1-0.2c1,0,2-0.1,3-0.1c-0.4-0.3-2.8-0.8-3.1-0.6c-0.4,0.3-0.4,0.6,0.2,0.7
	c-0.2,0.1-0.5,0.2-0.7,0.3c0,0.1,0,0.2,0.1,0.2C164.1,47.5,164.9,47.5,165.6,47.5c-0.4,0.5,0,0.7,0.4,0.7c0.4,0.1,0.9,0,1.3-0.1
	c0-0.1,0-0.2,0.1-0.3C166.7,47.7,166.1,47.6,165.6,47.5z M191.6,47.1c-0.4-0.5-0.9-0.9-1.3-1.4c-0.1,0-0.1,0.1-0.2,0.1
	c0.9,1.2,1.8,2.5,2.7,3.7c0.1,0,0.1-0.1,0.2-0.1C192.6,48.6,192.1,47.9,191.6,47.1c-0.2-0.6-0.5-1.3-0.7-1.9
	c-0.4-0.9-0.9-1.8-1.3-2.8c-0.1,0-0.2,0.1-0.3,0.1C190.1,44.1,190.8,45.6,191.6,47.1z M173.9,39.4c1.8,0.4,3.6,0.9,5.4,1.3
	c0.4,0.1,0.8,0,1.1,0c0-0.1,0-0.2,0-0.3c-1.6-0.3-3.2-0.6-4.8-0.9C175.2,39.4,174.5,39.4,173.9,39.4c-0.3-0.1-0.6-0.2-0.9-0.2
	c-1.6-0.1-3.1-0.1-4.7-0.2c-0.6,0-1,0.1-1.3,0.6c-0.1,0.2-0.1,0.4-0.2,0.6c0.2,0,0.3,0,0.3,0c-0.2,0.2-0.5,0.4-0.7,0.6
	c0.1,0.1,0.3,0.2,0.4,0.3c-0.3,0.2-0.6,0.3-1,0.5c0,0.1,0.1,0.2,0.1,0.2c0.4,0,0.7,0,1.1,0c2.9,0,5.8,0,8.6,0.8
	c0.3,0.1,0.8-0.1,1.2-0.2c-2-1-4.1-1.4-6.2-1.4c-1.3,0-2.6,0-3.9,0c3.5-0.4,6.9-0.7,10.3,0.7c0.3,0.1,0.6,0,0.9,0c0-0.1,0-0.2,0-0.3
	c-3.2-0.9-6.4-1.4-9.8-1.3c0.1-0.1,0.2-0.1,0.3-0.1c3.2-0.1,6.4-0.2,9.4,1.1c0.4,0.2,0.9,0,1.3,0c0-0.1,0-0.2,0-0.3
	c-2.9-0.8-5.9-1.4-8.9-1.2c-1.1,0-2.2-0.1-3.3-0.1C169.3,39.5,171.6,39.4,173.9,39.4z M126.4,43.8c-0.5,0.3-0.9,0.7-0.3,1.6
	c0.2-0.4,0.5-0.7,0.6-1C126.7,44.2,126.5,44,126.4,43.8c0.1-0.1,0.3-0.3,0.5-0.6c-0.4,0-0.6,0-0.9,0.1c0.6-0.3,1-0.8,1.7-0.9
	c0.2,0,0.4-0.4,0.6-0.7c-2.7,0.3-2.7,0.3-2.5,2.1c0,0,0,0,0.1,0.1C126,43.9,126.2,43.9,126.4,43.8z M165.8,42.5
	c-0.2,0.1-0.3,0.3-0.7,0.5c3.1,0.1,6,0,8.7,1c0.2,0.1,0.5,0,0.7,0c0-0.1,0-0.2,0-0.3c-1.3-0.2-2.6-0.6-3.9-0.7
	C169,42.8,167.4,42.7,165.8,42.5c3-0.1,6-0.2,8.9,0.9c0.2,0.1,0.5,0,0.7,0c0-0.1,0-0.2,0-0.3c-3.1-0.8-6.2-0.8-9.4-1
	C165.9,42.1,165.9,42.4,165.8,42.5z M129.4,49c0.2-0.2,0.5-0.3,0.7-0.5c-0.1-0.4-0.2-0.7-0.3-1c-0.7,0-0.9,0.2-0.6,0.8
	C129.3,48.6,129.4,48.8,129.4,49c0.4,1.3,0.8,2.7,1.2,4c0.2,0.8,0.3,0.9,1.2,0.9c-0.6-1.7-1.1-3.4-1.7-5.2
	C129.9,48.9,129.7,49,129.4,49z M140.5,76.9c0.2-1.1,0.5-2.1,0.7-3.1c-0.8,1.2-1.4,3.9-1.2,4.8C140.1,78,140.3,77.4,140.5,76.9
	c0,0.8-0.1,1.7-0.1,2.6c0.3-0.2,0.6-0.4,0.8-0.5c0.9-0.5,1.5-1.1,1.3-2.3c-0.1-0.6,0.2-1.3,0.2-1.9c0-0.3-0.1-0.7-0.1-1.1
	c-0.1,0-0.2,0-0.3,0c0,0.5,0,0.9,0,1.4c-0.1,0-0.1-0.1-0.2-0.1c-0.2,0.6-0.5,1.2-0.7,1.8c0,0-0.1,0-0.1,0c0.2-0.9,0.5-1.7,0.7-2.6
	c-0.1,0-0.2-0.1-0.3-0.1C141.2,75,140.8,76,140.5,76.9z M189.5,47.4c0.1-0.1,0.2-0.1,0.3-0.2c-0.5-0.9-1-1.8-1.6-2.6
	c-1.1-1.6-2.3-3-3.8-4.1c-0.2-0.2-0.6-0.1-0.9-0.2c-0.1,0.1-0.1,0.2-0.2,0.4C185.4,42.9,187.5,45.2,189.5,47.4z M124.4,64.9
	c0.7-0.1,1.7,0.1,2-0.3c0.8-0.9,2-1.3,3-1.8c1-0.5,2-1,3-1.5c1-0.5,2.1-0.9,3.2-1.4C134.4,59.5,126,63.3,124.4,64.9z M131.2,65
	c0,0.2,0.1,0.3,0.1,0.5c0.6-0.1,1.3,0,1.9-0.3c1.3-0.4,2.5-1,3.7-1.5c0.8-0.3,1.6-0.7,2.4-1c0-0.1-0.1-0.2-0.1-0.4
	C136.4,62.7,133.7,63.7,131.2,65z M133,39.1c0-0.1-0.1-0.3-0.1-0.4c-0.3,0-0.5,0-0.8,0.1c-0.8,0.2-1.6,0.4-2.5,0.6
	c-1.2,0.3-2.4,0.6-3.6,0.9c-0.8,0.2-0.9,0.7-0.5,1.4C128,40.8,130.6,40.4,133,39.1z M173.3,64.8c0.1,0.3,0.2,0.5,0.3,0.6
	c0.7,1.1,1.3,2.2,2.1,3.3c1.2,1.9,2.5,3.8,2.5,6.2c0,0.5,0.2,1.1,0.3,1.6c0.5-0.1,0.9-0.2,1.4-0.3C179.3,74.1,174.5,65.6,173.3,64.8
	z M175.6,74.1c0.1-0.1,0.1-0.2,0.2-0.3c-0.1-0.3-0.2-0.6-0.4-0.9c-1.6-2.2-3.2-4.3-4.8-6.5c-0.1-0.1-0.3-0.1-0.5-0.2
	c0,0.2,0,0.5,0.1,0.7c1.6,2.3,3.2,4.5,4.9,6.7C175.2,73.9,175.4,74,175.6,74.1z M146.4,73.2c0,0.3,0,0.5,0,0.7
	c-0.3-0.3-0.6-0.5-1.1-0.9c-0.1,0.6-0.1,0.8-0.1,1.2c-0.2-0.3-0.3-0.6-0.5-0.8c-0.1,0-0.2,0-0.2,0.1c-0.1,1.1-0.2,2.1-0.3,3.4
	c0.9-0.5,1.6-0.9,2.2-1.4C147.3,74.7,147.3,73.8,146.4,73.2z M136.3,65.1c1.9-0.6,3.7-1.1,5.5-1.6c-0.8-0.6-6.6,1.2-8.2,2.2
	c1.5,0.5,2.8,0.3,3.9-0.7C137.1,65,136.7,65,136.3,65.1z M120.5,92.1c0.1,0,0.2,0,0.4,0c0.1-2.7,0.3-5.4,0.4-8.1
	c-0.1,0-0.2,0-0.3-0.1c-0.3,0.8-1.1,1.4-0.8,2.5c0.1,0.5,0,1.1,0.1,1.6C120.3,89.4,120.4,90.8,120.5,92.1z M127.2,65.1
	c0.7-0.1,1.6-0.1,2-0.5c1.1-0.9,2.2-1.6,3.5-2.1c0.4-0.2,0.9-0.4,1.4-0.7C133.1,61.5,127.9,63.8,127.2,65.1z M167.5,67.7
	c-0.1,0.1-0.1,0.2-0.2,0.3c0.8,0.9,1.6,1.8,2.4,2.7c0.7,0.7,1.3,1.5,2,2.2c0.2,0.2,0.5,0.2,0.8,0.2c0.1-0.1,0.1-0.2,0.2-0.3
	c-1.4-1.6-2.8-3.2-4.2-4.7C168.2,67.9,167.8,67.9,167.5,67.7z M121.7,56c0,0.1,0.1,0.2,0.1,0.3c2.3,0.2,4-1.4,6-2.1
	c-0.4-0.2-0.8-0.5-1.1-0.3C125.1,54.5,123.4,55.3,121.7,56z M176.9,73.7c-1.4-3.2-3.7-5.5-5.5-8.1c1.5,2.7,3.2,5.3,4.8,7.9
	C176.2,73.7,176.4,73.6,176.9,73.7z M136.4,62.1c-1.5-0.5-5.8,1.5-6.8,3.1c0.5-0.1,1-0.3,1.4-0.5c0.4-0.2,0.8-0.6,1.3-0.8
	C133.6,63.3,135,62.8,136.4,62.1z M172,65.2c1,1.5,1.9,2.8,2.7,4.1c0.9,1.4,1.7,2.9,2.4,4.3c0.2,0.3,0.2,0.6,0.3,1
	c0.1,0.3,0.2,0.6,0.2,0.8c-0.2-4.1-3.1-6.8-5-10C172.7,65.2,172.4,65.3,172,65.2z M205.7,71.7c-0.1,0-0.2,0.1-0.2,0.1
	c0.8,3.2,1.7,6.4,2.5,9.7c0.1,0,0.2,0,0.2-0.1c-0.6-2.9-1.2-5.7-1.8-8.6C206.3,72.4,206,72.1,205.7,71.7z M164.3,69.5
	c-0.1,0.1-0.2,0.2-0.3,0.3c1.3,1.4,2.6,2.7,4,4.1c0.2,0,0.5-0.1,1-0.3C167.3,72.2,165.8,70.9,164.3,69.5z M142.5,64.7
	c0-0.2-0.1-0.3-0.1-0.5c-2,0.6-3.9,1.2-5.9,1.8c0,0.1,0,0.2,0.1,0.3C138.8,66.9,140.5,65.1,142.5,64.7z M179.1,42
	c2.3,2,4.6,3.9,6.9,5.9c0.1-0.1,0.1-0.1,0.2-0.2C183.9,45.8,182,43.3,179.1,42z M167.4,66c-0.5,0.1-1,0.2-1.6,0.3
	c0.9,0.6,2.4,0.2,3.4-0.8c-0.4,0-0.7,0.1-1.1,0.1c0,0,0-0.1,0-0.1c0.7-0.1,1.4-0.3,2.1-0.4c0-0.1,0-0.2,0-0.3
	c-1.1-0.3-2.2,0-3.5,0.3C166.9,65.4,167.1,65.7,167.4,66z M185,45.8c0.1-0.1,0.1-0.1,0.2-0.2c-1.4-1.7-2.8-3.3-4.8-4.4
	c-0.1,0.1-0.2,0.2-0.2,0.3C181.7,42.9,183.3,44.3,185,45.8z M186,45.5c0.1-0.1,0.1-0.1,0.2-0.2c-1.3-1.7-2.4-3.5-4.4-4.5
	c-0.1,0.1-0.2,0.2-0.3,0.3C183,42.5,184.5,44,186,45.5z M127.9,47.8c-0.1,0.1-0.2,0.2-0.3,0.3c0.6,1.7,1.3,3.4,1.9,5.2
	c-0.2-1.7-0.5-3.4-0.9-5C128.6,48,128.1,47.9,127.9,47.8z M178.4,61.6c-1.1-0.7-1.6-2-3.1-1.3c0.5,0.7,1,1.4,1.6,2.2
	C177.3,62.3,177.7,62,178.4,61.6z M126.3,45.1c-0.1,0.4-0.3,0.7-0.3,0.9c0.5,2.1,1.1,4.2,1.7,6.3c0,0.1,0.3,0.2,0.5,0.5
	C127.6,50.1,127,47.8,126.3,45.1z M157.4,46.7c0.1,0.1,0.1,0.1,0.2,0.2c1.5-1.6,3-3.1,4.5-4.7c0.3-0.3,0.4-0.7,0.6-1.1
	c-0.1,0-0.2-0.1-0.2-0.1C160.8,42.8,159.1,44.7,157.4,46.7z M167.2,74.3c0.1-0.1,0.1-0.2,0.2-0.3c-1.3-1.3-2.4-2.8-4.1-3.7
	c0.9,1.2,1.8,2.4,2.8,3.5C166.3,74,166.8,74.1,167.2,74.3z M142.7,67.7c2.1,1.3,3.5-0.6,5.2-0.8c0-0.1,0-0.2,0-0.2
	C146.1,66.9,144.4,67.3,142.7,67.7z M173,63.2c-1.5-1.3-1.5-1.3-2-1.1c0.3,0.4,0.6,0.7,0.9,1c0.9,1,0.9,1,2,0.1
	c-0.6-0.5-0.8-1.4-1.9-1.5C172.4,62.3,172.7,62.7,173,63.2z M133.7,41.1c-2-0.3-3.6,0.7-5.3,1.4c0,0.1,0.1,0.2,0.1,0.4
	C130.3,42.3,132,41.7,133.7,41.1z M156.3,52.4c0,0,0.1,0.1,0.1,0.1c0.9-0.9,1.9-1.7,2.8-2.6c0.5-0.5,0.8-1,0.4-1.7
	C158.5,49.7,157.4,51.1,156.3,52.4z M134.1,67.4c-0.1-0.1-0.2-0.2-0.3-0.3c-1.5,1.7-3,3.5-4.5,5.2c0.1,0.1,0.2,0.2,0.3,0.2
	C131.1,70.8,132.6,69.1,134.1,67.4z M132.4,42.6c0-0.1-0.1-0.2-0.1-0.3c-1,0.2-2,0.4-3,0.6c-0.8,0.2-0.8,0.2-0.6,1.2
	C129.9,43.6,131.1,43.1,132.4,42.6z M102.1,71.9c-0.5,2.1-1,4.3-1.5,6.4c0.1,0,0.2,0,0.2,0.1C101.6,76.3,102.5,74.2,102.1,71.9z
	 M123,88.5c0.1,0,0.2,0,0.3,0c0.4-2.7,0.8-5.5,1.2-8.2c-0.1,0-0.3,0-0.4-0.1C123.7,83,123.3,85.8,123,88.5z M169,72.9
	c0.1-0.1,0.2-0.2,0.3-0.3c-1.2-1.2-2.3-2.3-3.5-3.5c-0.1-0.1-0.4,0-0.6,0c0,0.1-0.1,0.2-0.1,0.2C166.5,70.3,167.4,72,169,72.9z
	 M103.4,77.9c1.4-1.7,1.3-3.8,1.6-5.8c-0.1,0-0.2,0-0.3-0.1C104.3,74.1,103.9,76,103.4,77.9z M169.3,67.5c-0.1,0.1-0.3,0.2-0.4,0.3
	c1.4,1.7,2.8,3.4,4.2,5.1c0.1-0.1,0.2-0.1,0.3-0.2C172.1,70.9,170.7,69.2,169.3,67.5z M129.6,55c0-0.1-0.1-0.2-0.1-0.3
	c-1.5,0.6-3,1.2-4.7,1.8C125.8,56.8,127.9,56.1,129.6,55z M122,88c0.2-1.9,0.3-3.7,0.5-5.6C121.8,83,121.6,86,122,88z M122.4,87.3
	c0.1,0,0.2,0.1,0.3,0.1c0.3-2,0.5-4.1,0.8-6.1c-0.1,0-0.3,0-0.4-0.1C122.8,83.3,122.6,85.3,122.4,87.3z M117.2,66
	c-0.1,0.1-0.5,0.1-0.6,0.3c-1,1.6-1.9,3.3-2.8,4.9c0,0,0.1,0.1,0.1,0.1C115,69.5,116.1,67.7,117.2,66z M179.5,61.3
	c-1-0.7-1.4-2-3-2.1c0.9,1,1.6,1.9,2.4,2.7C179.2,61.7,179.3,61.6,179.5,61.3z M172.3,60.5c0,0.1,0,0.1-0.1,0.2
	c0.8,0.9,1.6,1.8,2.4,2.7c0.1,0,0.2,0,0.3,0c0-0.3,0-0.6-0.1-0.8c-0.4-0.6-0.9-1.1-1.4-1.6C173.1,60.7,172.7,60.6,172.3,60.5z
	 M180.4,30.9c0,0.1-0.1,0.2-0.1,0.3c1.7,1.3,4,1.1,5.8,2c0-0.1,0.1-0.2,0.1-0.2C184.2,32.3,182.3,31.6,180.4,30.9z M129.7,85.5
	c0.5-2.8,1.1-5.6,1.6-8.4C130.2,79.8,129.8,82.6,129.7,85.5z M131.6,98.4c-0.1,0.1-0.2,0.2-0.3,0.2c1.4,1.6,2.8,3.2,4.3,4.7
	c0.1-0.1,0.2-0.2,0.3-0.2C134.4,101.6,133,100,131.6,98.4z M127.4,56.8c1.4,0.4,2.4-0.6,3.6-1.1C129.5,55.3,128.5,56.4,127.4,56.8z
	 M146.6,66.1c-2-0.3-3.6,0.6-5.4,1.1c0,0.1,0.1,0.2,0.1,0.3C143.1,67,144.8,66.6,146.6,66.1z M191,68.2c0.1,0,0.1-0.1,0.2-0.1
	c-0.5-1.5-1.1-3-1.7-4.4c-0.1-0.2-0.4-0.3-0.6-0.4c-0.1,0.1-0.1,0.1-0.2,0.2C189.5,65,190.2,66.6,191,68.2z M129,75.9
	c0.1,0.1,0.2,0.1,0.2,0.2c1.5-0.6,1.6-2.2,2.4-3.3c-0.1-0.1-0.2-0.1-0.3-0.2C130.6,73.7,129.8,74.8,129,75.9z M192,68.1
	c0.1,0,0.1,0,0.2-0.1c-0.4-1.3-0.8-2.7-1.2-4c-0.1-0.2-0.5-0.3-0.7-0.5c-0.1,0.1-0.1,0.1-0.2,0.2C190.7,65.1,191.4,66.6,192,68.1z
	 M134.1,86.3c1.1-1.3,1.3-2.3,0.9-3.8c-0.1,0.7-0.1,1.2-0.2,1.8c0,0-0.1,0-0.1,0c0-0.6,0-1.3,0-1.9c-0.1,0-0.1,0-0.2,0
	C134.4,83.7,134.3,84.9,134.1,86.3z M135.7,68c-0.1-0.1-0.2-0.2-0.3-0.2c-1.5,1.5-3.1,3-4.6,4.5c0.1,0.1,0.1,0.1,0.2,0.2
	C132.6,71,134.1,69.5,135.7,68z M128,45.6c-1.1,0.1-1.1,0.2-0.8,1.2c0.1,0.2,0.1,0.5,0.2,0.7c0.1,0.2,0.4,0.2,0.6,0.3
	c0.1-0.2,0.3-0.4,0.2-0.6C128.3,46.7,128.1,46.2,128,45.6z M144.9,68.1c0,0.1,0,0.2,0,0.3c1.4,0.4,2.5-0.4,3.6-1.2
	C147.4,67.5,146.2,67.8,144.9,68.1z M170,72.5c0.1-0.1,0.2-0.2,0.3-0.3c-1-1.1-1.9-2.2-2.9-3.2c-0.1-0.1-0.4,0-0.8-0.1
	C167.8,70.2,168.9,71.4,170,72.5z M106.9,71c-0.1-0.1-0.2-0.1-0.4-0.2c-0.5,1.9-1,3.8-1.5,5.7c0.1,0,0.2,0,0.2,0.1
	C105.8,74.8,106.4,72.9,106.9,71z M163.9,45.7c0.1,0.1,0.1,0.2,0.2,0.2c1.5,0.1,3,0.2,4.5,0.3c0-0.1,0-0.2,0-0.4
	c-1.4-0.1-2.9-0.3-4.3-0.4C164.1,45.4,164,45.6,163.9,45.7z M98.3,76.7c0.2,0,0.3,0.1,0.5,0.1c0.2-1.5,0.4-3.1,0.7-4.6
	c-0.1,0-0.2,0-0.4-0.1C98.8,73.7,98.6,75.2,98.3,76.7z M130.3,44.9c-0.5,0.2-1.1,0.3-1.7,0.5c0.1,0.4,0.1,0.7,0.2,1.1
	C130.3,46.3,130.3,46.2,130.3,44.9z M143.4,74.5c-0.1,0-0.2,0-0.4-0.1c-0.2,1.1-0.3,2.2-0.5,3.3c0.1,0,0.2,0.1,0.3,0.1
	c0.2-0.2,0.5-0.5,0.5-0.7C143.5,76.2,143.4,75.4,143.4,74.5z M130.5,46c1.8-0.3,1.8-0.3,1.6-1.5C130.7,44.6,130.6,44.7,130.5,46z
	 M164.3,45.1c1.3,0.1,2.7,0.1,4,0.2C166.7,44.5,164.7,44.4,164.3,45.1z M138,81.5c0.1,0,0.2,0,0.4,0.1c0.4-2.1,0.8-4.2,1.2-6.2
	c-0.1,0-0.1,0-0.2,0C138.8,77.3,138.4,79.4,138,81.5z M169.9,44c0-0.1,0-0.2,0.1-0.4c-1.6-0.3-3.2-0.4-4.8-0.4c0,0.1,0,0.2,0,0.3
	C166.7,43.7,168.3,43.9,169.9,44z M180.2,31.6c-1.4-0.8-4.9-1.6-5.3-1.2C176.7,30.7,178.5,31.1,180.2,31.6z M132.8,40.2
	c0-0.1,0-0.1,0-0.2c-1.4,0.5-2.9,0.9-4.3,1.4c-0.1,0-0.1,0.4-0.2,0.7C129.9,41.4,131.4,40.8,132.8,40.2z M181.8,80.5
	c0-0.1,0-0.1,0-0.2c-1.6,0.3-3.3,0.7-4.9,1c0,0.1,0,0.1,0,0.2C178.5,81.1,180.2,80.8,181.8,80.5z M189.8,46
	c-0.1,0.1-0.2,0.1-0.3,0.2c0.9,1.4,1.8,2.8,2.6,4.2c0.1-0.1,0.2-0.1,0.3-0.2C191.6,48.8,190.7,47.4,189.8,46z M168.4,44.7
	c-0.4-0.5-2.6-1-3.3-0.9c-0.1,0-0.3,0.2-0.5,0.5C165.9,44.4,167,44.6,168.4,44.7z M132.7,56.7c-0.6-0.5-1.7-0.2-2.7,0.5
	C131,57.7,131.8,57.3,132.7,56.7z M113.4,69.4c0.7-1.1,1.4-2.2,2.2-3.3c-0.1,0-0.1-0.1-0.2-0.1C114.3,66.9,114.1,68.4,113.4,69.4z
	 M142.3,84.4c0.1,0,0.1,0,0.2-0.1c-0.3-1.4-0.6-2.7-0.9-4.1c-0.1,0-0.1,0-0.2,0C141.7,81.7,142,83,142.3,84.4z M178,78.1
	c0.9-0.1,1.7-0.2,2.6-0.3C180.2,76.9,179.6,76.9,178,78.1z M182.6,25.9c0,0,0,0.1-0.1,0.1c1.6,1,3.3,2.1,4.9,3.1
	c0,0,0.1-0.1,0.1-0.1C185.9,27.9,184.2,26.9,182.6,25.9z M179.7,43.6c-0.1,0.1-0.1,0.2-0.2,0.2c1.4,1.1,2.9,2.3,4.3,3.4
	c0.1-0.1,0.1-0.2,0.2-0.2C182.6,45.9,181.1,44.8,179.7,43.6z M181.1,79c0-0.1,0-0.1-0.1-0.2c-1.9,0.4-3.8,0.8-5.7,1.2
	c0,0.1,0,0.1,0,0.2C177.3,79.8,179.2,79.4,181.1,79z M140.2,39.1c0.1-0.1,0.1-0.1,0.2-0.2c-0.8-0.9-1.6-1.7-2.4-2.6
	C137.9,38,139.4,38.2,140.2,39.1z M137.1,60.4c-1.1-0.2-2,0.5-2.9,1C135.3,61.7,136.1,60.7,137.1,60.4z M97.4,76.4
	c0.1,0,0.2,0,0.2,0c0.2-1.1,0.3-2.2,0.5-3.4c-0.1,0-0.2,0-0.3,0C97.3,74,97.4,75.2,97.4,76.4z M114.1,66.4c-1.2,0.1-1.6,0.8-1.7,2.3
	C112.9,68.1,113.4,67.3,114.1,66.4z M176,80.4c0,0,0,0.1,0.1,0.1c1.8-0.4,3.5-0.7,5.3-1.1c0,0,0-0.1,0-0.1
	C179.5,79.6,177.8,80,176,80.4z M140,75.8c-0.8,1.6-1.2,3.9-0.9,4.8C139.4,79.1,139.7,77.4,140,75.8z M178.9,53.5
	c0.1-0.1,0.1-0.2,0.2-0.2c-1.1-0.8-1.8-2.1-3.1-2.6c-0.1,0.1-0.1,0.1-0.2,0.2C176.8,51.7,177.8,52.6,178.9,53.5z M186.7,41.6
	c-0.1,0.1-0.2,0.1-0.2,0.2c0.9,1.1,1.9,2.3,2.8,3.4c0.1-0.1,0.2-0.1,0.2-0.2C188.6,43.9,187.7,42.8,186.7,41.6z M130.6,47.3
	c0,0.1-0.1,0.2-0.1,0.3c0.3,0.2,0.6,0.5,0.9,0.5c0.5-0.1,1.1-0.3,0.7-1.2C131.6,47,131.1,47.2,130.6,47.3z M176.1,62.5
	c-0.8-0.7-1.5-1.4-2.2-2C175.3,62.8,175.3,62.9,176.1,62.5z M137.3,82c0.1,0,0.3,0.1,0.4,0.1c0.3-1.6,0.5-3.2,0.8-4.7
	c-0.1,0-0.1,0-0.2,0C137.9,78.9,137.6,80.5,137.3,82z M180,47.4c0.1-0.1,0.1-0.2,0.2-0.3c-1.3-0.8-2.5-1.7-3.8-2.5
	c0,0.1-0.1,0.1-0.1,0.2C177.5,45.6,178.7,46.5,180,47.4z M160.8,55.6c-0.1,0.1-0.3,0.1-0.4,0.2c0.4,1.1,1.4,1.9,2.2,2.7
	C162,57.6,161.4,56.6,160.8,55.6z M173.6,44.7c0-0.1,0-0.2,0.1-0.3c-1.1-0.3-2.2-0.5-3.4-0.8c0,0.1-0.1,0.3-0.1,0.4
	C171.4,44.3,172.5,44.5,173.6,44.7z M136.3,61.7c0.8-0.2,1.6-0.3,2.7-0.6C138,60.6,137.5,60.7,136.3,61.7z M136.3,70.7
	c1.1-0.9,2.2-1.7,3.3-2.6c-0.1-0.1-0.1-0.2-0.2-0.2C138.2,68.5,137.3,69.7,136.3,70.7z M132.4,80.6c0.1,0,0.2,0,0.2,0
	c0.3-1.6,0.6-3.2,0.9-4.7c-0.1,0-0.2,0-0.3-0.1C133,77.5,132.7,79.1,132.4,80.6z M97.2,81c0.1,0,0.2,0,0.3,0
	c0.1-1.2,0.3-2.4,0.4-3.6c-0.1,0-0.2,0-0.3,0C97.5,78.6,97.3,79.8,97.2,81z M130.3,47c1.6-0.2,1.8-0.3,1.8-1.2
	C131.6,46.4,130.5,45.7,130.3,47z M161,69.1c0,0.1,0.1,0.2,0.1,0.3c0.8-0.1,1.7,0.2,2.4-1.1C162.5,68.6,161.7,68.9,161,69.1z
	 M128.1,43.4c-1.1,0.1-1.2,0.2-1,1.2C128.2,44.4,128.2,44.4,128.1,43.4z M137.3,80.4c-0.1,0-0.2,0-0.3-0.1c-0.2,0.9-0.4,1.8-0.6,2.8
	c0.2,0,0.3,0.1,0.5,0.1C137,82.2,137.2,81.3,137.3,80.4z M136.4,42.4c0-0.1-0.1-0.3-0.1-0.4c-1,0.3-1.9,0.7-2.9,1
	c0,0.1,0.1,0.2,0.1,0.3C134.4,43,135.4,42.7,136.4,42.4z M183.4,25.7c0,0,0-0.1,0.1-0.1c1.3,0.9,2.7,1.8,4,2.6c0,0,0,0,0,0
	C186.1,27.3,184.8,26.5,183.4,25.7z M132,51.1c-0.1,0.1-0.2,0.2-0.2,0.4c0.3,0.4,0.8,1.3,0.9,1.2c0.7-0.4-0.2-0.9,0-1.3
	C132.5,51.3,132.2,51.2,132,51.1z M170,35.2c0,0.1,0,0.2,0,0.3c1.2,0,2.4,0,3.5,0C172.3,35.3,171.1,34.9,170,35.2z M144.3,65.3
	c0-0.1-0.1-0.2-0.1-0.4c-1.3,0.4-2.6,0.8-3.9,1.2c0,0,0,0.1,0,0.1C141.6,66,143,65.7,144.3,65.3z M110.9,73.1c0.1,0,0.1,0.1,0.2,0.1
	c0.6-1.2,1.1-2.4,1.7-3.6c-0.1,0-0.2-0.1-0.3-0.1C112,70.7,111.4,71.9,110.9,73.1z M157.4,49.5c0.1,0,0.1,0.1,0.2,0.1
	c0.8-0.9,1.5-1.8,2.3-2.6c-0.1-0.1-0.2-0.2-0.3-0.2C158.9,47.6,158.2,48.5,157.4,49.5z M96.2,76.8c-0.1,0-0.2,0-0.4-0.1
	c-0.1,1-0.3,1.9-0.4,2.9c0.1,0,0.2,0,0.3,0C95.9,78.7,96.1,77.8,96.2,76.8z M130.6,68.9c0.1,0.1,0.2,0.1,0.2,0.2
	c0.7-0.8,1.4-1.6,2.1-2.4c-0.1-0.1-0.2-0.2-0.3-0.3C131.9,67.3,131.2,68.1,130.6,68.9z M160.5,56.9c-0.1,0.1-0.2,0.1-0.3,0.2
	c0.5,0.9,1.2,1.6,2.1,2.3C161.6,58.6,161.1,57.7,160.5,56.9z M120.3,95.7c0.1,0,0.2,0,0.3,0c-0.1-1.2-0.3-2.4-0.4-3.6
	c-0.1,0-0.2,0-0.3,0C120.1,93.2,120.2,94.4,120.3,95.7z M125.1,81.4c-0.1,0-0.1,0-0.2,0c-0.3,1.4-0.5,2.9-0.8,4.3c0.1,0,0.2,0,0.2,0
	C124.5,84.3,124.8,82.9,125.1,81.4z M188.3,42c-0.1,0.1-0.2,0.1-0.2,0.2c0.6,0.9,1.3,1.8,1.9,2.7c0.1-0.1,0.2-0.1,0.2-0.2
	C189.5,43.8,188.9,42.9,188.3,42z M142.5,79.4c-0.1,0-0.2,0-0.2,0c0.2,1.4,0.3,2.8,0.5,4.2c0.1,0,0.1,0,0.2,0
	C142.9,82.2,142.7,80.8,142.5,79.4z M160,70.1c0,0.1,0.1,0.3,0.1,0.4c0.8,0.4,1.3-0.3,1.7-0.9C161.3,69.7,160.6,69.9,160,70.1z
	 M141,71.8c0.1,0.1,0.1,0.2,0.2,0.3c0.8-0.6,1.6-1.2,2.5-1.8c0-0.1-0.1-0.1-0.1-0.2C142.7,70.6,141.9,71.2,141,71.8z M137.7,37.3
	c0.1-1.2-0.4-1.7-1.4-1.9c0.2,0.5,0.5,0.9,0.7,1.4c0.1-0.1,0.1-0.2,0.2-0.3C137.3,36.7,137.5,36.9,137.7,37.3z M178.7,30.5
	c-1.4-0.8-2.5-1.1-3.2-0.8C176.6,30,177.6,30.3,178.7,30.5z M133.8,100.3c0.1-0.1,0.2-0.1,0.3-0.2c-0.7-1-1.4-1.9-2.1-2.9
	c-0.1,0.1-0.2,0.1-0.2,0.2C132.4,98.4,133.1,99.3,133.8,100.3z M106,70.9c0.2-0.8,0.4-1.6,0.6-2.4c-0.1,0-0.2,0-0.3-0.1
	C105.5,69.1,106.1,70.1,106,70.9z M97,74c-0.1,0-0.2,0-0.3-0.1c-0.7,0.7-0.3,1.5-0.2,2.3C96.7,75.5,96.9,74.7,97,74z M130.6,44.3
	c0-0.1-0.1-0.2-0.1-0.3c-1.4,0.2-1.7,0.4-1.8,1.1C129.3,44.8,130,44.6,130.6,44.3z M177.3,79.1c0-0.1,0-0.1,0-0.2
	c-0.9,0.2-1.8,0.4-2.7,0.6c0,0.1,0,0.1,0,0.2C175.5,79.5,176.4,79.3,177.3,79.1z M130,79.5c0.1,0,0.1,0,0.2,0.1
	c0.3-1.2,0.7-2.4,1-3.6c-0.1,0-0.2,0-0.3-0.1C130.6,77.1,130.3,78.3,130,79.5z M138,91.1c0.1,0,0.2-0.1,0.3-0.1
	c-0.5-1.1-0.9-2.1-1.4-3.2c-0.1,0-0.1,0.1-0.2,0.1C137.2,88.9,137.6,90,138,91.1z M119.2,93.5c0,0,0.1,0,0.1,0
	c-0.2-1.1-0.5-2.2-0.7-3.4c0,0-0.1,0-0.1,0C118.8,91.2,119,92.4,119.2,93.5z M143,71.6c1.3,0.1,1.7-1.2,2.7-1.5
	c-0.1-0.1-0.1-0.2-0.2-0.2C144.7,70.4,143.8,71,143,71.6z M173.6,74.6c-0.2-0.4-0.3-0.8-0.5-1c-0.3-0.5-0.3-0.4-0.9,0
	C172.7,73.9,172.7,74.8,173.6,74.6z M130.7,98.6c-0.1,0.1-0.1,0.1-0.2,0.2c0.7,0.8,1.3,1.6,2,2.4c0.1-0.1,0.2-0.1,0.2-0.2
	C132,100.1,131.4,99.4,130.7,98.6z M133.2,96.2c-0.1,0.1-0.1,0.1-0.2,0.2c0.6,0.8,1.3,1.7,1.9,2.5c0.1-0.1,0.2-0.1,0.3-0.2
	C134.5,97.9,133.8,97.1,133.2,96.2z M133.3,54.9c0.1,0,0.1-0.1,0.2-0.1c-0.1-0.6-0.2-1.1-0.4-1.7c0-0.1-0.2-0.2-0.4-0.3
	c-0.1,0.1-0.2,0.3-0.2,0.4C132.8,53.8,133.1,54.4,133.3,54.9z M170.5,44.6c0.6,0.7,2,0.9,2.5,0.5C172.2,44.9,171.5,44.8,170.5,44.6z
	 M127.1,79.8c-0.1,0-0.2,0-0.2,0c-0.2,1.2-0.5,2.4-0.7,3.6c0.1,0,0.1,0,0.2,0C126.6,82.2,126.9,81,127.1,79.8z M132.1,80.3
	c-0.1,0-0.2,0-0.2,0c-0.2,1.3-0.4,2.6-0.5,3.9c0.1,0,0.2,0,0.2,0C131.7,82.9,131.9,81.6,132.1,80.3z M175.5,74.7
	c0.6,1.4,0.6,1.4,1.2,1C176.1,74.5,176.1,74.5,175.5,74.7z M159.9,45.9c-0.1-0.1-0.2-0.1-0.3-0.2c-0.7,0.9-1.5,1.8-2.2,2.6
	c0.1,0,0.1,0.1,0.2,0.1C158.3,47.6,159.1,46.8,159.9,45.9z M161.2,45.5c0.1,0,0.2,0,0.2,0c0-0.6,0.1-1.2,0.1-1.7
	c-0.1,0-0.2,0-0.2-0.1c-0.3,0.5-0.6,1-0.9,1.5c0.1,0.1,0.2,0.1,0.2,0.2c0.1-0.1,0.2-0.3,0.3-0.4C161,45.1,161.1,45.3,161.2,45.5z
	 M135.3,90.5c0.1,0,0.1,0,0.2-0.1c-0.4-1-0.7-2.1-1.1-3.1c-0.1,0-0.2,0.1-0.3,0.1C134.5,88.5,134.9,89.5,135.3,90.5z M139,73.6
	c-0.1,0-0.2-0.1-0.3-0.1c-0.4,1-0.7,2-1.1,3c0.1,0,0.2,0.1,0.2,0.1C138.3,75.6,138.6,74.6,139,73.6z M161.6,60.3
	c0-0.1,0.1-0.1,0.1-0.2c-0.5-0.8-1.1-1.5-1.6-2.3c-0.1,0.1-0.2,0.1-0.3,0.2C160.5,58.9,161.1,59.6,161.6,60.3z M119.6,95.8
	c0.1,0,0.2,0,0.3,0c-0.1-1.2-0.1-2.3-0.2-3.5c-0.1,0-0.2,0-0.2,0C119.5,93.4,119.6,94.6,119.6,95.8z M161.5,55.5
	c-0.1,0.1-0.2,0.1-0.3,0.2c0.6,0.9,1.2,1.7,1.8,2.6c0.1,0,0.1-0.1,0.2-0.1C162.7,57.2,162.1,56.4,161.5,55.5z M125.9,81.2
	c0.2-0.9,0.5-1.8,0.7-2.6C125.8,79.3,126.1,80.3,125.9,81.2z M180.2,76.9c-0.3-0.7-1.2-0.5-2,0.4C178.9,77.2,179.5,77.1,180.2,76.9z
	 M180.9,78.4c0-0.1,0-0.1-0.1-0.2c-0.8,0.2-1.6,0.3-2.4,0.5c0,0.1,0,0.1,0,0.2C179.3,78.7,180.1,78.6,180.9,78.4z M134.8,44.1
	c-0.1-0.1-0.1-0.2-0.2-0.2c-0.5,0.1-1.4-0.1-0.9,1.1C134.1,44.6,134.5,44.4,134.8,44.1z M136.9,53.4c0.1,0,0.2,0.1,0.3,0.1
	c0.2-0.3,0.5-0.6,0.4-0.8c-0.1-0.6-0.5-0.6-1-0.2C136.7,52.8,136.8,53.1,136.9,53.4z M129,46.5c-0.1,0.1-0.1,0.2-0.2,0.4
	c0.2,0.2,0.4,0.5,0.6,0.5c0.2,0,0.4-0.4,0.6-0.6C129.6,46.7,129.3,46.6,129,46.5z M161,46.7c-0.8,0.7-0.3,1.3-0.3,1.9
	c0.1,0,0.2,0,0.3,0C161,48,161,47.4,161,46.7z M192.1,42.7c-0.1,0-0.2,0.1-0.2,0.1c0.4,0.8,0.9,1.7,1.3,2.5c0.1,0,0.2-0.1,0.3-0.1
	C193,44.4,192.6,43.6,192.1,42.7z M101.9,70.6c-0.1,0-0.2-0.1-0.3-0.1c-0.7,0.6-0.3,1.5-0.3,2.3C101.6,72.1,101.8,71.4,101.9,70.6z
	 M161,61.8c-0.4-0.6-0.8-1.2-1.4-2C159.3,61.1,160.5,61.3,161,61.8z M176.5,49c0,0.1-0.1,0.1-0.1,0.2c0.8,0.6,1.6,1.2,2.4,1.7
	c0,0,0.1-0.1,0.1-0.1C178.1,50.2,177.3,49.6,176.5,49z M143.6,77c0.1,0,0.2,0,0.3,0c0-1,0.1-2,0.1-3c-0.1,0-0.1,0-0.2,0
	C143.7,75,143.6,76,143.6,77z M175.5,53.2c-0.1,0.1-0.1,0.2-0.2,0.3c0.6,0.5,1.2,1,1.8,1.5c0.1-0.1,0.1-0.1,0.2-0.2
	C176.7,54.3,176.1,53.7,175.5,53.2z M120,87.8c-0.1,0-0.2,0-0.3,0c0,1,0,2,0,3c0.1,0,0.2,0,0.2,0C120,89.8,120,88.8,120,87.8z
	 M171.3,63.7c0.1-0.1,0.2-0.2,0.2-0.3c-0.5-0.5-1-0.9-1.5-1.4c-0.1,0.1-0.1,0.2-0.2,0.2C170.3,62.7,170.8,63.2,171.3,63.7z
	 M135.4,77.6c0.1,0,0.1,0,0.2,0c0.2-0.9,0.4-1.8,0.6-2.7c-0.1,0-0.2,0-0.3-0.1C135.7,75.8,135.6,76.7,135.4,77.6z M202.5,53.1
	c0.1,0,0.1,0,0.2-0.1c-0.5-1-0.9-2-1.4-2.9c-0.1,0-0.1,0.1-0.2,0.1C201.6,51.2,202,52.1,202.5,53.1z M164.2,48.6
	c0.4,0.8,1,0.5,1.5,0.3c0-0.1,0-0.2,0-0.3C165.1,48.6,164.7,48.6,164.2,48.6z M151.5,50.5c-0.1,1.1,0.8,1.4,1.1,1.9
	c0.1,0,0.1-0.1,0.2-0.1C152.4,51.8,152,51.2,151.5,50.5z M131.2,74.9c1.2-0.2,1.3-1,1.4-1.8C132.1,73.7,131.7,74.2,131.2,74.9z
	 M176.3,46.7c0.1-0.1,0.1-0.2,0.2-0.3c-0.8-0.4-1.5-0.8-2.3-1.1c0,0.1-0.1,0.1-0.1,0.2C174.8,45.9,175.5,46.3,176.3,46.7z M174,51.2
	c-0.1,0.1-0.1,0.2-0.2,0.3c0.7,0.5,1.4,1,2,1.4c0-0.1,0.1-0.1,0.1-0.2C175.3,52.2,174.6,51.7,174,51.2z M162.7,42.5
	c-0.1,0-0.3,0-0.4,0c0,0.6,0,1.1-0.1,1.7c0.1,0,0.3,0,0.4,0C162.7,43.6,162.7,43,162.7,42.5z M119.3,88.8c-0.1,0-0.2,0-0.2,0
	c0,0.9,0.1,1.7,0.1,2.6c0.1,0,0.2,0,0.3,0C119.4,90.6,119.3,89.7,119.3,88.8z M136.7,45.9c-0.9-0.4-1.4-0.1-1.4,0.6
	C135.8,46.3,136.3,46.1,136.7,45.9z"/>
</svg>
