<?xml version="1.0" encoding="utf-8"?>
<!-- Generator: Adobe Illustrator 18.1.0, SVG Export Plug-In . SVG Version: 6.00 Build 0)  -->
<svg version="1.1" id="Ebene_1" xmlns="http://www.w3.org/2000/svg" xmlns:xlink="http://www.w3.org/1999/xlink" x="0px" y="0px"
	 viewBox="0 0 920.8 786" enable-background="new 0 0 920.8 786" xml:space="preserve">
<rect x="-2136.1" y="-2420.6" fill="none" width="7.1" height="0"/>
<g>
	<g>
		<path d="M231.4,277.9c0.8-0.8,1.6-1.7,2.4-2.5c14.3-15.6,29-30.7,45.3-44.3c6.3-5.2,12.7-10.1,20-13.9c3.9-2,7.9-3.3,12.3-3
			c6.3,0.4,10.4,4.3,10.7,10.6c0.2,3.2-0.3,6.4-1.7,9.3c-1.6,3.5-3.2,7-5.2,10.3c-14.3,23.3-32.1,43.5-53.7,60.3
			c-5.3,4.1-10.9,7.7-17,10.7c-0.6,0.3-1.1,0.6-1.6,0.9c0.2,0.4,0.3,0.6,0.5,0.7c6.7,2.4,8.9,7.7,9.2,14.2c0.3,6-1,11.8-2.3,17.6
			c-3.3,15.1-8.9,29.4-14.4,43.8c-5.3,13.6-10.8,27.2-14.5,41.3c-2.8,10.8-4.8,21.7-4.4,32.9c0.2,5.4,1.2,10.7,3.7,16
			c0.8-0.9,1.4-1.6,2-2.3c7.2-9.1,15.1-17.5,24.7-24.2c5.3-3.7,10.9-7.1,17.5-8c2.5-0.4,5.1-0.5,7.6-0.2c5.1,0.5,8.5,4.3,9.3,10.1
			c0.8,5.9,0.1,11.6-1,17.4c-2.5,14-7.7,27-13.2,40c-8.3,19.6-17.8,38.5-27.7,57.3c-0.6,1.1-1.2,2.3-2.2,4.1
			c1.4-0.6,2.2-0.8,2.9-1.2c6.4-3.6,12.4-8,17.8-13c19.5-18.1,34.6-39.5,45.4-63.8c1.3-2.9,2.1-6,3.1-9c0.8-2.4,1.9-4.4,4.2-5.7
			c2.4-1.3,4.2-0.4,4.3,2.3c0.1,1.3-0.2,2.6-0.5,3.9c-2,8.3-5.5,16-9.5,23.5c-13.8,25.5-31.2,48.1-53.6,66.7
			c-7,5.8-14.6,10.9-23,14.7c-1.7,0.7-2.5,2-3.3,3.5c-12.7,22.3-25.9,44.2-40,65.6c-14,21.3-28.7,42.2-45.2,61.7
			c-6.5,7.6-13.2,15.1-21.1,21.4c-3,2.4-6.2,4.6-9.6,6.4c-7,3.7-13.4,2.2-18.5-3.9c-3.5-4.2-5.5-9.2-6.8-14.5
			c-1.5-6.3-2.1-12.8-2-19.3c0-1.2,0-2.4,0-3.8c-1.4,0.4-1.8,1.7-2.4,2.5c-8.9,12-17.6,24.2-26.7,36.1c-5.1,6.7-10.7,12.9-17.1,18.3
			c-1.8,1.5-3.6,2.8-5.6,4.1c-4.2,2.6-8.5,2.5-12.8,0.4c-4.1-2-7-5.3-9.2-9.2c-3.7-6.3-5.3-13.2-6.1-20.4c-1.6-15.8,1-31.1,5-46.3
			c5.1-19.5,12.8-38.1,21.5-56.3c15.9-33.1,34.4-64.6,56.4-94.1c3.7-5,7.8-9.8,11.9-14.6c1.7-2,3.7-3.8,5.5-5.7
			c5.8-5.8,12.8-5.8,20-3.8c5.7,1.5,7.4,5.7,4.8,11c-2.5,5-5.4,9.8-8.4,14.5C107.2,567.5,95,586,83.4,604.7
			c-14.1,22.7-26.7,46.3-37,71c-8.5,20.4-14.7,41.4-18,63.2c-0.6,4.2-1,8.5-1.3,12.8c-0.1,2.4,0.1,4.9,0.5,7.2
			c0.5,2.9,2.2,3.7,4.7,2.2c2-1.2,3.9-2.5,5.4-4.2c5-5.5,10.1-11.1,14.7-17c11.2-14.5,21.3-29.9,31.2-45.4c0.7-1.1,1.1-2.4,1.4-3.6
			c5.9-28.1,15.3-55,28.3-80.6c2.2-4.4,4.8-8.6,7.4-12.9c1.4-2.2,3-4.3,4.6-6.5c7.9-10.8,17.4-11.6,30.3-8c1,0.3,2,0.9,2.9,1.5
			c2.8,2.1,3.2,4.4,1.4,7.4c-6.9,11.8-14,23.4-20.5,35.4c-10.8,19.8-20,40.4-26.5,62c-4.1,13.6-6,27.5-5.6,41.7
			c0.1,2.5,0.6,5,1.3,7.4c0.6,2.1,1.8,2.6,3.9,1.9c1.7-0.6,3.5-1.4,4.9-2.5c4-3.3,8-6.6,11.6-10.3c10.1-10.5,18.8-22.1,27.2-34
			c20.8-29.3,39.6-60,57.3-91.3c0.4-0.6,0.7-1.3,1.1-2.1c-0.5-0.1-0.8-0.3-1-0.3c-7.7,0.3-13.2-3.5-17.3-9.6
			c-3.7-5.5-5.2-11.8-5.7-18.4c-1-12.7,1.5-25,4.9-37.1c4.4-15.5,10.9-30.1,19.7-43.7c0.4-0.6,0.8-1.3,1.3-2c-0.4-0.5-0.7-0.9-1-1.3
			c-8.2-8.5-12.2-18.9-13.6-30.4c-1.8-14.1,0.8-27.8,4.4-41.4c4.5-16.8,10.7-33,16.5-49.4c3.3-9.3,6.7-18.6,8.5-28.4
			c0.6-3.1,0.8-6.4,0.5-9.5c-0.4-4.6-2.9-6.5-7.6-6.2c-2.2,0.1-4.4,0.5-6.5,0.7c-0.5,0-1.1-0.1-1.6-0.2c-0.6-1.9,0.7-2.6,1.9-3
			c2.4-1,4.9-2.1,7.4-2.5c4.7-0.8,8.7-3,12.4-5.8c6.6-5.1,12.4-11.2,17.9-17.5c14.2-16.3,26.9-33.7,37.9-52.3
			c2.7-4.5,4.9-9.3,7.1-14.1c0.9-1.8,1.7-3.8,0.9-6.1c-2-0.3-3.5,0.7-4.9,1.7c-4.8,3.3-9.6,6.6-14.1,10.3
			c-16.2,13.6-30.9,28.8-45,44.6c-2.1,2.3-4,4.7-6.1,7c-6.2,7.2-11.6,14.8-16.1,23.2c-11.9,22.5-24.5,44.8-36.3,67.3
			c-5.3,10.2-9.8,20.9-14.3,31.5c-1.8,4.1-2.8,8.6-3.9,12.9c-0.6,2.1-1.7,3.5-3.7,4.2c-3.6,1.2-7.1,1.2-10.6-0.2
			c-3.6-1.5-5.4-4.2-4.9-8.1c0.3-2.7,1-5.4,1.9-8c3.2-9.8,7.7-19.2,12.6-28.2c11.3-20.8,22.9-41.3,34.1-62.1
			c7.7-14.3,15.2-28.8,22.5-43.3c4.4-8.8,8-17.8,9.9-27.5c0.3-1.6,0.9-3.2,2.8-3.7c2-0.4,3.4,0.6,4.6,2c2,2.3,3,5.1,3.5,8.1
			c1.3,7.7,0.8,15.3-1.8,22.7c-0.2,0.6-0.4,1.2-0.6,1.8C231.2,277.8,231.3,277.9,231.4,277.9z M212.5,565.3c0.4,3.2,0.6,6.3,1.2,9.4
			c0.4,2.4,1.4,4.6,3.3,6.3c3,2.8,7.1,2.1,9-1.3c9.5-17.6,18.7-35.3,27-53.5c5.5-12,10.7-24.1,14.5-36.7c1.3-4.5,2.5-9.1,2.3-13.9
			c-0.1-1.8-0.4-3.7-1.1-5.4c-1-2.8-2.7-3.2-5.2-1.7c-0.9,0.6-1.9,1.2-2.7,1.9c-3.1,2.9-6.4,5.8-9.2,9
			c-15.2,17.3-26.2,37.1-33.4,58.9C215.4,547.1,212.9,556,212.5,565.3z"/>
		<path d="M588.7,521.2c9.9,3.1,13.3,10.8,13.8,20.5c0.4,9.2-1.6,18.1-3.7,27c-4.5,20.1-11.8,39.3-19.2,58.5
			c-6.7,17.3-13.6,34.5-19,52.3c-4.1,13.5-7.4,27.2-8.7,41.2c-1,10.4-1,20.9,1.7,31.1c3,11.3,9.5,19.7,20.5,24.3
			c0.8,0.3,1.7,0.6,2.3,1.2c0.6,0.5,1.3,1.5,1.1,2c-0.2,0.8-1.1,1.9-1.8,1.9c-1.7,0.1-3.5,0-5.2-0.4c-10.4-3-18.6-9.2-25.5-17.4
			c-8.2-9.8-12.9-21.2-15.1-33.6c-2.8-15.3-1.9-30.5,0.9-45.6c4.1-21.9,11.2-42.9,18.5-63.9c6-17.2,12-34.4,17.7-51.8
			c2.1-6.3,3.4-13,4.7-19.5c0.6-3.3,0.6-6.8,0.4-10.2c-0.4-6-3.8-8.9-9.8-8.6c-2.7,0.1-5.4,0.8-8.1,1.1c-1.2,0.1-2.4,0.3-3.6,0.1
			c-1.6-0.2-2.2-1.7-1.2-2.9c0.9-1.1,2-2.1,3.3-2.6c3.7-1.5,7.3-3.1,11.2-3.9c5.7-1.2,10.5-3.7,15-7.1c8.5-6.4,15.9-13.9,22.9-21.8
			c23.6-26.7,44.4-55.5,61.8-86.6c3-5.4,5.4-11.3,7.9-17c0.9-2,1.5-4.1,0.9-6.5c-1.8-0.4-3.3,0.5-4.6,1.3c-4.9,3.2-9.9,6.2-14.4,9.8
			c-15.5,12.3-29.5,26.1-43.2,40.2c-17.3,17.9-34,36.3-49.1,56.1c-2.7,3.5-5,7.2-7.1,11.1c-15.5,28.4-30.9,56.8-46.2,85.3
			c-10.5,19.7-20.6,39.6-29,60.3c-3.4,8.4-6.4,16.8-8.2,25.7c-0.4,2.3-1.6,3.9-3.6,4.8c-6.5,3-13,3.1-19.3-0.4
			c-3.8-2.1-5.5-5.7-5.1-10c0.3-3.1,1-6.3,1.9-9.3c2.9-10.2,7.3-19.8,11.8-29.3c10.6-22.2,22.6-43.7,34.5-65.3
			c15.4-27.8,31.1-55.4,45.3-83.9c6.9-13.8,13.5-27.6,18.4-42.3c1.8-5.4,3-11,4.5-16.5c1.3-5.2,5.7-6.7,9.7-3.2
			c1.5,1.3,2.8,2.9,3.6,4.7c1.3,3.2,2.6,6.6,3.1,10c1.7,11.1,0.6,21.9-3.6,33.2c1-1,1.6-1.5,2.1-2c14.7-16.5,29.9-32.6,45.9-47.9
			c11.3-10.8,22.8-21.3,35.6-30.4c4.7-3.3,9.6-6.2,14.5-9.1c4-2.3,8.4-3.7,13.1-4.2c4-0.4,7.9,0.2,11.5,2c4.8,2.5,7.1,6.7,7.6,11.9
			c0.4,4.5,0.1,9.1-1.8,13.3c-2.6,5.8-5.2,11.6-8.5,17.1c-10.7,18.3-23.7,34.9-37.8,50.7c-13.5,15-27.8,29.1-44.3,40.9
			C603.1,512.4,595.8,516.6,588.7,521.2z"/>
		<path d="M422.1,436.5c4.1-5.1,7.6-9.8,11.5-14.3c4.5-5.3,9.8-9.8,15.7-13.5c5.7-3.5,11.9-5.8,18.6-6.1c10.8-0.6,17,4.8,18.4,16.2
			c1.1,9.9-0.5,19.5-3,29c-4.8,18.3-12,35.8-19.7,53.1c-4.2,9.5-8.8,18.9-13.4,28.8c0.9-0.5,1.5-0.7,2-1.1
			c10.4-7.7,19.2-17.1,27.2-27.2c9.5-12,17.9-24.8,23.6-39.1c1.8-4.6,3-9.4,4.3-14.2c0.6-2.2,1.4-4.1,3.1-5.7c1.2-1.1,2.7-1.7,4.2-1
			c1.4,0.6,1.6,2.1,1.4,3.4c-0.5,3-0.9,6.1-1.7,9c-3.1,11.7-8.2,22.5-14.6,32.7c-14,22.6-31.3,42.2-53,57.7
			c-4.9,3.5-8.5,7.5-11.3,12.8c-16.7,31.3-35.1,61.5-56.1,90.1c-10.4,14.1-21.4,27.7-33.9,40c-5.8,5.7-11.9,11.1-18.8,15.5
			c-3.5,2.2-7.2,4.1-11,5.9c-6.6,3.1-13.4,2.8-20.2,0.3c-11.6-4.5-18.7-13.2-22.4-24.8c-2.9-8.9-3.2-18.1-2.4-27.4
			c1.7-18.3,7.3-35.7,14-52.7c10.4-26.4,23.7-51.3,38.3-75.5c15.1-25.1,31.6-49.2,50.2-71.9c6.1-7.4,12.5-14.5,19.7-20.9
			c6.8-6,14.7-6.9,23.1-5.6C419.4,430.7,421.6,432.8,422.1,436.5z M425.8,555.5c-1.9,0-3.4,0-4.9,0c-8.8-0.1-15.7-3.8-20.7-11
			c-2.5-3.6-4-7.6-5-11.8c-2.4-10.6-1.7-21.2,0.3-31.8c2.3-12.1,6.4-23.7,11.2-35.1c0.5-1.3,1-2.6,1.6-3.8c-0.8,0.3-1.2,0.8-1.6,1.3
			c-10.3,14.4-20.7,28.7-30.9,43.2c-16.6,23.6-32.2,47.7-45.6,73.3c-9.5,18.2-17.9,37-23.2,56.9c-3.8,14.3-5.9,28.9-5.6,43.7
			c0.1,4.5,0.6,9,2.3,13.2c2.2,5.4,5.7,7.2,11.3,5.3c3.4-1.2,6.8-2.6,9.7-4.7c5.2-3.8,10.3-7.9,15-12.3
			c10.4-9.9,19.2-21.1,27.7-32.6c21.6-29.4,40.3-60.6,57.7-92.5C425.4,556.5,425.5,556.1,425.8,555.5z M416.3,520.6
			c0.4,1.9,0.7,5.6,1.9,9.1c2.2,6.7,7.2,9.5,14.1,8.6c1.9-0.3,3.3-1,4.2-3c6.3-13.5,13-26.9,19.2-40.5c6.1-13.4,11.8-27,15.8-41.2
			c1.5-5.2,2.5-10.7,3.2-16.1c0.4-2.8-0.1-6-0.8-8.8c-1.1-4-4-5.4-7.9-3.9c-2,0.8-3.9,1.9-5.7,3.2c-4.8,3.4-8.8,7.6-12.4,12.2
			c-13.2,16.5-21.9,35.2-27.4,55.4C418.3,503.3,416.6,510.9,416.3,520.6z"/>
		<path d="M789.5,478.1c0.9,0.3,1.6,0.6,2.3,0.9c10.5,3.1,16.2,10.4,18.1,20.9c1.1,5.7,0.2,11.2-1,16.7c-4,17.6-9.9,34.6-16.7,51.3
			c-7.4,18.4-15.1,36.8-22.3,55.3c-6.1,15.7-11,31.8-13.8,48.4c-1.7,10.1-2.9,20.3-1.6,30.5c0.6,4.5,1.7,9.1,3.2,13.4
			c2.8,8.1,8.3,13.9,16,17.5c1.2,0.6,2.5,1,3.5,1.7c0.6,0.4,1.5,1.5,1.4,1.9c-0.4,0.9-1.2,2.1-2,2.2c-1.4,0.3-3.1,0-4.5-0.3
			c-8.7-2.3-15.7-7.3-21.8-13.7c-9.4-9.9-14.6-21.8-16.9-35.1c-2.6-14.5-1.7-28.9,1-43.3c4.1-21.6,11-42.5,17.7-63.4
			c5.8-18,11.6-36,17.2-54c2.3-7.6,4.1-15.3,4.6-23.2c0.2-3.2,0.1-6.4-0.3-9.5c-1-6.2-5-9.1-11.2-8.4c-2.7,0.3-5.4,0.9-8.1,1.3
			c-1.6,0.2-3.4,0.7-4.4-1.1c-0.7-1.1,0.3-2.9,2.7-4c3.8-1.7,7.7-3.4,11.7-4.3c5.5-1.2,10.3-3.7,14.7-7c7.4-5.4,14-11.8,20.4-18.3
			c16.5-16.7,31.4-34.7,45.7-53.3c15.5-20,30.2-40.5,43-62.4c3.4-5.9,6.6-11.9,9.5-18.1c1.6-3.3,2.5-7,3.7-10.5
			c0.2-0.5,0.3-1.1,0.5-1.6c1.7-5.1,5.3-6,9.3-2.4c4,3.7,6,8.6,7.1,13.9c1.7,8,1.1,15.7-2.5,23.2c-4.2,8.8-9.2,17-14.8,24.9
			c-21.3,30.5-45.5,58.5-73.6,83c-11.3,9.9-23.2,18.9-36.5,25.9C790.3,477.5,790,477.8,789.5,478.1z"/>
		<path d="M788.8,393c0,11.1-2,20.9-6.5,30.2c-7,14.8-15,29.1-23.1,43.3c-16,28.3-32.2,56.5-48.1,84.9
			c-9.9,17.7-19.2,35.8-27.1,54.6c-3.2,7.5-6.1,15.1-7.8,23.1c-0.6,2.9-2.4,4.6-5,5.7c-5,2-10,2.3-15.1,0.6c-6.1-2-9-7.1-7.7-13.4
			c1.4-6.9,4-13.5,6.8-19.9c7.6-17.5,16.7-34.1,26.1-50.6c16.2-28.4,32.8-56.7,49-85.1c11.6-20.2,22.8-40.6,32.2-62
			c4-9.1,7.8-18.4,9.8-28.3c0.1-0.6,0.3-1.3,0.6-1.9c1.6-3.8,5.2-4.8,8.6-2.4c2.3,1.7,3.7,4,4.7,6.6
			C788.4,383.4,788.9,388.6,788.8,393z"/>
		<path d="M682.1,201.1c12.2-1.1,23.8-2.9,35.5-3.5c0.2,3-0.2,3.7-2.4,4c-7.9,1.1-15.9,2.2-23.8,3.3c-3.4,0.5-6.7,1-10.1,1.4
			c-1.5,0.2-2.6,0.8-3.4,2.3c-19.1,35.5-38.7,70.8-55.8,107.4c-2.2,4.8-4.1,9.7-6,14.6c-0.5,1.3-0.7,2.7-1,4
			c0.2,0.1,0.5,0.3,0.7,0.4c1-1,2.1-2,3.1-3.1c7.8-8.2,15.5-16.5,23.5-24.6c3-3,6.4-5.7,9.7-8.4c1.3-1.1,2.9-2.1,4.8-1.4
			c0.6,2.4,0,4-2.3,4.9c-2.9,1.1-5.1,3-7.1,5.2c-8.3,9.1-16.5,18.3-24.7,27.5c-2.7,3-5.5,6-8.4,8.9c-3.3,3.3-6.6,3.6-10.7,1.4
			c-3.5-1.9-5.6-5.7-4.8-9.7c0.5-2.5,1.2-4.9,2.3-7.2c6.4-14.3,12.6-28.8,19.6-42.9c12.1-24.2,24.7-48.1,37.2-72.1
			c0.5-1,0.9-1.9,1.7-3.4c-5.9,1.2-11.4,2.2-16.8,3.6c-10.1,2.6-20.1,5.6-30.1,8.3c-1.2,0.3-2.6,0.6-3.9,0.6c-1.4,0-2-1.2-1.1-2.3
			c0.9-1.2,2.1-2.4,3.4-3c4.2-1.9,8.4-3.7,12.8-5c12-3.6,24.2-6.1,36.6-8.1c2.2-0.3,3.4-1.3,4.5-3.2c7.5-12.7,15-25.3,22.9-37.8
			c2.7-4.3,6.2-8.3,9.6-12.1c2.2-2.5,5.6-2.6,8.4-0.9c2.3,1.4,2.8,2.7,1.4,5.2c-4,7.2-8,14.4-12,21.6c-3.8,6.9-7.7,13.8-11.5,20.8
			C683.3,198.8,682.9,199.6,682.1,201.1z"/>
		<path d="M577,252.7c-1.1,0.8-2.3,1.4-3.3,2.4c-6,6.1-12.1,12.2-17.8,18.6c-15.9,17.7-31.1,36-44.9,55.3
			c-5.9,8.2-10.3,17.4-14.2,26.7c-1.2,3-1.7,3.5-4.8,3.4c-1.5,0-3.1-0.3-4.5-0.7c-2.5-0.7-2.9-1.4-2-3.8c1.2-3.4,2.5-6.8,4-10.1
			c8-17.8,17.3-34.9,27.1-51.7c6-10.3,12.4-20.3,18.7-30.3c1.6-2.6,3.6-5,5.6-7.3c2-2.4,7.5-3.6,10.3-2.4c1.5,0.6,1.6,1.7,1.1,3
			c-0.8,1.8-1.7,3.6-2.7,5.3c-6.9,12-13.8,24-20.6,36.1c-0.6,1-1.1,2.1-1.2,3.4c0.5-0.6,1.1-1.1,1.6-1.7
			c10.6-13.4,21.3-26.6,33.2-38.9c4-4.1,8.3-7.9,12.6-11.7c1.6-1.4,3.6-2.5,5.6-3.5c2.7-1.4,5.1-0.7,7.3,1.3c2.7,2.5,3.7,6.3,2,9.6
			c-1.9,4-4.1,7.8-6.2,11.6c-8.5,15.2-17.3,30.4-25.6,45.7c-3.2,6-5.6,12.4-8.3,18.6c-0.4,1-0.6,2-0.4,3.3c0.7-0.8,1.5-1.5,2.1-2.3
			c12-14.6,23.9-29.3,36.1-43.8c11.2-13.2,22.6-26.1,34-39c2.8-3.2,6.1-6,9.3-8.9c1.1-1,2.4-2,4.1-1.4c0.9,2.4,0.4,4.4-1.9,5.4
			c-3.3,1.4-5.6,3.9-7.8,6.5c-8.5,9.8-17,19.6-25.4,29.5c-16.1,19.1-32.1,38.3-48.2,57.3c-3.2,3.8-6.7,7.3-10.2,10.8
			c-0.9,0.9-2.4,1.7-3.7,1.8c-4.6,0.6-7.1-1.9-6.3-6.4c0.8-4.3,1.9-8.6,3.4-12.7c4.3-11.8,10.2-22.9,16.5-33.7
			c7.8-13.4,15.8-26.7,23.7-40c0.9-1.5,1.6-3.2,2.4-4.8C577.5,253,577.2,252.9,577,252.7z"/>
		<path d="M402.1,323.7c0.6-2.1,0.9-3.6,1.4-4.9c2.8-6.8,5.8-13.5,8.6-20.3c1.2-3,2.3-6.2,3.2-9.3c0.5-1.6,0.4-3.4,0.6-4.9
			c-1.8-1.2-3-0.5-4,0.2c-1.9,1.3-3.8,2.7-5.4,4.3c-5.7,5.5-10.4,11.9-14.8,18.5c-11.7,17.7-21.3,36.4-27.6,56.7
			c-0.9,2.9-1.4,6-1.6,9c-0.2,3.2,1.4,4.2,4.1,2.5c3-1.9,6.1-4.1,8.5-6.7c7.1-7.8,14.3-15.6,20.9-23.8
			c13.4-16.7,26.4-33.8,39.6-50.7c4.2-5.4,8.7-10.5,13.2-15.6c1.2-1.4,2.7-2.6,4.3-3.6c0.6-0.4,1.8-0.5,2.3-0.1
			c0.5,0.4,0.9,1.7,0.6,2.3c-0.6,1.3-1.4,3-2.6,3.5c-2.6,1.3-4.4,3.3-6,5.5c-6.4,8.5-12.7,17.1-19.1,25.7
			c-11.8,15.9-23.6,31.8-36.7,46.6c-6.2,7-12.6,13.8-20,19.6c-3.5,2.7-7.1,5.2-11.3,6.7c-3.7,1.3-5.7,0.5-7.4-3.2
			c-2.4-5.3-2.2-11-1.5-16.5c1.4-11.5,5.4-22.2,10.2-32.6c7.2-15.6,16.2-30,28.4-42.2c3.9-3.9,8.2-7.3,13.1-9.9
			c3.1-1.6,6.4-2.9,10-3.1c1.3-0.1,2.6,0,3.9,0.2c2.8,0.5,4.6,2.3,4.7,5.2c0.1,2.4-0.1,4.9-0.8,7.1c-3.1,10.6-7.7,20.6-13.8,29.8
			c-0.7,1-1.4,2-2.3,2.8C404.3,323,403.5,323.1,402.1,323.7z"/>
		<path d="M435.4,364.8c1.8-1.6,3.2-2.5,4.2-3.7c6.1-7.1,12.3-14.1,18.2-21.3c16-19.6,31.8-39.3,47.8-58.9c4.2-5.2,8.9-10,13.4-15
			c1.3-1.4,2.7-2.5,4.2-3.7c1-0.9,2.2-1.5,3.6-0.9c0.6,2.7,0.2,4.4-1.9,5.3c-3.1,1.3-5.2,3.7-7.2,6.2c-9.9,12.2-19.7,24.5-29.6,36.7
			c-13,15.9-26,31.8-39.2,47.7c-2.8,3.4-6.1,6.4-9.2,9.5c-1.1,1.1-2.3,2.1-3.5,3c-3.9,2.9-6.9,2.2-9-2.2c-2.5-5.2-2.8-10.8-2.6-16.4
			c0.4-11,3.8-21.1,8.5-30.9c7.9-16.4,18.2-31.1,31.2-43.9c4.6-4.6,9.6-8.7,15.4-11.8c2.8-1.5,5.8-2.7,9.1-2.7c4,0,6.3,2.1,6,6.1
			c-0.2,2.8-1.1,5.6-2.2,8.2c-2.9,6.7-7.2,12.6-11.7,18.3c-7.2,9-15.1,17.1-24.6,23.7c-2,1.4-4,2.9-6.2,3.8
			c-2.9,1.3-4.6,3.4-5.9,6.2c-4.8,10.1-8.2,20.6-9,31.9C435.2,361.2,435.4,362.6,435.4,364.8z M451.3,314.9c0.2,0.1,0.3,0.3,0.5,0.4
			c0.6-0.4,1.3-0.8,1.9-1.2c7.9-5.5,14.7-12.2,20.9-19.5c4.8-5.6,9.2-11.5,12.6-18c0.9-1.8,1.7-3.8,2.2-5.8c0.4-1.7-0.7-2.5-2.3-1.9
			c-0.9,0.3-1.8,0.9-2.5,1.5c-2,1.8-3.9,3.5-5.7,5.5c-10.4,11.4-19,24.1-26.9,37.4C451.8,313.8,451.6,314.4,451.3,314.9z"/>
		<path d="M288.5,392.2c2.7-0.8,3.9-2.5,5.2-3.9c5.8-6.7,11.7-13.5,17.3-20.4c16.1-19.7,31.9-39.5,48-59.2
			c4.4-5.4,9.2-10.4,13.9-15.4c1.4-1.5,3.2-2.7,4.9-3.9c0.5-0.3,1.7-0.4,2-0.1c0.5,0.6,0.8,1.7,0.5,2.3c-0.5,1.1-1.3,2.5-2.4,3
			c-3,1.3-5,3.6-6.9,5.9c-6.6,8.1-13.2,16.2-19.8,24.3c-14.8,18.3-29.5,36.7-44.4,54.9c-4.2,5.2-9.1,9.9-13.7,14.7
			c-1.4,1.4-3,2.7-4.6,3.7c-2.9,1.9-5.6,1.5-7.3-1.6c-1.3-2.3-2.3-5-2.8-7.7c-1.6-8.4-0.6-16.6,1.7-24.8
			c4.2-14.8,11.6-27.9,20.5-40.4c6.9-9.6,14.5-18.5,23.8-25.9c4.4-3.5,9-6.7,14.6-8c1.2-0.3,2.4-0.4,3.6-0.4c3,0.2,5,1.9,5.2,5
			c0.1,1.8,0,3.8-0.6,5.5c-0.8,2.6-2,5.1-3.3,7.5c-8.9,15.5-20.6,28.5-35.1,38.8c-2.2,1.6-4.6,3-7.1,4.2c-1.5,0.8-2.6,1.8-3.4,3.3
			c-5.1,10.3-8.8,21.1-9.9,32.6C288.3,388.3,288.5,390,288.5,392.2z M342.7,297.1c-2.3-0.7-3.5,0.2-4.6,1.1c-2.1,1.8-4.1,3.6-6,5.7
			c-10.6,11.6-19.3,24.5-27.2,38c-0.3,0.4-0.4,0.9-0.6,1.4c1.5-0.3,2.7-1.1,3.8-1.9c12.6-9.4,22.9-20.9,31-34.3
			c1.1-1.9,2.1-3.9,2.9-5.9C342.4,299.9,342.4,298.5,342.7,297.1z"/>
		<path fill="#FFFFFF" d="M212.5,565.3c0.4-9.4,2.9-18.3,5.8-27c7.1-21.9,18.1-41.6,33.4-58.9c2.8-3.2,6.1-6,9.2-9
			c0.8-0.7,1.7-1.4,2.7-1.9c2.5-1.5,4.1-1,5.2,1.7c0.6,1.7,1,3.6,1.1,5.4c0.2,4.8-0.9,9.4-2.3,13.9c-3.8,12.7-9,24.7-14.5,36.7
			c-8.3,18.2-17.4,36-27,53.5c-1.9,3.5-6,4.1-9,1.3c-1.8-1.7-2.8-4-3.3-6.3C213.2,571.7,212.9,568.5,212.5,565.3z"/>
		<path fill="#FFFFFF" d="M425.8,555.5c-0.3,0.6-0.4,1-0.6,1.3c-17.4,32-36.1,63.2-57.7,92.5c-8.5,11.5-17.3,22.8-27.7,32.6
			c-4.7,4.5-9.8,8.5-15,12.3c-2.9,2.1-6.3,3.6-9.7,4.7c-5.5,1.9-9.1,0.1-11.3-5.3c-1.7-4.2-2.2-8.7-2.3-13.2
			c-0.3-14.8,1.8-29.4,5.6-43.7c5.3-20,13.6-38.7,23.2-56.9c13.4-25.6,29.1-49.7,45.6-73.3c10.2-14.5,20.6-28.8,30.9-43.2
			c0.4-0.5,0.8-1,1.6-1.3c-0.5,1.3-1,2.6-1.6,3.8c-4.8,11.3-8.9,22.9-11.2,35.1c-2,10.5-2.7,21.1-0.3,31.8c1,4.2,2.5,8.2,5,11.8
			c5,7.2,11.9,10.8,20.7,11C422.4,555.5,423.9,555.5,425.8,555.5z"/>
		<path fill="#FFFFFF" d="M416.3,520.6c0.4-9.7,2-17.3,4.1-24.8c5.5-20.3,14.2-39,27.4-55.4c3.7-4.6,7.6-8.8,12.4-12.2
			c1.8-1.2,3.7-2.4,5.7-3.2c3.9-1.5,6.8-0.1,7.9,3.9c0.8,2.8,1.2,5.9,0.8,8.8c-0.7,5.4-1.7,10.9-3.2,16.1
			c-4.1,14.2-9.7,27.8-15.8,41.2c-6.2,13.6-12.9,27-19.2,40.5c-0.9,2-2.3,2.7-4.2,3c-6.9,0.9-11.9-1.9-14.1-8.6
			C417,526.3,416.6,522.5,416.3,520.6z"/>
		<path fill="#FFFFFF" d="M451.3,314.9c0.3-0.6,0.5-1.1,0.8-1.7c7.8-13.3,16.5-26,26.9-37.4c1.8-1.9,3.8-3.7,5.7-5.5
			c0.7-0.6,1.6-1.1,2.5-1.5c1.6-0.6,2.7,0.2,2.3,1.9c-0.5,2-1.3,4-2.2,5.8c-3.4,6.6-7.8,12.4-12.6,18c-6.2,7.3-13,14-20.9,19.5
			c-0.6,0.4-1.3,0.8-1.9,1.2C451.6,315.2,451.5,315.1,451.3,314.9z"/>
		<path fill="#FFFFFF" d="M342.7,297.1c-0.2,1.4-0.3,2.9-0.7,4.1c-0.8,2-1.7,4.1-2.9,5.9c-8.2,13.4-18.5,24.9-31,34.3
			c-1.1,0.8-2.3,1.5-3.8,1.9c0.2-0.5,0.4-0.9,0.6-1.4c7.9-13.5,16.7-26.4,27.2-38c1.8-2,3.9-3.9,6-5.7
			C339.1,297.3,340.3,296.4,342.7,297.1z"/>
	</g>
	<g>
		<polygon fill="#010202" points="402.1,120.5 401.9,121 446.1,121 446.3,120.5 		"/>
		<polygon fill="#010202" points="400.7,123.4 400.4,123.9 444.6,123.9 444.9,123.4 		"/>
		<polygon fill="#010202" points="399.2,126.3 399,126.7 443.2,126.7 443.4,126.3 		"/>
		<polygon fill="#010202" points="397.9,128.9 397.8,129.2 442,129.2 442.1,128.9 		"/>
		<polygon fill="#010202" points="403.7,117.5 403.3,118.2 447.5,118.2 447.9,117.5 		"/>
		<polygon fill="#010202" points="405.2,114.4 404.8,115.2 449,115.2 449.4,114.4 		"/>
		<polygon fill="#010202" points="406.5,111.8 406.1,112.6 450.3,112.6 450.7,111.8 		"/>
		<polygon fill="#010202" points="408.1,108.6 407.6,109.7 451.8,109.7 452.3,108.6 		"/>
		<polygon fill="#010202" points="409.5,105.9 409,106.9 453.2,106.9 453.7,105.9 		"/>
		<polygon fill="#010202" points="411,102.9 410.5,103.9 454.7,103.9 455.2,102.9 		"/>
		<polygon fill="#010202" points="412.5,99.9 411.8,101.3 456,101.3 456.7,99.9 		"/>
		<polygon fill="#010202" points="414,97 413.3,98.4 457.5,98.4 458.2,97 		"/>
		<polygon fill="#010202" points="415.4,94.1 414.7,95.5 459,95.5 459.7,94.1 		"/>
		<polygon fill="#010202" points="416.9,91.1 416.1,92.7 460.3,92.7 461.1,91.1 		"/>
		<polygon fill="#010202" points="418.4,88.2 417.6,89.8 461.8,89.8 462.6,88.2 		"/>
		<polygon fill="#010202" points="419.9,85.3 419,87.1 463.2,87.1 464.1,85.3 		"/>
		<polygon fill="#010202" points="421.4,82.3 420.3,84.3 464.6,84.3 465.6,82.3 		"/>
		<polygon fill="#010202" points="422.9,79.3 421.9,81.3 466.1,81.3 467.1,79.3 		"/>
		<polygon fill="#010202" points="424.3,76.5 423.3,78.5 467.5,78.5 468.5,76.5 		"/>
		<polygon fill="#010202" points="425.7,73.6 424.7,75.6 468.9,75.6 470,73.6 		"/>
		<polygon fill="#010202" points="427.2,70.7 426.2,72.7 470.4,72.7 471.4,70.7 		"/>
		<polygon fill="#010202" points="428.7,67.7 427.5,70 471.7,70 472.9,67.7 		"/>
		<polygon fill="#010202" points="430.2,64.8 429,67.2 473.2,67.2 474.4,64.8 		"/>
		<polygon fill="#010202" points="431.7,61.8 430.5,64.2 474.7,64.2 475.9,61.8 		"/>
		<polygon fill="#010202" points="433.1,59 431.9,61.3 476.1,61.3 477.3,59 		"/>
		<polygon fill="#010202" points="434.6,55.9 433.3,58.5 477.5,58.5 478.8,55.9 		"/>
		<polygon fill="#010202" points="436.1,53.1 434.8,55.7 479,55.7 480.3,53.1 		"/>
		<polygon fill="#010202" points="437.6,50.1 436.2,52.7 480.5,52.7 481.8,50.1 		"/>
		<polygon fill="#010202" points="484,51.4 484,51.4 444.9,129.2 523.1,129.2 		"/>
		<polygon fill="#010202" points="437.7,49.9 460.4,4.7 482.6,48.5 481.9,49.9 		"/>
	</g>
</g>
</svg>
